<svg width="334" height="200" viewBox="0 0 334 200" fill="none" xmlns="http://www.w3.org/2000/svg">
<path d="M267.2 100C267.2 109.207 263.466 117.54 257.421 123.567C251.375 129.6 243.025 133.333 233.8 133.333C224.575 133.333 216.225 137.06 210.186 143.093C204.141 149.127 200.4 157.46 200.4 166.667C200.4 175.873 196.666 184.207 190.621 190.233C184.575 196.267 176.225 200 167 200C157.775 200 149.425 196.267 143.386 190.233C137.341 184.207 133.6 175.873 133.6 166.667C133.6 157.46 137.341 149.127 143.386 143.093C149.425 137.06 157.775 133.333 167 133.333C176.225 133.333 184.575 129.6 190.621 123.567C196.666 117.54 200.4 109.207 200.4 100C200.4 81.5867 185.45 66.6667 167 66.6667C157.775 66.6667 149.425 62.9333 143.386 56.9C137.341 50.8733 133.6 42.54 133.6 33.3333C133.6 24.1267 137.341 15.7933 143.386 9.76C149.425 3.72667 157.775 0 167 0C185.45 0 200.4 14.92 200.4 33.3333C200.4 42.54 204.141 50.8733 210.186 56.9C216.225 62.9333 224.575 66.6667 233.8 66.6667C252.25 66.6667 267.2 81.5867 267.2 100Z" fill="white"/>
<path d="M133.6 99.9998C133.6 81.5903 118.646 66.6665 100.2 66.6665C81.7537 66.6665 66.8 81.5903 66.8 99.9998C66.8 118.409 81.7537 133.333 100.2 133.333C118.646 133.333 133.6 118.409 133.6 99.9998Z" fill="white"/>
<path d="M66.8 166.667C66.8 148.257 51.8463 133.333 33.4 133.333C14.9537 133.333 0 148.257 0 166.667C0 185.076 14.9537 200 33.4 200C51.8463 200 66.8 185.076 66.8 166.667Z" fill="white"/>
<path d="M334 166.667C334 148.257 319.047 133.333 300.6 133.333C282.154 133.333 267.2 148.257 267.2 166.667C267.2 185.076 282.154 200 300.6 200C319.047 200 334 185.076 334 166.667Z" fill="white"/>
</svg>
