<svg width="1110" height="148" viewBox="0 0 1110 148" fill="none" xmlns="http://www.w3.org/2000/svg">
<path d="M198.9 74C198.9 80.8129 196.127 86.9796 191.639 91.4393C187.15 95.904 180.95 98.6667 174.1 98.6667C167.25 98.6667 161.05 101.424 156.566 105.889C152.078 110.354 149.3 116.52 149.3 123.333C149.3 130.146 146.527 136.313 142.039 140.773C137.55 145.237 131.35 148 124.5 148C117.65 148 111.45 145.237 106.966 140.773C102.478 136.313 99.7 130.146 99.7 123.333C99.7 116.52 102.478 110.354 106.966 105.889C111.45 101.424 117.65 98.6667 124.5 98.6667C131.35 98.6667 137.55 95.904 142.039 91.4393C146.527 86.9796 149.3 80.8129 149.3 74C149.3 60.3741 138.199 49.3333 124.5 49.3333C117.65 49.3333 111.45 46.5707 106.966 42.106C102.478 37.6463 99.7 31.4796 99.7 24.6667C99.7 17.8537 102.478 11.6871 106.966 7.2224C111.45 2.75773 117.65 0 124.5 0C138.199 0 149.3 11.0408 149.3 24.6667C149.3 31.4796 152.078 37.6463 156.566 42.106C161.05 46.5707 167.25 49.3333 174.1 49.3333C187.799 49.3333 198.9 60.3741 198.9 74Z" fill="#F44250"/>
<path d="M99.7 73.9997C99.7 60.3767 88.5966 49.333 74.9 49.333C61.2033 49.333 50.1 60.3767 50.1 73.9997C50.1 87.6227 61.2033 98.6663 74.9 98.6663C88.5966 98.6663 99.7 87.6227 99.7 73.9997Z" fill="#121212"/>
<path d="M50.1 123.334C50.1 109.711 38.9967 98.667 25.3 98.667C11.6033 98.667 0.5 109.711 0.5 123.334C0.5 136.957 11.6033 148 25.3 148C38.9967 148 50.1 136.957 50.1 123.334Z" fill="#121212"/>
<path d="M248.5 123.334C248.5 109.711 237.397 98.667 223.7 98.667C210.003 98.667 198.9 109.711 198.9 123.334C198.9 136.957 210.003 148 223.7 148C237.397 148 248.5 136.957 248.5 123.334Z" fill="#121212"/>
<g clip-path="url(#clip0_171_1761)">
<path d="M356.368 121.167C354.387 118.566 353.16 112.312 352.406 102.082C351.637 91.2454 346.758 87.7276 337.148 87.7276H317.765V121.153H295V25H341.407C366.289 25 378.5 36.6047 378.5 55.0833C378.5 69.2759 369.496 78.1311 357.743 79.6541C367.973 81.6354 373.769 87.5928 374.834 98.8875C376.209 113.08 376.667 117.663 379.875 121.167H356.368ZM337.741 69.8824C349.804 69.8824 355.748 66.3781 355.748 56.9029C355.748 48.3577 349.791 43.6269 337.741 43.6269H317.738V69.8824H337.741Z" fill="#121212"/>
<path d="M451.056 98.8874C447.551 114.306 435.488 123 417.777 123C396.252 123 380.994 109.872 380.994 88.3474C380.994 66.8228 396.562 51.5654 417.319 51.5654C439.761 51.5654 451.514 66.9845 451.514 85.4496V92.1618H402.667C403.274 101.165 410 106.354 418.545 106.354C426.174 106.354 430.905 103.457 433.358 97.2026L451.069 98.8874H451.056ZM430.299 80.4088C429.84 73.6966 425.568 67.591 417.17 67.591C408.315 67.591 404.191 73.2384 402.977 80.4088H430.299Z" fill="#121212"/>
<path d="M521.59 102.702C521.59 106.206 523.113 107.743 525.862 107.743C527.844 107.743 529.529 107.433 531.51 106.516V118.269C528.154 120.709 523.881 122.69 517.169 122.69C509.081 122.69 503.124 118.417 501.143 110.789C497.328 118.579 488.931 122.69 478.404 122.69C464.818 122.69 456.272 115.816 456.272 104.225C456.272 91.2452 466.044 85.7596 481.005 82.8618L499.929 79.5057V78.2792C499.929 71.8636 496.722 68.0493 490.009 68.0493C483.297 68.0493 480.399 72.0119 479.172 77.6592L458.725 76.1362C461.017 61.6336 471.853 51.5654 491.236 51.5654C508.947 51.5654 521.617 59.5041 521.617 77.9692V102.702H521.59ZM499.916 91.097L488.769 93.3883C481.895 94.7631 477.622 96.4344 477.622 101.785C477.622 105.748 480.682 108.201 485.413 108.201C493.5 108.201 499.916 102.095 499.916 92.4852V91.1105V91.097Z" fill="#121212"/>
<path d="M567.174 51.5654C587.325 51.5654 598.62 64.8415 600.291 81.0288L581.974 82.4036C580.451 73.2519 575.558 68.3593 567.323 68.3593C559.087 68.3593 552.82 74.3166 552.82 87.2827C552.82 100.249 558.777 106.206 567.323 106.206C575.868 106.206 580.451 101.165 581.974 92.0135L600.291 93.5365C598.607 109.872 587.311 123 567.174 123C545.959 123 530.539 108.807 530.539 87.2827C530.539 65.758 545.959 51.5654 567.174 51.5654Z" fill="#121212"/>
<path d="M610.549 68.8172H601.087V55.3795L605.966 54.6112C612.678 53.3847 614.673 49.8804 616.345 43.6265L618.636 34.623H632.222V53.3982H650.23V68.8172H632.222V97.0541C632.222 102.85 634.972 105.303 640.161 105.303C643.517 105.303 647.035 104.386 651.146 102.553V117.056C646.105 120.87 640.31 123.013 631.454 123.013C620.469 123.013 610.549 118.282 610.549 103.011V68.8172Z" fill="#121212"/>
<path d="M813.011 123C791.338 123 776.525 108.349 776.525 87.2827C776.525 66.2162 791.324 51.5654 813.011 51.5654C834.699 51.5654 849.646 66.3645 849.646 87.2827C849.646 108.201 834.685 123 813.011 123ZM813.011 106.368C822.622 106.368 827.353 98.5774 827.353 87.2827C827.353 75.9879 822.622 68.1975 813.011 68.1975C803.401 68.1975 798.818 75.9879 798.818 87.2827C798.818 98.5774 803.239 106.368 813.011 106.368Z" fill="#121212"/>
<path d="M900.609 53.3984H922.741V121.167H900.609V110.64C896.943 118.269 889.314 123 879.084 123C860.766 123 854.97 110.479 854.97 95.9896V53.3984H876.954V90.6387C876.954 100.249 880.162 105.6 888.249 105.6C896.336 105.6 900.609 98.7256 900.609 87.8892V53.3984Z" fill="#121212"/>
<path d="M938.727 68.8172H929.265V55.3795L934.144 54.6112C940.857 53.3847 942.851 49.8804 944.523 43.6265L946.814 34.623H960.401V53.3982H978.408V68.8172H960.401V97.0541C960.401 102.85 963.15 105.303 968.339 105.303C971.696 105.303 975.214 104.386 979.325 102.553V117.056C974.284 120.87 968.488 123.013 959.632 123.013C948.647 123.013 938.727 118.282 938.727 103.011V68.8172Z" fill="#121212"/>
<path d="M1053.71 98.8874C1050.21 114.306 1038.15 123 1020.43 123C998.909 123 983.651 109.872 983.651 88.3474C983.651 66.8228 999.219 51.5654 1019.98 51.5654C1042.42 51.5654 1054.17 66.9845 1054.17 85.4496V92.1618H1005.32C1005.93 101.165 1012.66 106.354 1021.2 106.354C1028.83 106.354 1033.56 103.457 1036 97.2026L1053.71 98.8874ZM1032.96 80.4088C1032.5 73.6966 1028.23 67.591 1019.83 67.591C1010.97 67.591 1006.85 73.2384 1005.63 80.4088H1032.96Z" fill="#121212"/>
<path d="M1108.63 74.9232C1105.12 72.9419 1101.75 72.1736 1097.02 72.1736C1087.87 72.1736 1081.76 77.3627 1081.76 89.1157V121.167H1059.78V53.3985H1081.76V65.758C1084.36 58.1293 1091.37 51.5654 1100.54 51.5654C1104.66 51.5654 1108.17 52.7919 1110 54.315L1108.63 74.9232Z" fill="#121212"/>
<path fill-rule="evenodd" clip-rule="evenodd" d="M772.441 121.396C772.441 115.695 772.441 110.479 771.578 99.3321C770.5 88.1452 764.677 82.4709 754.716 80.4761C766.523 78.9396 775.258 69.7474 775.258 55.6492C775.258 36.7932 762.844 24.9863 737.841 24.9863H691.474V44.6375H733.231C744.27 44.6375 749.797 49.3684 749.797 57.1858C749.797 66.0814 744.27 69.4374 733.231 69.4374H691.474V89.52H732.005C740.739 89.52 745.497 91.973 746.265 103.012C746.845 110.546 746.777 114.279 746.696 117.865C746.669 119.01 746.656 120.156 746.656 121.396H772.427H772.441Z" fill="#121212"/>
<path fill-rule="evenodd" clip-rule="evenodd" d="M691.474 104.436V121.41H722.268V109.827C722.268 107.819 721.284 104.436 716.728 104.436H691.474Z" fill="#121212"/>
</g>
<defs>
<clipPath id="clip0_171_1761">
<rect width="815" height="98" fill="white" transform="translate(295 25)"/>
</clipPath>
</defs>
</svg>
