<svg width="960" height="228" fill="none" xmlns="http://www.w3.org/2000/svg"><g clip-path="url(#a)" fill="#fff"><path d="M282.202 227.012c-49.981 0-84.127-33.794-84.127-82.369 0-48.574 34.146-82.369 84.127-82.369 49.981 0 84.478 34.146 84.478 82.369s-34.497 82.369-84.478 82.369Zm0-38.365c22.178 0 33.091-17.959 33.091-44.004 0-26.045-10.913-44.004-33.091-44.004s-32.739 17.959-32.739 44.004c0 26.045 10.21 44.004 32.739 44.004Zm355.769-3.792c-12.364 0-18.897-5.816-18.897-19.629V97.974h42.891V62.393h-42.891V1.221h-36.065l-7.412 32.856c-3.618 13.492-6.928 21.812-16.011 26.09-1.04.483-3.632 1.2-5.888 1.713-1.831.41-3.692.615-5.567.615H531.3v.088h-22.969c-14.766 0-26.748 11.968-26.748 26.749v56.733c0 24.991-9.507 40.826-28.506 40.826-18.999 0-26.045-12.32-26.045-34.497v-89.81h-50.669v102.129c0 33.443 13.374 62.3 55.605 62.3 20.054 0 35.772-7.895 45.22-21.079 1.377-1.919 4.395-.908 4.395 1.436v15.41h51.021V109.708c0-6.49 5.259-11.748 11.748-11.748h23.086v81.431c0 36.358 23.628 47.622 49.805 47.622 21.079 0 34.893-5.083 46.89-14.18v-34.526c-9.814 4.365-18.179 6.548-26.177 6.548h.015Zm194.078-13.449c-8.1 35.552-35.903 55.621-76.743 55.621-49.629 0-84.83-30.279-84.83-79.908 0-49.63 35.904-84.83 83.775-84.83 51.739 0 78.853 35.552 78.853 78.15v8.687H720.457c-2.564 28.637 16.89 39.536 36.607 39.536 17.607 0 28.506-6.694 34.145-21.123l40.84 3.867Zm-47.871-47.139c-1.055-15.483-10.913-25.034-30.278-25.034-20.421 0-29.927 8.481-32.74 25.034h63.018Zm172.091-12.056c-8.1-4.57-15.835-6.343-26.748-6.343-21.123 0-35.2 11.968-35.2 39.068v77.842h-50.684V62.582h50.684v21.519c0 1.494 1.992 1.963 2.666.63 7.383-14.737 22.119-26.368 40.635-26.368 9.507 0 17.607 2.813 21.826 6.343l-3.164 47.52-.015-.015ZM262.309 41.08v-9.888h-32.622v9.887H220.4V2.642h35.112c14.986 0 16.04.937 16.04 14.282 0 5.625-1.172 7.134-3.984 8.57l-2.52 1.288 2.505 1.319c2.989 1.567 3.999 2.095 3.999 11v1.978h-9.243Zm-32.622-17.286h32.622v-13.74h-32.622v13.74Zm73.521-21.152h42.422v7.441h-40.357v8.657h39.288v6.27h-39.288v8.672h40.372v7.353l-42.423.044c-4.145 0-7.5-3.354-7.5-7.485V10.142a7.49 7.49 0 0 1 7.486-7.486v-.014ZM404.327 41.08l-3.164-6.812h-25.46l-3.164 6.811h-8.862l16.304-35.141a5.697 5.697 0 0 1 5.156-3.296h6.548a5.68 5.68 0 0 1 5.156 3.296l16.304 35.141h-8.862.044Zm-15.879-30.792c-.982 0-1.846.557-2.271 1.45l-7.558 16.275h19.643l-7.544-16.275a2.48 2.48 0 0 0-2.27-1.45Z"/><path d="M455.89 42.236c-24.683 0-25.65 0-25.65-20.376 0-20.377.967-20.362 25.65-20.362 22.119 0 24.8.923 25.429 12.027h-9.067V8.91h-33.018v25.914h33.018v-4.585h9.067c-.615 11.074-3.31 11.997-25.429 11.997Zm66.152-1.156V8.925H500.89V2.642h51.153v6.284H530.89v32.153h-8.848ZM140.419 222.515c-4.571-5.976-7.383-19.687-9.141-42.539-1.758-25.313-12.656-30.938-32.695-30.938H58.855v73.492H.13V1h111.812c57.305 0 85.796 27.07 85.796 70.328 0 32.344-20.039 53.437-47.109 56.968 22.851 4.57 36.211 17.578 38.672 43.242 3.164 33.047 4.219 42.891 11.601 50.977h-60.483Zm-39.024-119.547c25.313 0 37.969-6.328 37.969-26.719 0-17.93-12.656-27.421-37.969-27.421h-42.54v54.155h42.54v-.015Z"/></g><defs><clipPath id="a"><path fill="#fff" transform="translate(.13 1)" d="M0 0h959.303v226.012H0z"/></clipPath></defs></svg>