<svg width="456" height="232" viewBox="0 0 456 232" fill="none" xmlns="http://www.w3.org/2000/svg">
<path d="M66.8632 105.22C64.7044 102.373 63.368 95.5308 62.5456 84.3379C61.7085 72.4813 56.3924 68.6323 45.9216 68.6323H24.8038V105.205H0V0H50.5622C77.6717 0 90.9768 12.6971 90.9768 32.9152C90.9768 48.4438 81.1668 58.1325 68.3611 59.7989C79.5074 61.9667 85.8222 68.4849 86.9823 80.8428C88.4802 96.3714 88.9795 101.385 92.4747 105.22H66.8632ZM46.5678 49.1074C59.7113 49.1074 66.1876 45.2732 66.1876 34.906C66.1876 25.5565 59.6966 20.3803 46.5678 20.3803H24.7745V49.1074H46.5678Z" fill="#121212"/>
<path d="M170.029 80.843C166.211 97.7135 153.067 107.225 133.77 107.225C110.318 107.225 93.6936 92.8617 93.6936 69.3109C93.6936 45.76 110.655 29.0664 133.271 29.0664C157.722 29.0664 170.528 45.9369 170.528 66.1403V73.4842H117.308C117.969 83.3352 125.297 89.0128 134.607 89.0128C142.919 89.0128 148.074 85.8422 150.747 78.9996L170.044 80.843H170.029ZM147.413 60.6249C146.914 53.2809 142.259 46.6005 133.11 46.6005C123.461 46.6005 118.967 52.7795 117.646 60.6249H147.413Z" fill="#121212"/>
<path d="M246.878 85.0164C246.878 88.8506 248.538 90.5317 251.534 90.5317C253.692 90.5317 255.528 90.1925 257.687 89.1897V102.049C254.03 104.718 249.375 106.886 242.061 106.886C233.25 106.886 226.759 102.211 224.6 93.8645C220.444 102.388 211.295 106.886 199.826 106.886C185.023 106.886 175.712 99.3651 175.712 86.6828C175.712 72.4814 186.359 66.4794 202.66 63.3088L223.279 59.6368V58.2949C223.279 51.2753 219.784 47.1019 212.47 47.1019C205.157 47.1019 201.999 51.4375 200.663 57.6165L178.385 55.9501C180.882 40.0824 192.689 29.0664 213.807 29.0664C233.103 29.0664 246.908 37.7524 246.908 57.9557V85.0164H246.878ZM223.264 72.3192L211.119 74.8262C203.629 76.3304 198.974 78.159 198.974 84.0136C198.974 88.3492 202.308 91.0331 207.462 91.0331C216.274 91.0331 223.264 84.3527 223.264 73.8382V72.334V72.3192Z" fill="#121212"/>
<path d="M296.545 29.0664C318.499 29.0664 330.806 43.5922 332.627 61.3033L312.669 62.8074C311.01 52.7943 305.679 47.4411 296.706 47.4411C287.733 47.4411 280.905 53.9593 280.905 68.1458C280.905 82.3324 287.396 88.8506 296.706 88.8506C306.017 88.8506 311.01 83.3352 312.669 73.322L332.627 74.9884C330.791 92.8617 318.485 107.225 296.545 107.225C273.43 107.225 256.629 91.6967 256.629 68.1458C256.629 44.595 273.43 29.0664 296.545 29.0664Z" fill="#121212"/>
<path d="M343.803 47.9423H333.493V33.2396L338.81 32.399C346.123 31.0571 348.296 27.2229 350.117 20.3803L352.614 10.5293H367.417V31.0718H387.037V47.9423H367.417V78.8372C367.417 85.1784 370.413 87.8623 376.067 87.8623C379.723 87.8623 383.556 86.8595 388.035 84.854V100.722C382.543 104.895 376.228 107.24 366.58 107.24C354.611 107.24 343.803 102.064 343.803 85.3554V47.9423Z" fill="#121212"/>
<path d="M132.419 231.985C108.805 231.985 92.6656 215.955 92.6656 192.906C92.6656 169.856 108.79 153.826 132.419 153.826C156.048 153.826 172.335 170.018 172.335 192.906C172.335 215.793 156.034 231.985 132.419 231.985ZM132.419 213.787C142.89 213.787 148.045 205.264 148.045 192.906C148.045 180.548 142.89 172.024 132.419 172.024C121.949 172.024 116.956 180.548 116.956 192.906C116.956 205.264 121.772 213.787 132.419 213.787Z" fill="#121212"/>
<path d="M227.861 155.832H251.974V229.98H227.861V218.462C223.866 226.809 215.554 231.985 204.408 231.985C184.45 231.985 178.135 218.285 178.135 202.432V155.832H202.087V196.578C202.087 207.092 205.583 212.947 214.394 212.947C223.205 212.947 227.861 205.426 227.861 193.569V155.832Z" fill="#121212"/>
<path d="M269.391 172.702H259.082V157.999L264.398 157.159C271.712 155.817 273.885 151.983 275.706 145.14L278.203 135.289H293.006V155.832H312.626V172.702H293.006V203.597C293.006 209.938 296.002 212.622 301.655 212.622C305.312 212.622 309.145 211.619 313.624 209.614V225.481C308.132 229.655 301.817 232 292.169 232C280.2 232 269.391 226.823 269.391 210.115V172.702Z" fill="#121212"/>
<path d="M394.673 205.603C390.855 222.473 377.712 231.985 358.415 231.985C334.962 231.985 318.338 217.622 318.338 194.071C318.338 170.52 335.3 153.826 357.916 153.826C382.367 153.826 395.173 170.697 395.173 190.9V198.244H341.952C342.613 208.095 349.941 213.773 359.252 213.773C367.564 213.773 372.719 210.602 375.377 203.759L394.673 205.603ZM372.058 185.385C371.558 178.041 366.903 171.36 357.754 171.36C348.106 171.36 343.612 177.539 342.29 185.385H372.058Z" fill="#121212"/>
<path d="M454.502 179.383C450.684 177.215 447.012 176.374 441.858 176.374C431.886 176.374 425.234 182.052 425.234 194.911V229.979H401.282V155.832H425.234V169.355C428.068 161.008 435.705 153.826 445.691 153.826C450.185 153.826 454.003 155.168 456 156.835L454.502 179.383Z" fill="#121212"/>
<path fill-rule="evenodd" clip-rule="evenodd" d="M88.2159 230.23C88.2159 223.992 88.2159 218.285 87.276 206.089C86.1012 193.849 79.7571 187.641 68.9045 185.458C81.769 183.777 91.2852 173.72 91.2852 158.294C91.2852 137.663 77.7598 124.745 50.5182 124.745H0V146.246H45.4957C57.5232 146.246 63.5443 151.422 63.5443 159.976C63.5443 169.709 57.5232 173.381 45.4957 173.381H0V195.354H44.1594C53.6756 195.354 58.8595 198.038 59.6966 210.115C60.3281 218.359 60.2547 222.444 60.1666 226.366C60.1372 227.62 60.1225 228.873 60.1225 230.23H88.2012H88.2159Z" fill="#121212"/>
<path fill-rule="evenodd" clip-rule="evenodd" d="M0 211.673V230.245H33.5508V217.572C33.5508 215.374 32.4787 211.673 27.515 211.673H0Z" fill="#121212"/>
</svg>
