<svg xmlns="http://www.w3.org/2000/svg" role="img">
  <title>GitHub</title>
  <symbol id="github" fill="none" viewBox="0 0 40 40">
    <path fill="currentColor" fill-opacity=".8"
      d="M20 0C9.015 0 0 9.015 0 20c0 9.374 6.578 17.89 15.313 20v-6.617c-.866.19-1.662.195-2.543-.064-1.182-.35-2.143-1.136-2.856-2.337-.454-.767-1.26-1.598-2.1-1.537l-.206-2.335c1.817-.155 3.389 1.107 4.322 2.675.414.697.891 1.105 1.503 1.286.592.174 1.228.09 1.968-.17.186-1.483.865-2.038 1.378-2.82-5.21-.777-7.286-3.541-8.11-5.722-1.092-2.897-.506-6.515 1.425-8.802.038-.045.105-.161.08-.243-.886-2.674.193-4.886.232-5.12 1.022.301 1.188-.305 4.438 1.67l.562.337c.235.14.161.06.396.043A16.974 16.974 0 0120 9.654c1.42.018 2.842.221 4.255.605l.182.018c-.016-.002.05-.011.159-.077 4.06-2.46 3.914-1.655 5.003-2.01.04.236 1.104 2.484.228 5.124-.118.364 3.52 3.696 1.504 9.044-.824 2.182-2.9 4.946-8.11 5.723.668 1.019 1.47 1.56 1.466 3.66V40C33.422 37.89 40 29.373 40 20 40 9.014 30.985 0 20 0z" />
  </symbol>
</svg>
