<svg xmlns="http://www.w3.org/2000/svg" aria-hidden="true">
  <symbol id="logo-circle" viewBox="0 0 38 38" fill="none">
    <path d="M19 38c10.493 0 19-8.507 19-19S29.493 0 19 0 0 8.507 0 19s8.507 19 19 19z" fill="#121212" />
    <path
      d="M13.582 20.41c-1.39 0-2.523-1.142-2.523-2.542s1.133-2.542 2.523-2.542c1.39 0 2.523 1.142 2.523 2.542 0 1.399-1.134 2.542-2.523 2.542zM7.524 25.457c-1.388-.003-2.518-1.15-2.514-2.55a2.537 2.537 0 012.532-2.534c1.389.003 2.519 1.15 2.514 2.551a2.538 2.538 0 01-2.532 2.533zM30.486 25.457a2.538 2.538 0 01-2.543-2.523c-.007-1.402 1.118-2.553 2.505-2.56a2.538 2.538 0 012.542 2.522c.008 1.401-1.118 2.553-2.504 2.561z"
      fill="#fff" />
    <path
      d="M25.757 15.474c-.686-.214-1.419-.303-2.138-.381-1.112-.12-1.555-.554-1.743-1.668-.106-.622-.254-1.26-.523-1.825-.513-1.075-1.715-1.557-2.922-1.282-1.02.233-1.867 1.248-1.914 2.29-.054 1.188.626 2.203 1.794 2.553.555.167 1.145.25 1.724.293 1.063.077 1.418.394 1.705.878.182.306.357.607.357 1.517 0 .911-.177 1.212-.357 1.517-.287.484-.642.8-1.705.879-.58.042-1.17.126-1.724.293-1.168.351-1.848 1.364-1.794 2.554.047 1.041.895 2.056 1.914 2.289 1.207.276 2.409-.207 2.922-1.282.27-.564.417-1.203.523-1.825.189-1.114.632-1.547 1.743-1.668.72-.078 1.452-.168 2.138-.382 1.041-.325 1.667-1.296 1.667-2.375 0-1.078-.626-2.048-1.667-2.375z"
      fill="#F44250" />
  </symbol>
</svg>
