<svg xmlns="http://www.w3.org/2000/svg" aria-hidden="true">
  <symbol id="logo" viewBox="0 0 1080 174" fill="none">
    <path d="M231.527 86.9999C231.527 94.9642 228.297 102.173 223.067 107.387C217.837 112.606 210.614 115.835 202.634 115.835C194.654 115.835 187.43 119.059 182.206 124.278C176.977 129.498 173.741 136.707 173.741 144.671C173.741 152.635 170.51 159.844 165.281 165.058C160.051 170.277 152.828 173.507 144.847 173.507C136.867 173.507 129.644 170.277 124.42 165.058C119.19 159.844 115.954 152.635 115.954 144.671C115.954 136.707 119.19 129.498 124.42 124.278C129.644 119.059 136.867 115.835 144.847 115.835C152.828 115.835 160.051 112.606 165.281 107.387C170.51 102.173 173.741 94.9642 173.741 86.9999C173.741 71.0711 160.808 58.1643 144.847 58.1643C136.867 58.1643 129.644 54.9347 124.42 49.7155C119.19 44.502 115.954 37.2931 115.954 29.3287C115.954 21.3643 119.19 14.1555 124.42 8.93622C129.644 3.71698 136.867 0.493164 144.847 0.493164C160.808 0.493164 173.741 13.4 173.741 29.3287C173.741 37.2931 176.977 44.502 182.206 49.7155C187.43 54.9347 194.654 58.1643 202.634 58.1643C218.594 58.1643 231.527 71.0711 231.527 86.9999Z" fill="#F44250"/>
    <path d="M115.954 86.9996C115.954 71.0742 103.018 58.1641 87.061 58.1641C71.1037 58.1641 58.1677 71.0742 58.1677 86.9996C58.1677 102.925 71.1037 115.835 87.061 115.835C103.018 115.835 115.954 102.925 115.954 86.9996Z" fill="currentColor"/>
    <path d="M58.1676 144.671C58.1676 128.745 45.2316 115.835 29.2743 115.835C13.317 115.835 0.381104 128.745 0.381104 144.671C0.381104 160.596 13.317 173.506 29.2743 173.506C45.2316 173.506 58.1676 160.596 58.1676 144.671Z" fill="currentColor"/>
    <path d="M289.314 144.671C289.314 128.745 276.378 115.835 260.42 115.835C244.463 115.835 231.527 128.745 231.527 144.671C231.527 160.596 244.463 173.506 260.42 173.506C276.378 173.506 289.314 160.596 289.314 144.671Z" fill="currentColor"/>
    <g clip-path="url(#clip0_202_2131)">
    <path d="M562.482 173.247C524.388 173.247 498.363 147.49 498.363 110.468C498.363 73.4455 524.388 47.6885 562.482 47.6885C600.576 47.6885 626.869 73.7135 626.869 110.468C626.869 147.222 600.576 173.247 562.482 173.247ZM562.482 144.007C579.385 144.007 587.703 130.319 587.703 110.468C587.703 90.6168 579.385 76.9289 562.482 76.9289C545.579 76.9289 537.529 90.6168 537.529 110.468C537.529 130.319 545.311 144.007 562.482 144.007Z" fill="currentColor"/>
    <path d="M833.64 141.116C824.217 141.116 819.237 136.684 819.237 126.156V74.8983H851.928V47.7792H819.237V1.15527H791.75L786.1 26.1978C783.343 36.4805 780.82 42.822 773.897 46.0821C773.105 46.4506 771.129 46.9976 769.409 47.3884C768.014 47.701 766.596 47.8573 765.167 47.8573H752.338V47.9243H734.832C723.578 47.9243 714.445 57.0459 714.445 68.3111V111.552C714.445 130.599 707.199 142.668 692.719 142.668C678.238 142.668 672.868 133.279 672.868 116.375V47.9243H634.249V125.765C634.249 151.254 644.442 173.248 676.63 173.248C691.915 173.248 703.895 167.231 711.096 157.182C712.145 155.72 714.445 156.49 714.445 158.276V170.022H753.332V83.8412C753.332 78.8953 757.34 74.8871 762.286 74.8871H779.882V136.952C779.882 164.663 797.89 173.248 817.842 173.248C833.908 173.248 844.436 169.374 853.58 162.441V136.126C846.1 139.453 839.725 141.116 833.629 141.116H833.64Z" fill="currentColor"/>
    <path d="M981.561 130.865C975.387 157.962 954.197 173.258 923.07 173.258C885.243 173.258 858.415 150.18 858.415 112.354C858.415 74.5281 885.779 47.6992 922.266 47.6992C961.699 47.6992 982.365 74.796 982.365 107.263V113.884H896.509C894.555 135.711 909.382 144.017 924.409 144.017C937.829 144.017 946.136 138.915 950.434 127.918L981.561 130.865ZM945.075 94.9372C944.271 83.1361 936.757 75.8567 921.998 75.8567C906.434 75.8567 899.188 82.321 897.045 94.9372H945.064H945.075Z" fill="currentColor"/>
    <path d="M1076.24 85.7486C1070.06 82.2652 1064.17 80.9142 1055.85 80.9142C1039.75 80.9142 1029.02 90.0358 1029.02 110.691V170.02H990.393V47.9225H1029.02V64.3235C1029.02 65.4623 1030.54 65.8195 1031.05 64.8035C1036.68 53.5718 1047.91 44.707 1062.03 44.707C1069.27 44.707 1075.45 46.8507 1078.66 49.5414L1076.25 85.7597L1076.24 85.7486Z" fill="currentColor"/>
    <path d="M547.32 31.5345V23.9983H522.457V31.5345H515.378V2.23828H542.14C553.562 2.23828 554.365 2.95282 554.365 13.1239C554.365 17.4111 553.472 18.5611 551.329 19.6553L549.408 20.6378L551.317 21.6426C553.595 22.8372 554.365 23.2391 554.365 30.0273V31.5345H547.332H547.32ZM522.457 18.3601H547.32V7.88763H522.457V18.349V18.3601Z" fill="currentColor"/>
    <path d="M578.493 2.23828H610.826V7.90996H580.067V14.5083H610.011V19.2868H580.067V25.8963H610.837V31.501L578.504 31.5345C575.344 31.5345 572.787 28.9778 572.787 25.8293V7.95462C572.787 4.80617 575.344 2.24945 578.493 2.24945V2.23828Z" fill="currentColor"/>
    <path d="M655.562 31.5345L653.151 26.3429H633.746L631.335 31.5345H624.58L637.006 4.75034C637.71 3.22078 639.262 2.23828 640.936 2.23828H645.927C647.613 2.23828 649.154 3.22078 649.857 4.75034L662.283 31.5345H655.529H655.562ZM643.46 8.06627C642.712 8.06627 642.053 8.49053 641.729 9.17158L635.968 21.5756H650.94L645.19 9.17158C644.878 8.49053 644.208 8.06627 643.46 8.06627Z" fill="currentColor"/>
    <path d="M694.862 32.4153C676.05 32.4153 675.313 32.4153 675.313 16.8852C675.313 1.35505 676.05 1.36621 694.862 1.36621C711.721 1.36621 713.764 2.06959 714.244 10.5325H707.333V7.01556H682.168V26.766H707.333V23.2714H714.244C713.775 31.7119 711.721 32.4153 694.862 32.4153Z" fill="currentColor"/>
    <path d="M745.282 31.5345V7.02795H729.16V2.23828H768.147V7.02795H752.025V31.5345H745.282Z" fill="currentColor"/>
    <path d="M454.419 169.819C450.935 165.264 448.792 154.814 447.452 137.397C446.112 118.104 437.806 113.817 422.532 113.817H392.254V169.83H347.494V0.986328H432.715C476.391 0.986328 498.106 21.6187 498.106 54.5882C498.106 79.2399 482.833 95.3171 462.201 98.0078C479.618 101.491 489.8 111.405 491.675 130.966C494.087 156.154 494.891 163.656 500.518 169.819H454.419ZM424.676 78.704C443.969 78.704 453.615 73.8808 453.615 58.3395C453.615 44.6739 443.969 37.4392 424.676 37.4392H392.254V78.7152H424.676V78.704Z" fill="currentColor"/>
    </g>
    <defs>
    <clipPath id="clip0_202_2131">
    <rect width="731.156" height="172.261" fill="white" transform="translate(347.494 0.986328)"/>
    </clipPath>
    </defs>
  </symbol>

  <symbol id="edit" fill="none" viewBox="0 0 24 24" stroke="currentColor" stroke-width="2">
    <path stroke-linecap="round" stroke-linejoin="round" d="M11 5H6a2 2 0 00-2 2v11a2 2 0 002 2h11a2 2 0 002-2v-5m-1.414-9.414a2 2 0 112.828 2.828L11.828 15H9v-2.828l8.586-8.586z" />
  </symbol>

  <symbol id="chevron-r" fill="none" viewBox="0 0 24 24" stroke="currentColor" stroke-width="2">
    <path stroke-linecap="round" stroke-linejoin="round" d="M9 5l7 7-7 7" />
  </symbol>

  <symbol id="chevron-d" fill="none" viewBox="0 0 24 24" stroke="currentColor" stroke-width="2">
    <path stroke-linecap="round" stroke-linejoin="round" d="M19 9l-7 7-7-7" />
  </symbol>

  <symbol id="github" width="24" height="24" viewBox="0 0 24 24" fill="none" xmlns="http://www.w3.org/2000/svg">
    <path d="M12 0C5.374 0 0 5.373 0 12C0 17.302 3.438 21.8 8.207 23.387C8.806 23.498 9 23.126 9 22.81V20.576C5.662 21.302 4.967 19.16 4.967 19.16C4.421 17.773 3.634 17.404 3.634 17.404C2.545 16.659 3.717 16.675 3.717 16.675C4.922 16.759 5.556 17.912 5.556 17.912C6.626 19.746 8.363 19.216 9.048 18.909C9.155 18.134 9.466 17.604 9.81 17.305C7.145 17 4.343 15.971 4.343 11.374C4.343 10.063 4.812 8.993 5.579 8.153C5.455 7.85 5.044 6.629 5.696 4.977C5.696 4.977 6.704 4.655 8.997 6.207C9.954 5.941 10.98 5.808 12 5.803C13.02 5.808 14.047 5.941 15.006 6.207C17.297 4.655 18.303 4.977 18.303 4.977C18.956 6.63 18.545 7.851 18.421 8.153C19.191 8.993 19.656 10.064 19.656 11.374C19.656 15.983 16.849 16.998 14.177 17.295C14.607 17.667 15 18.397 15 19.517V22.81C15 23.129 15.192 23.504 15.801 23.386C20.566 21.797 24 17.3 24 12C24 5.373 18.627 0 12 0Z" fill="currentColor"/>
  </symbol>

  <symbol id="discord" viewBox="0 0 24 20" fill="none" xmlns="http://www.w3.org/2000/svg">
    <path fill-rule="evenodd" clip-rule="evenodd" d="M15.376 0.852539C17.0905 1.13465 18.7399 1.65548 20.3243 2.37173C23.0371 6.36501 24.3826 10.8792 23.9052 16.0879C22.0822 17.4551 20.0204 18.4752 17.8284 19.1479C17.3293 18.4752 16.8952 17.7807 16.5262 17.0428C17.2424 16.7823 17.937 16.4568 18.588 16.0662C18.5012 16.0011 18.4198 15.9359 18.3384 15.8708C18.2571 15.8058 18.1757 15.7407 18.0888 15.6755C14.2475 17.4986 9.77668 17.4986 5.93526 15.6755C5.84849 15.7407 5.76711 15.8058 5.68574 15.8708C5.60427 15.9359 5.5229 16.0011 5.43612 16.0662C6.08721 16.4568 6.75998 16.7823 7.47615 17.0428C7.10726 17.7807 6.67321 18.4752 6.17398 19.1479C3.98201 18.4969 1.94196 17.4551 0.0972232 16.0879C-0.315129 11.5954 0.531278 7.05948 3.65651 2.39343C5.2191 1.65548 6.89024 1.13465 8.60467 0.852539C8.84349 1.2649 9.06051 1.69896 9.25575 2.15471C11.0788 1.8725 12.9235 1.8725 14.7466 2.15471C14.9203 1.74234 15.159 1.24321 15.376 0.852539ZM5.84848 10.9009C5.84848 12.2248 6.80337 13.3099 7.99707 13.3099C9.21237 13.3099 10.1457 12.2248 10.1673 10.9009C10.1673 9.55534 9.21237 8.4702 7.99707 8.4702C6.80337 8.4702 5.84848 9.57703 5.84848 10.9009ZM13.8351 10.9009C13.8351 12.2248 14.79 13.3099 15.9837 13.3099C17.1773 13.3099 18.1105 12.2464 18.1322 10.9009C18.154 9.55534 17.199 8.4702 15.9837 8.4702C14.79 8.4702 13.8351 9.57703 13.8351 10.9009Z" fill="currentColor"/>
  </symbol>

  <symbol id="remix" viewBox="0 0 122 17" fill="none" xmlns="http://www.w3.org/2000/svg">
    <path d="M7.45607 13.9999L9.26407 6.91192H9.32807V13.9999H12.0481V3.91992H7.93607L6.51207 10.2559H6.46407L4.97607 3.91992H0.768066V13.9999H3.26407V6.91192H3.32807L5.13607 13.9999H7.45607Z" fill="currentColor"/>
    <path d="M17.6446 11.0239C17.6446 11.9519 17.0526 12.4959 16.3166 12.4959C15.8846 12.4959 15.5966 12.2559 15.5966 11.8879C15.5966 11.4239 15.9646 11.2319 16.5886 11.1039L17.6446 10.9119V11.0239ZM20.1886 9.47192C20.1886 7.48792 18.7966 6.67192 16.9086 6.67192C14.7646 6.67192 13.5966 7.75992 13.3726 9.32792L15.7726 9.48792C15.8846 8.95992 16.1726 8.59192 16.7486 8.59192C17.3726 8.59192 17.6446 8.94392 17.6446 9.53592V9.64792L15.6446 9.98392C14.0926 10.2559 13.1006 10.8479 13.1006 12.2239C13.1006 13.4399 14.0126 14.1599 15.4046 14.1599C16.5406 14.1599 17.3566 13.7279 17.7726 12.8959C18.0126 13.7119 18.7006 14.1599 19.5806 14.1599C20.3166 14.1599 20.8286 13.9519 21.1966 13.6959V12.3199C20.9886 12.3999 20.8286 12.4319 20.6206 12.4319C20.3486 12.4319 20.1886 12.2719 20.1886 11.9039V9.47192Z" fill="currentColor"/>
    <path d="M26.9959 10.4799C26.9959 11.5199 26.4359 12.1919 25.5719 12.1919C24.5479 12.1919 24.0999 11.4719 24.0999 10.4319C24.0999 9.40792 24.5479 8.68792 25.5719 8.68792C26.4359 8.68792 26.9959 9.35992 26.9959 10.3839V10.4799ZM26.9959 13.9999H29.5879V3.91992H26.9959V8.09592C26.6599 7.24792 25.8439 6.67192 24.6599 6.67192C22.5479 6.67192 21.4919 8.33592 21.4919 10.4319C21.4919 12.5439 22.5479 14.1919 24.6599 14.1919C25.8439 14.1919 26.6599 13.6159 26.9959 12.7839V13.9999Z" fill="currentColor"/>
    <path d="M36.0249 11.4559C35.7849 12.0159 35.3369 12.2559 34.6329 12.2559C33.8489 12.2559 33.2089 11.8399 33.1449 10.9599H38.1529V10.2399C38.1529 8.30392 36.8889 6.67192 34.5049 6.67192C32.2809 6.67192 30.6169 8.28792 30.6169 10.5439C30.6169 12.8159 32.2489 14.1919 34.5369 14.1919C36.4249 14.1919 37.7369 13.2799 38.1049 11.6479L36.0249 11.4559ZM33.1769 9.71192C33.2729 9.03992 33.6409 8.52792 34.4729 8.52792C35.2409 8.52792 35.6569 9.07192 35.6889 9.71192H33.1769Z" fill="currentColor"/>
    <path d="M44.6711 10.3839C44.6711 9.35992 45.2311 8.68792 46.1111 8.68792C47.1191 8.68792 47.5831 9.40792 47.5831 10.4319C47.5831 11.4719 47.1191 12.1919 46.1111 12.1919C45.2311 12.1919 44.6711 11.5199 44.6711 10.4799V10.3839ZM44.5271 12.7679C44.9271 13.6319 45.8231 14.1919 46.9751 14.1919C49.1191 14.1919 50.1911 12.5439 50.1911 10.4319C50.1911 8.33592 49.1191 6.67192 47.0231 6.67192C45.8231 6.67192 45.0231 7.24792 44.6711 8.09592V3.91992H42.0791V13.9999H44.0791L44.5271 12.7679Z" fill="currentColor"/>
    <path d="M54.7594 16.5599L58.8554 6.86392H56.3114L54.6954 11.0399H54.6314L53.0474 6.86392H50.3274L53.2394 14.0959L52.2154 16.5599H54.7594Z" fill="currentColor"/>
    <path fill-rule="evenodd" clip-rule="evenodd" d="M71.4212 14.0474C71.4212 13.4544 71.4212 12.8937 71.3309 11.7349C71.2193 10.5707 70.6133 9.98058 69.5766 9.77325C70.8047 9.61377 71.7137 8.65688 71.7137 7.18964C71.7137 5.22801 70.4219 4 67.8223 4H63V6.04436H67.3439C68.4922 6.04436 69.0663 6.53726 69.0663 7.35062C69.0663 8.27561 68.4922 8.62498 67.3439 8.62498H63V10.7141H66.4113V10.7142H67.2163C68.1254 10.7142 68.6197 10.9694 68.6995 12.1176C68.7599 12.903 68.7522 13.3013 68.745 13.6791V13.6791C68.7426 13.8 68.7404 13.9187 68.7404 14.0474H71.4212ZM63 12.5971V12.4724H66.4109V12.4725H65.848C66.0748 12.4725 66.4002 12.6486 66.4109 13.0009V14.0474H63V12.5971Z" fill="currentColor"/>
    <path d="M103.777 6.93408H101.113L99.9012 8.62459L98.7211 6.93408H95.8663L98.434 10.4267L95.6431 14.047H98.3064L99.7258 12.1172L101.145 14.047H104L101.193 10.3151L103.777 6.93408Z" fill="currentColor"/>
    <path d="M77.2928 11.5117C77.0536 12.0699 76.6071 12.3091 75.9053 12.3091C75.1239 12.3091 74.486 11.8944 74.4222 11.0173H79.4139V10.2996C79.4139 8.36988 78.154 6.74316 75.7778 6.74316C73.561 6.74316 71.9023 8.35393 71.9023 10.6026C71.9023 12.8673 73.5291 14.2388 75.8097 14.2388C77.6915 14.2388 78.9993 13.3298 79.3661 11.7031L77.2928 11.5117ZM74.4541 9.77332C74.5497 9.1035 74.9166 8.59316 75.7459 8.59316C76.5114 8.59316 76.926 9.13539 76.9579 9.77332H74.4541Z" fill="currentColor"/>
    <path d="M87.0001 8.14661C86.6971 7.3173 86.0432 6.74316 84.7833 6.74316C83.7148 6.74316 82.9493 7.22161 82.5665 8.00307V6.93454H79.9829V14.0474H82.5665V10.5548C82.5665 9.48626 82.8695 8.78453 83.7148 8.78453C84.4963 8.78453 84.6876 9.29488 84.6876 10.2677V14.0474H87.2712V10.5548C87.2712 9.48626 87.5583 8.78453 88.4195 8.78453C89.201 8.78453 89.3764 9.29488 89.3764 10.2677V14.0474H91.96V9.58194C91.96 8.09876 91.3859 6.74316 89.4242 6.74316C88.2281 6.74316 87.3829 7.3492 87.0001 8.14661Z" fill="currentColor"/>
    <path d="M92.8045 6.93447V14.0474H95.3881V6.93447H92.8045ZM92.7886 6.26465H95.4041V4H92.7886V6.26465Z" fill="currentColor"/>
    <path d="M117.325 14.3732L115.469 14.3813L115.469 9.48777L109.736 15.221L108.378 13.863L114.111 8.12981L109.222 8.13383L109.226 6.27365L117.325 6.27365L117.325 14.3732Z" fill="currentColor"/>
  </symbol>

  <symbol id="sun" viewBox="0 0 24 24" fill="currentColor" xmlns="http://www.w3.org/2000/svg">
    <path d="M12 15.5C12.9667 15.5 13.7917 15.1583 14.475 14.475C15.1583 13.7917 15.5 12.9667 15.5 12C15.5 11.0333 15.1583 10.2083 14.475 9.525C13.7917 8.84167 12.9667 8.5 12 8.5C11.0333 8.5 10.2083 8.84167 9.525 9.525C8.84167 10.2083 8.5 11.0333 8.5 12C8.5 12.9667 8.84167 13.7917 9.525 14.475C10.2083 15.1583 11.0333 15.5 12 15.5ZM12 17C10.6167 17 9.4375 16.5125 8.4625 15.5375C7.4875 14.5625 7 13.3833 7 12C7 10.6167 7.4875 9.4375 8.4625 8.4625C9.4375 7.4875 10.6167 7 12 7C13.3833 7 14.5625 7.4875 15.5375 8.4625C16.5125 9.4375 17 10.6167 17 12C17 13.3833 16.5125 14.5625 15.5375 15.5375C14.5625 16.5125 13.3833 17 12 17ZM1.75 12.75C1.53333 12.75 1.35417 12.6792 1.2125 12.5375C1.07083 12.3958 1 12.2167 1 12C1 11.7833 1.07083 11.6042 1.2125 11.4625C1.35417 11.3208 1.53333 11.25 1.75 11.25H4.25C4.46667 11.25 4.64583 11.3208 4.7875 11.4625C4.92917 11.6042 5 11.7833 5 12C5 12.2167 4.92917 12.3958 4.7875 12.5375C4.64583 12.6792 4.46667 12.75 4.25 12.75H1.75ZM19.75 12.75C19.5333 12.75 19.3542 12.6792 19.2125 12.5375C19.0708 12.3958 19 12.2167 19 12C19 11.7833 19.0708 11.6042 19.2125 11.4625C19.3542 11.3208 19.5333 11.25 19.75 11.25H22.25C22.4667 11.25 22.6458 11.3208 22.7875 11.4625C22.9292 11.6042 23 11.7833 23 12C23 12.2167 22.9292 12.3958 22.7875 12.5375C22.6458 12.6792 22.4667 12.75 22.25 12.75H19.75ZM12 5C11.7833 5 11.6042 4.92917 11.4625 4.7875C11.3208 4.64583 11.25 4.46667 11.25 4.25V1.75C11.25 1.53333 11.3208 1.35417 11.4625 1.2125C11.6042 1.07083 11.7833 1 12 1C12.2167 1 12.3958 1.07083 12.5375 1.2125C12.6792 1.35417 12.75 1.53333 12.75 1.75V4.25C12.75 4.46667 12.6792 4.64583 12.5375 4.7875C12.3958 4.92917 12.2167 5 12 5ZM12 23C11.7833 23 11.6042 22.9292 11.4625 22.7875C11.3208 22.6458 11.25 22.4667 11.25 22.25V19.75C11.25 19.5333 11.3208 19.3542 11.4625 19.2125C11.6042 19.0708 11.7833 19 12 19C12.2167 19 12.3958 19.0708 12.5375 19.2125C12.6792 19.3542 12.75 19.5333 12.75 19.75V22.25C12.75 22.4667 12.6792 22.6458 12.5375 22.7875C12.3958 22.9292 12.2167 23 12 23ZM6 7.05L4.575 5.65C4.425 5.5 4.35417 5.32083 4.3625 5.1125C4.37083 4.90417 4.44167 4.725 4.575 4.575C4.725 4.425 4.90417 4.35 5.1125 4.35C5.32083 4.35 5.5 4.425 5.65 4.575L7.05 6C7.18333 6.15 7.25 6.325 7.25 6.525C7.25 6.725 7.18333 6.89167 7.05 7.025C6.91667 7.175 6.74583 7.25 6.5375 7.25C6.32917 7.25 6.15 7.18333 6 7.05ZM18.35 19.425L16.95 18C16.8167 17.85 16.75 17.6708 16.75 17.4625C16.75 17.2542 16.825 17.0833 16.975 16.95C17.1083 16.8 17.275 16.725 17.475 16.725C17.675 16.725 17.85 16.8 18 16.95L19.425 18.35C19.575 18.5 19.6458 18.6792 19.6375 18.8875C19.6292 19.0958 19.5583 19.275 19.425 19.425C19.275 19.575 19.0958 19.65 18.8875 19.65C18.6792 19.65 18.5 19.575 18.35 19.425ZM16.95 7.05C16.8 6.9 16.725 6.725 16.725 6.525C16.725 6.325 16.8 6.15 16.95 6L18.35 4.575C18.5 4.425 18.6792 4.35417 18.8875 4.3625C19.0958 4.37083 19.275 4.44167 19.425 4.575C19.575 4.725 19.65 4.90417 19.65 5.1125C19.65 5.32083 19.575 5.5 19.425 5.65L18 7.05C17.8667 7.18333 17.6958 7.25 17.4875 7.25C17.2792 7.25 17.1 7.18333 16.95 7.05ZM4.575 19.425C4.425 19.275 4.35 19.0958 4.35 18.8875C4.35 18.6792 4.425 18.5 4.575 18.35L6 16.95C6.15 16.8 6.325 16.725 6.525 16.725C6.725 16.725 6.9 16.8 7.05 16.95C7.2 17.1 7.275 17.275 7.275 17.475C7.275 17.675 7.2 17.85 7.05 18L5.65 19.425C5.5 19.575 5.32083 19.6458 5.1125 19.6375C4.90417 19.6292 4.725 19.5583 4.575 19.425Z"/>
  </symbol>

  <symbol id="moon" viewBox="0 0 24 24" fill="currentColor" xmlns="http://www.w3.org/2000/svg">
    <path d="M12 21.0001C9.5 21.0001 7.375 20.1251 5.625 18.3751C3.875 16.6251 3 14.5001 3 12.0001C3 9.75011 3.6625 7.84178 4.9875 6.27511C6.3125 4.70844 8.05 3.70011 10.2 3.25011C10.8833 3.11678 11.35 3.23344 11.6 3.60011C11.85 3.96678 11.8417 4.46678 11.575 5.10011C11.425 5.48344 11.3083 5.87511 11.225 6.27511C11.1417 6.67511 11.1 7.08344 11.1 7.50011C11.1 9.00011 11.625 10.2751 12.675 11.3251C13.725 12.3751 15 12.9001 16.5 12.9001C16.9167 12.9001 17.3208 12.8626 17.7125 12.7876C18.1042 12.7126 18.4833 12.6084 18.85 12.4751C19.5667 12.2084 20.1 12.2209 20.45 12.5126C20.8 12.8043 20.8917 13.3001 20.725 14.0001C20.275 16.0168 19.2667 17.6876 17.7 19.0126C16.1333 20.3376 14.2333 21.0001 12 21.0001ZM12 19.5001C13.8167 19.5001 15.4 18.9376 16.75 17.8126C18.1 16.6876 18.9417 15.3668 19.275 13.8501C18.8583 14.0334 18.4125 14.1709 17.9375 14.2626C17.4625 14.3543 16.9833 14.4001 16.5 14.4001C14.5833 14.4001 12.9542 13.7293 11.6125 12.3876C10.2708 11.0459 9.6 9.41678 9.6 7.50011C9.6 7.10011 9.64167 6.67094 9.725 6.21261C9.80833 5.75428 9.95833 5.23344 10.175 4.65011C8.54167 5.10011 7.1875 6.01261 6.1125 7.38761C5.0375 8.76261 4.5 10.3001 4.5 12.0001C4.5 14.0834 5.22917 15.8543 6.6875 17.3126C8.14583 18.7709 9.91667 19.5001 12 19.5001Z" />
  </symbol>

  <symbol id="dropdown-arrows" viewBox="0 0 19 18" fill="none" xmlns="http://www.w3.org/2000/svg">
    <path d="M9.1542 15.325C9.0917 15.325 9.02607 15.3125 8.95732 15.2875C8.88857 15.2625 8.82295 15.2188 8.76045 15.1562L5.0667 11.4625C4.9542 11.35 4.89795 11.2125 4.89795 11.05C4.89795 10.8875 4.9542 10.75 5.0667 10.6375C5.1792 10.525 5.31045 10.4688 5.46045 10.4688C5.61045 10.4688 5.7417 10.525 5.8542 10.6375L9.1542 13.9375L12.4542 10.6375C12.5667 10.525 12.7011 10.4688 12.8573 10.4688C13.0136 10.4688 13.1479 10.525 13.2604 10.6375C13.3729 10.75 13.4292 10.8844 13.4292 11.0406C13.4292 11.1969 13.3729 11.3313 13.2604 11.4438L9.54795 15.1562C9.48545 15.2188 9.42295 15.2625 9.36045 15.2875C9.29795 15.3125 9.2292 15.325 9.1542 15.325Z" fill="currentColor"/>
    <path d="M9.15439 2.675C9.2169 2.675 9.28252 2.6875 9.35127 2.7125C9.42002 2.7375 9.48564 2.78125 9.54814 2.84375L13.2419 6.5375C13.3544 6.65 13.4106 6.7875 13.4106 6.95C13.4106 7.1125 13.3544 7.25 13.2419 7.3625C13.1294 7.475 12.9981 7.53125 12.8481 7.53125C12.6981 7.53125 12.5669 7.475 12.4544 7.3625L9.15439 4.0625L5.85439 7.3625C5.74189 7.475 5.60752 7.53125 5.45127 7.53125C5.29502 7.53125 5.16064 7.475 5.04814 7.3625C4.93564 7.25 4.87939 7.11562 4.87939 6.95937C4.87939 6.80312 4.93564 6.66875 5.04814 6.55625L8.76065 2.84375C8.82315 2.78125 8.88564 2.7375 8.94815 2.7125C9.01065 2.6875 9.07939 2.675 9.15439 2.675Z" fill="currentColor"/>
  </symbol>

  <symbol id="setting" viewBox="0 0 24 24" fill="currentColor" xmlns="http://www.w3.org/2000/svg">
    <path d="M13.6501 22H10.3501C10.1668 22 10.0043 21.9417 9.8626 21.825C9.72093 21.7083 9.63343 21.5583 9.6001 21.375L9.2001 18.85C8.88343 18.7333 8.5501 18.575 8.2001 18.375C7.8501 18.175 7.54176 17.9667 7.2751 17.75L4.9501 18.825C4.76676 18.9083 4.58343 18.9208 4.4001 18.8625C4.21676 18.8042 4.0751 18.6833 3.9751 18.5L2.3251 15.575C2.2251 15.4083 2.2001 15.2333 2.2501 15.05C2.3001 14.8667 2.4001 14.7167 2.5501 14.6L4.7001 13.025C4.66676 12.875 4.64593 12.7042 4.6376 12.5125C4.62926 12.3208 4.6251 12.15 4.6251 12C4.6251 11.85 4.62926 11.6792 4.6376 11.4875C4.64593 11.2958 4.66676 11.125 4.7001 10.975L2.5501 9.4C2.4001 9.28333 2.3001 9.13333 2.2501 8.95C2.2001 8.76667 2.2251 8.59167 2.3251 8.425L3.9751 5.5C4.0751 5.31667 4.21676 5.19583 4.4001 5.1375C4.58343 5.07917 4.76676 5.09167 4.9501 5.175L7.2751 6.25C7.54176 6.03333 7.8501 5.825 8.2001 5.625C8.5501 5.425 8.88343 5.275 9.2001 5.175L9.6001 2.625C9.63343 2.44167 9.72093 2.29167 9.8626 2.175C10.0043 2.05833 10.1668 2 10.3501 2H13.6501C13.8334 2 13.9959 2.05833 14.1376 2.175C14.2793 2.29167 14.3668 2.44167 14.4001 2.625L14.8001 5.15C15.1168 5.26667 15.4543 5.42083 15.8126 5.6125C16.1709 5.80417 16.4751 6.01667 16.7251 6.25L19.0501 5.175C19.2334 5.09167 19.4168 5.07917 19.6001 5.1375C19.7834 5.19583 19.9251 5.31667 20.0251 5.5L21.6751 8.4C21.7751 8.56667 21.8043 8.74583 21.7626 8.9375C21.7209 9.12917 21.6168 9.28333 21.4501 9.4L19.3001 10.925C19.3334 11.0917 19.3543 11.2708 19.3626 11.4625C19.3709 11.6542 19.3751 11.8333 19.3751 12C19.3751 12.1667 19.3709 12.3417 19.3626 12.525C19.3543 12.7083 19.3334 12.8833 19.3001 13.05L21.4501 14.6C21.6001 14.7167 21.7001 14.8667 21.7501 15.05C21.8001 15.2333 21.7751 15.4083 21.6751 15.575L20.0251 18.5C19.9251 18.6833 19.7834 18.8042 19.6001 18.8625C19.4168 18.9208 19.2334 18.9083 19.0501 18.825L16.7251 17.75C16.4584 17.9667 16.1543 18.1792 15.8126 18.3875C15.4709 18.5958 15.1334 18.75 14.8001 18.85L14.4001 21.375C14.3668 21.5583 14.2793 21.7083 14.1376 21.825C13.9959 21.9417 13.8334 22 13.6501 22ZM12.0001 15.25C12.9001 15.25 13.6668 14.9333 14.3001 14.3C14.9334 13.6667 15.2501 12.9 15.2501 12C15.2501 11.1 14.9334 10.3333 14.3001 9.7C13.6668 9.06667 12.9001 8.75 12.0001 8.75C11.1001 8.75 10.3334 9.06667 9.7001 9.7C9.06676 10.3333 8.7501 11.1 8.7501 12C8.7501 12.9 9.06676 13.6667 9.7001 14.3C10.3334 14.9333 11.1001 15.25 12.0001 15.25ZM12.0001 13.75C11.5168 13.75 11.1043 13.5792 10.7626 13.2375C10.4209 12.8958 10.2501 12.4833 10.2501 12C10.2501 11.5167 10.4209 11.1042 10.7626 10.7625C11.1043 10.4208 11.5168 10.25 12.0001 10.25C12.4834 10.25 12.8959 10.4208 13.2376 10.7625C13.5793 11.1042 13.7501 11.5167 13.7501 12C13.7501 12.4833 13.5793 12.8958 13.2376 13.2375C12.8959 13.5792 12.4834 13.75 12.0001 13.75ZM10.9001 20.5H13.1001L13.4501 17.7C14.0001 17.5667 14.5209 17.3583 15.0126 17.075C15.5043 16.7917 15.9501 16.45 16.3501 16.05L19.0001 17.2L20.0001 15.4L17.6501 13.675C17.7168 13.3917 17.7709 13.1125 17.8126 12.8375C17.8543 12.5625 17.8751 12.2833 17.8751 12C17.8751 11.7167 17.8584 11.4375 17.8251 11.1625C17.7918 10.8875 17.7334 10.6083 17.6501 10.325L20.0001 8.6L19.0001 6.8L16.3501 7.95C15.9668 7.51667 15.5334 7.15417 15.0501 6.8625C14.5668 6.57083 14.0334 6.38333 13.4501 6.3L13.1001 3.5H10.9001L10.5501 6.3C9.98343 6.41667 9.45426 6.61667 8.9626 6.9C8.47093 7.18333 8.03343 7.53333 7.6501 7.95L5.0001 6.8L4.0001 8.6L6.3501 10.325C6.28343 10.6083 6.22926 10.8875 6.1876 11.1625C6.14593 11.4375 6.1251 11.7167 6.1251 12C6.1251 12.2833 6.14593 12.5625 6.1876 12.8375C6.22926 13.1125 6.28343 13.3917 6.3501 13.675L4.0001 15.4L5.0001 17.2L7.6501 16.05C8.0501 16.45 8.49593 16.7917 8.9876 17.075C9.47926 17.3583 10.0001 17.5667 10.5501 17.7L10.9001 20.5Z" />
  </symbol>

  <symbol id="stat-star" viewBox="0 0 32 32" fill="none" xmlns="http://www.w3.org/2000/svg">
    <path d="M8.99995 28.3999C8.79995 28.5555 8.60551 28.561 8.41662 28.4166C8.22773 28.2721 8.16662 28.0777 8.23328 27.8332L10.8666 19.1999L3.93329 14.2332C3.73329 14.0999 3.67217 13.9166 3.74995 13.6832C3.82773 13.4499 3.98884 13.3332 4.23329 13.3332H12.8L15.5333 4.26657C15.5777 4.15546 15.6388 4.06657 15.7166 3.9999C15.7944 3.93324 15.8888 3.8999 16 3.8999C16.1111 3.8999 16.2055 3.93324 16.2833 3.9999C16.3611 4.06657 16.4222 4.15546 16.4666 4.26657L19.2 13.3332H27.7666C28.0111 13.3332 28.1722 13.4499 28.25 13.6832C28.3277 13.9166 28.2666 14.0999 28.0666 14.2332L21.1333 19.1999L23.7666 27.8332C23.8333 28.0777 23.7722 28.2721 23.5833 28.4166C23.3944 28.561 23.2 28.5555 23 28.3999L16 23.0666L8.99995 28.3999ZM11.4333 23.8999L16 20.4332L20.5666 23.8999L18.7333 18.1332L22.9333 15.3999H17.9L16 9.63324L14.1 15.3999H9.06662L13.2666 18.1332L11.4333 23.8999Z" fill="currentColor"/>
  </symbol>

  <symbol id="stat-box" viewBox="0 0 32 32" fill="none" xmlns="http://www.w3.org/2000/svg">
    <path d="M5.62822 9.29806C5.24078 9.51684 5 9.93239 5 10.3822V21.3211C5 21.7733 5.24078 22.1864 5.62822 22.4052C7.58011 23.5064 13.5189 26.8528 15.4121 27.9198C15.5979 28.0237 15.802 28.0763 16.0073 28.0763C16.2078 28.0763 16.4082 28.0262 16.5903 27.9259C18.4836 26.8809 24.4003 23.6201 26.3608 22.5384C26.7556 22.3221 27 21.9041 27 21.4494V10.3822C27 9.93239 26.7592 9.51684 26.3706 9.29806C24.4211 8.19928 18.4946 4.85895 16.594 3.78828C16.4094 3.68439 16.2041 3.63184 16 3.63184C15.7947 3.63184 15.5906 3.68439 15.406 3.78828C13.5054 4.85895 7.57767 8.19928 5.62822 9.29806V9.29806ZM25.1667 11.8831V21.0803L16.9167 25.6294V16.3674L25.1667 11.8831ZM6.83333 20.9581V11.8427L15.0833 16.4261V25.6062L6.83333 20.9581ZM7.73289 10.2404L16 5.58006L24.3123 10.2661L16 14.8078L7.73289 10.2404Z" fill="currentColor"/>
  </symbol>

  <symbol id="stat-users" viewBox="0 0 32 32" fill="none" xmlns="http://www.w3.org/2000/svg">
    <path d="M2.2666 26.6668C1.97771 26.6668 1.73882 26.5723 1.54993 26.3835C1.36105 26.1946 1.2666 25.9557 1.2666 25.6668V23.5335C1.2666 22.7557 1.4666 22.0501 1.8666 21.4168C2.2666 20.7835 2.82216 20.3112 3.53327 20.0001C5.15549 19.289 6.6166 18.7779 7.9166 18.4668C9.2166 18.1557 10.5555 18.0001 11.9333 18.0001C13.311 18.0001 14.6444 18.1557 15.9333 18.4668C17.2222 18.7779 18.6777 19.289 20.2999 20.0001C21.011 20.3112 21.5722 20.7835 21.9833 21.4168C22.3944 22.0501 22.5999 22.7557 22.5999 23.5335V25.6668C22.5999 25.9557 22.5055 26.1946 22.3166 26.3835C22.1277 26.5723 21.8888 26.6668 21.5999 26.6668H2.2666ZM23.8666 26.6668C24.0888 26.6223 24.2666 26.5057 24.3999 26.3168C24.5333 26.1279 24.5999 25.889 24.5999 25.6001V23.5335C24.5999 22.1335 24.2444 20.9835 23.5333 20.0835C22.8222 19.1835 21.8888 18.4557 20.7333 17.9001C22.2666 18.0779 23.711 18.339 25.0666 18.6835C26.4222 19.0279 27.5222 19.4223 28.3666 19.8668C29.0999 20.289 29.6777 20.8112 30.0999 21.4335C30.5222 22.0557 30.7333 22.7557 30.7333 23.5335V25.6668C30.7333 25.9557 30.6388 26.1946 30.4499 26.3835C30.261 26.5723 30.0222 26.6668 29.7333 26.6668H23.8666ZM11.9333 15.9668C10.4666 15.9668 9.2666 15.5001 8.33327 14.5668C7.39994 13.6335 6.93327 12.4335 6.93327 10.9668C6.93327 9.50013 7.39994 8.30013 8.33327 7.3668C9.2666 6.43346 10.4666 5.9668 11.9333 5.9668C13.3999 5.9668 14.5999 6.43346 15.5333 7.3668C16.4666 8.30013 16.9333 9.50013 16.9333 10.9668C16.9333 12.4335 16.4666 13.6335 15.5333 14.5668C14.5999 15.5001 13.3999 15.9668 11.9333 15.9668ZM23.9333 10.9668C23.9333 12.4335 23.4666 13.6335 22.5333 14.5668C21.5999 15.5001 20.3999 15.9668 18.9333 15.9668C18.6888 15.9668 18.4166 15.9501 18.1166 15.9168C17.8166 15.8835 17.5444 15.8224 17.2999 15.7335C17.8333 15.1779 18.2388 14.4946 18.5166 13.6835C18.7944 12.8724 18.9333 11.9668 18.9333 10.9668C18.9333 9.9668 18.7944 9.08346 18.5166 8.3168C18.2388 7.55013 17.8333 6.84457 17.2999 6.20013C17.5444 6.13346 17.8166 6.07791 18.1166 6.03346C18.4166 5.98902 18.6888 5.9668 18.9333 5.9668C20.3999 5.9668 21.5999 6.43346 22.5333 7.3668C23.4666 8.30013 23.9333 9.50013 23.9333 10.9668ZM3.2666 24.6668H20.5999V23.5335C20.5999 23.1779 20.4944 22.8335 20.2833 22.5001C20.0722 22.1668 19.811 21.9335 19.4999 21.8001C17.8999 21.089 16.5555 20.6112 15.4666 20.3668C14.3777 20.1223 13.1999 20.0001 11.9333 20.0001C10.6666 20.0001 9.48327 20.1223 8.38327 20.3668C7.28327 20.6112 5.93327 21.089 4.33327 21.8001C4.02216 21.9335 3.7666 22.1668 3.5666 22.5001C3.3666 22.8335 3.2666 23.1779 3.2666 23.5335V24.6668ZM11.9333 13.9668C12.7999 13.9668 13.5166 13.6835 14.0833 13.1168C14.6499 12.5501 14.9333 11.8335 14.9333 10.9668C14.9333 10.1001 14.6499 9.38346 14.0833 8.8168C13.5166 8.25013 12.7999 7.9668 11.9333 7.9668C11.0666 7.9668 10.3499 8.25013 9.78327 8.8168C9.2166 9.38346 8.93327 10.1001 8.93327 10.9668C8.93327 11.8335 9.2166 12.5501 9.78327 13.1168C10.3499 13.6835 11.0666 13.9668 11.9333 13.9668Z" fill="currentColor"/>
  </symbol>

  <symbol id="stat-download" viewBox="0 0 32 32" fill="none" xmlns="http://www.w3.org/2000/svg">
    <path d="M16.0002 21.1668C15.8668 21.1668 15.7446 21.1446 15.6335 21.1002C15.5224 21.0557 15.4113 20.9779 15.3002 20.8668L10.2668 15.8335C10.0668 15.6335 9.97239 15.3946 9.9835 15.1168C9.99461 14.8391 10.1002 14.6002 10.3002 14.4002C10.5002 14.2002 10.7391 14.1002 11.0168 14.1002C11.2946 14.1002 11.5335 14.2002 11.7335 14.4002L15.0002 17.7002V6.3335C15.0002 6.04461 15.0946 5.80572 15.2835 5.61683C15.4724 5.42794 15.7113 5.3335 16.0002 5.3335C16.2891 5.3335 16.5279 5.42794 16.7168 5.61683C16.9057 5.80572 17.0002 6.04461 17.0002 6.3335V17.7002L20.3002 14.4002C20.5002 14.2002 20.7391 14.1002 21.0168 14.1002C21.2946 14.1002 21.5335 14.2002 21.7335 14.4002C21.9335 14.6002 22.0335 14.8391 22.0335 15.1168C22.0335 15.3946 21.9335 15.6335 21.7335 15.8335L16.7002 20.8668C16.5891 20.9779 16.4779 21.0557 16.3668 21.1002C16.2557 21.1446 16.1335 21.1668 16.0002 21.1668ZM7.3335 26.6668C6.80016 26.6668 6.3335 26.4668 5.9335 26.0668C5.5335 25.6668 5.3335 25.2002 5.3335 24.6668V20.9002C5.3335 20.6113 5.42794 20.3724 5.61683 20.1835C5.80572 19.9946 6.04461 19.9002 6.3335 19.9002C6.62239 19.9002 6.86127 19.9946 7.05016 20.1835C7.23905 20.3724 7.3335 20.6113 7.3335 20.9002V24.6668H24.6668V20.9002C24.6668 20.6113 24.7613 20.3724 24.9502 20.1835C25.1391 19.9946 25.3779 19.9002 25.6668 19.9002C25.9557 19.9002 26.1946 19.9946 26.3835 20.1835C26.5724 20.3724 26.6668 20.6113 26.6668 20.9002V24.6668C26.6668 25.2002 26.4668 25.6668 26.0668 26.0668C25.6668 26.4668 25.2002 26.6668 24.6668 26.6668H7.3335Z" fill="currentColor"/>
  </symbol>

  <symbol id="arrow-path" xmlns="http://www.w3.org/2000/svg" fill="none" viewBox="0 0 24 24" stroke-width="1.5" stroke="currentColor">
    <path stroke-linecap="round" stroke-linejoin="round" d="M16.023 9.348h4.992v-.001M2.985 19.644v-4.992m0 0h4.992m-4.993 0 3.181 3.183a8.25 8.25 0 0 0 13.803-3.7M4.031 9.865a8.25 8.25 0 0 1 13.803-3.7l3.181 3.182m0-4.991v4.99" />
  </symbol>


  <symbol id="chain" viewBox="0 0 32 32" fill="none" xmlns="http://www.w3.org/2000/svg">
    <path d="M13.3334 17.3333C13.906 18.0988 14.6365 18.7322 15.4754 19.1906C16.3143 19.6489 17.242 19.9215 18.1956 19.9898C19.1491 20.0581 20.1061 19.9205 21.0018 19.5864C21.8975 19.2523 22.7108 18.7294 23.3867 18.0533L27.3867 14.0533C28.6011 12.796 29.273 11.112 29.2579 9.36399C29.2427 7.61601 28.5415 5.94393 27.3055 4.70787C26.0694 3.47182 24.3973 2.77069 22.6494 2.7555C20.9014 2.74031 19.2174 3.41227 17.96 4.62666L15.6667 6.90666M18.6667 14.6667C18.0941 13.9012 17.3635 13.2678 16.5246 12.8094C15.6857 12.3511 14.758 12.0785 13.8045 12.0102C12.851 11.9419 11.8939 12.0795 10.9982 12.4136C10.1025 12.7477 9.2892 13.2706 8.61336 13.9467L4.61336 17.9467C3.39897 19.204 2.72701 20.888 2.7422 22.636C2.75738 24.384 3.45851 26.0561 4.69457 27.2921C5.93062 28.5282 7.6027 29.2293 9.35068 29.2445C11.0987 29.2597 12.7827 28.5877 14.04 27.3733L16.32 25.0933" stroke="#383838" stroke-width="3" stroke-linecap="round" stroke-linejoin="round"/>
  </symbol>

  <symbol id="box" viewBox="0 0 32 32" fill="none" xmlns="http://www.w3.org/2000/svg">
    <path d="M22.3333 12.5333L10.3333 5.61334M4.69325 9.28L16.3333 16.0133L27.9733 9.28M16.3333 29.44V16M28.3333 21.3333V10.6667C28.3328 10.199 28.2093 9.73975 27.9753 9.33489C27.7413 8.93002 27.4049 8.59382 26.9999 8.36L17.6666 3.02667C17.2612 2.79262 16.8013 2.6694 16.3333 2.6694C15.8652 2.6694 15.4053 2.79262 14.9999 3.02667L5.66659 8.36C5.2616 8.59382 4.92523 8.93002 4.6912 9.33489C4.45718 9.73975 4.33373 10.199 4.33325 10.6667V21.3333C4.33373 21.801 4.45718 22.2603 4.6912 22.6651C4.92523 23.07 5.2616 23.4062 5.66659 23.64L14.9999 28.9733C15.4053 29.2074 15.8652 29.3306 16.3333 29.3306C16.8013 29.3306 17.2612 29.2074 17.6666 28.9733L26.9999 23.64C27.4049 23.4062 27.7413 23.07 27.9753 22.6651C28.2093 22.2603 28.3328 21.801 28.3333 21.3333Z" stroke="#383838" stroke-width="3" stroke-linecap="round" stroke-linejoin="round"/>
  </symbol>

  <symbol id="cd" viewBox="0 0 32 32" fill="none" xmlns="http://www.w3.org/2000/svg">
    <path d="M16.6666 29.3333C24.0304 29.3333 29.9999 23.3638 29.9999 16C29.9999 8.63621 24.0304 2.66667 16.6666 2.66667C9.30279 2.66667 3.33325 8.63621 3.33325 16C3.33325 23.3638 9.30279 29.3333 16.6666 29.3333Z" stroke="#383838" stroke-width="3" stroke-linecap="round" stroke-linejoin="round"/>
    <path d="M16.6666 20C18.8757 20 20.6666 18.2091 20.6666 16C20.6666 13.7909 18.8757 12 16.6666 12C14.4574 12 12.6666 13.7909 12.6666 16C12.6666 18.2091 14.4574 20 16.6666 20Z" stroke="#383838" stroke-width="3" stroke-linecap="round" stroke-linejoin="round"/>
  </symbol>

  <symbol id="atom" viewBox="0 0 24 24" fill="none" xmlns="http://www.w3.org/2000/svg">
    <path d="M11.9997 12.0901V11.9999M20.9625 20.9626C19.0668 22.8583 13.5173 20.3823 8.56743 15.4325C3.61753 10.4826 1.14162 4.9331 3.03732 3.03739C4.93303 1.14169 10.4825 3.6176 15.4324 8.5675C20.3823 13.5174 22.8582 19.0668 20.9625 20.9626ZM3.03752 20.9626C1.14181 19.0669 3.61772 13.5174 8.56762 8.56755C13.5175 3.61766 19.067 1.14174 20.9627 3.03745C22.8584 4.93315 20.3825 10.4826 15.4326 15.4325C10.4827 20.3824 4.93322 22.8583 3.03752 20.9626Z" stroke="currentColor" stroke-width="1.5" stroke-linecap="round"/>
  </symbol>

  <symbol id="github-outline" viewBox="0 0 24 24" fill="none" xmlns="http://www.w3.org/2000/svg">
    <path d="M9 19C4 20.5 4 16.5 2 16M16 22V18.13C16.0375 17.6532 15.9731 17.1738 15.811 16.7238C15.6489 16.2738 15.3929 15.8634 15.06 15.52C18.2 15.17 21.5 13.98 21.5 8.52C21.4997 7.12383 20.9627 5.7812 20 4.77C20.4559 3.54851 20.4236 2.19835 19.91 1C19.91 1 18.73 0.65 16 2.48C13.708 1.85882 11.292 1.85882 9 2.48C6.27 0.65 5.09 1 5.09 1C4.57638 2.19835 4.54414 3.54851 5 4.77C4.03013 5.7887 3.49252 7.14346 3.5 8.55C3.5 13.97 6.8 15.16 9.94 15.55C9.611 15.89 9.35726 16.2954 9.19531 16.7399C9.03335 17.1844 8.96681 17.6581 9 18.13V22" stroke="currentColor" stroke-width="1.5" stroke-linecap="round" stroke-linejoin="round"/>
  </symbol>

  <symbol id="discord-outline" viewBox="0 0 24 21" fill="none" xmlns="http://www.w3.org/2000/svg">
    <path d="M14.9454 1.80816L14.2099 1.68715L13.8479 2.33875C13.7723 2.47486 13.6948 2.62336 13.6192 2.77542C12.5363 2.66355 11.4475 2.66381 10.3646 2.7762C10.2851 2.62217 10.2024 2.47086 10.1163 2.3223L9.74981 1.68942L9.02812 1.80817C7.52028 2.05629 6.05041 2.5143 4.67509 3.16381L4.41042 3.28881L4.24752 3.53201C1.52997 7.58939 0.783318 11.5687 1.14323 15.4898L1.18653 15.9616L1.56715 16.2437C3.17936 17.4386 4.96897 18.3538 6.89788 18.9268L7.60816 19.1377L8.04962 18.5427C8.43835 18.0189 8.78614 17.4755 9.09066 16.9004C11.0009 17.3491 12.992 17.3503 14.9028 16.9041C15.2068 17.4778 15.5539 18.0199 15.9417 18.5426L16.3874 19.1435L17.1027 18.924C19.0156 18.3369 20.824 17.4439 22.4291 16.2401L22.8052 15.958L22.8482 15.4897C23.2651 10.9416 22.0833 6.98392 19.7222 3.50839L19.5545 3.26151L19.2825 3.13857C17.9023 2.51458 16.4561 2.05674 14.9454 1.80816ZM15.9834 11.1065C15.9727 11.7744 15.5488 12.0477 15.2737 12.0477C14.9904 12.0477 14.564 11.7501 14.564 11.1237C14.564 10.4843 15.0019 10.1818 15.2737 10.1818C15.5765 10.1818 15.9936 10.4786 15.9834 11.1065ZM8.69995 12.0477C8.41668 12.0477 7.99026 11.7501 7.99026 11.1237C7.99026 10.4843 8.42812 10.1818 8.69995 10.1818C9.0003 10.1818 9.42362 10.4776 9.42743 11.1151C9.41317 11.7584 8.99226 12.0477 8.69995 12.0477Z" stroke="currentColor" stroke-width="1.5"/>
  </symbol>


  <svg viewBox="0 0 602 360" fill="none" xmlns="http://www.w3.org/2000/svg">
    <path d="M480.96 180C480.96 196.572 474.239 211.572 463.357 222.42C452.475 233.28 437.445 240 420.84 240C404.235 240 389.205 246.708 378.335 257.568C367.453 268.428 360.72 283.428 360.72 300C360.72 316.572 353.999 331.572 343.117 342.42C332.235 353.28 317.205 360 300.6 360C283.995 360 268.965 353.28 258.095 342.42C247.213 331.572 240.48 316.572 240.48 300C240.48 283.428 247.213 268.428 258.095 257.568C268.965 246.708 283.995 240 300.6 240C317.205 240 332.235 233.28 343.117 222.42C353.999 211.572 360.72 196.572 360.72 180C360.72 146.856 333.81 120 300.6 120C283.995 120 268.965 113.28 258.095 102.42C247.213 91.572 240.48 76.572 240.48 60C240.48 43.428 247.213 28.428 258.095 17.568C268.965 6.708 283.995 0 300.6 0C333.81 0 360.72 26.856 360.72 60C360.72 76.572 367.453 91.572 378.335 102.42C389.205 113.28 404.235 120 420.84 120C454.05 120 480.96 146.856 480.96 180Z" fill="currentColor"/>
    <path d="M240.48 180C240.48 146.862 213.563 120 180.36 120C147.157 120 120.24 146.862 120.24 180C120.24 213.137 147.157 240 180.36 240C213.563 240 240.48 213.137 240.48 180Z" fill="currentColor"/>
    <path d="M120.24 300C120.24 266.863 93.3234 240 60.12 240C26.9166 240 0 266.863 0 300C0 333.138 26.9166 360 60.12 360C93.3234 360 120.24 333.138 120.24 300Z" fill="currentColor"/>
    <path d="M601.2 300C601.2 266.863 574.283 240 541.08 240C507.877 240 480.96 266.863 480.96 300C480.96 333.138 507.877 360 541.08 360C574.283 360 601.2 333.138 601.2 300Z" fill="currentColor"/>
  </svg>


  <symbol id="copy" viewBox="0 0 24 24" fill="none" stroke="currentColor" xmlns="http://www.w3.org/2000/svg">
    <rect width="13" height="13" x="9" y="9" rx="2" ry="2" vector-effect="non-scaling-stroke"/>
    <path d="M5 15H4a2 2 0 0 1-2-2V4a2 2 0 0 1 2-2h9a2 2 0 0 1 2 2v1" vector-effect="non-scaling-stroke"/>
  </symbol>

  <symbol viewBox="0 0 1200 1227" id="x-logo">
    <path d="M714.163 519.284L1160.89 0H1055.03L667.137 450.887L357.328 0H0L468.492 681.821L0 1226.37H105.866L515.491 750.218L842.672 1226.37H1200L714.137 519.284H714.163ZM569.165 687.828L521.697 619.934L144.011 79.6944H306.615L611.412 515.685L658.88 583.579L1055.08 1150.3H892.476L569.165 687.854V687.828Z" fill="currentColor"></path>
  </symbol>

</svg>
