<svg xmlns="http://www.w3.org/2000/svg" aria-hidden="true">
  <symbol id="logo" viewBox="0 0 38 38" fill="none">
    <path
      d="M13.582 20.41c-1.39 0-2.523-1.142-2.523-2.542s1.133-2.542 2.523-2.542c1.39 0 2.523 1.142 2.523 2.542 0 1.399-1.134 2.542-2.523 2.542zM7.524 25.457c-1.388-.003-2.518-1.15-2.514-2.55a2.537 2.537 0 012.532-2.534c1.389.003 2.519 1.15 2.514 2.551a2.538 2.538 0 01-2.532 2.533zM30.486 25.457a2.538 2.538 0 01-2.543-2.523c-.007-1.402 1.118-2.553 2.505-2.56a2.538 2.538 0 012.542 2.522c.008 1.401-1.118 2.553-2.504 2.561z"
      fill="currentColor" />
    <path
      d="M25.757 15.474c-.686-.214-1.419-.303-2.138-.381-1.112-.12-1.555-.554-1.743-1.668-.106-.622-.254-1.26-.523-1.825-.513-1.075-1.715-1.557-2.922-1.282-1.02.233-1.867 1.248-1.914 2.29-.054 1.188.626 2.203 1.794 2.553.555.167 1.145.25 1.724.293 1.063.077 1.418.394 1.705.878.182.306.357.607.357 1.517 0 .911-.177 1.212-.357 1.517-.287.484-.642.8-1.705.879-.58.042-1.17.126-1.724.293-1.168.351-1.848 1.364-1.794 2.554.047 1.041.895 2.056 1.914 2.289 1.207.276 2.409-.207 2.922-1.282.27-.564.417-1.203.523-1.825.189-1.114.632-1.547 1.743-1.668.72-.078 1.452-.168 2.138-.382 1.041-.325 1.667-1.296 1.667-2.375 0-1.078-.626-2.048-1.667-2.375z"
      fill="#F44250" />
  </symbol>

  <symbol id="sun" fill="none" viewBox="0 0 24 24" stroke="currentColor" stroke-width="2">
    <path stroke-linecap="round" stroke-linejoin="round" d="M12 3v1m0 16v1m9-9h-1M4 12H3m15.364 6.364l-.707-.707M6.343 6.343l-.707-.707m12.728 0l-.707.707M6.343 17.657l-.707.707M16 12a4 4 0 11-8 0 4 4 0 018 0z" />
  </symbol>

  <symbol id="moon" fill="none" viewBox="0 0 24 24" stroke="currentColor" stroke-width="2">
    <path stroke-linecap="round" stroke-linejoin="round" d="M20.354 15.354A9 9 0 018.646 3.646 9.003 9.003 0 0012 21a9.003 9.003 0 008.354-5.646z" />
  </symbol>

  <symbol id="edit" fill="none" viewBox="0 0 24 24" stroke="currentColor" stroke-width="2">
    <path stroke-linecap="round" stroke-linejoin="round" d="M11 5H6a2 2 0 00-2 2v11a2 2 0 002 2h11a2 2 0 002-2v-5m-1.414-9.414a2 2 0 112.828 2.828L11.828 15H9v-2.828l8.586-8.586z" />
  </symbol>

  <symbol id="menu" fill="none" viewBox="0 0 24 24" stroke="currentColor" stroke-width="2">
    <path stroke-linecap="round" stroke-linejoin="round" d="M4 6h16M4 12h16M4 18h16" />
  </symbol>

  <symbol id="chevron-r" fill="none" viewBox="0 0 24 24" stroke="currentColor" stroke-width="2">
    <path stroke-linecap="round" stroke-linejoin="round" d="M9 5l7 7-7 7" />
  </symbol>

  <symbol id="chevron-d" fill="none" viewBox="0 0 24 24" stroke="currentColor" stroke-width="2">
    <path stroke-linecap="round" stroke-linejoin="round" d="M19 9l-7 7-7-7" />
  </symbol>

  <symbol id="triangle-d" viewBox="0 0 48 48" fill="currentColor">
    <path d="M24 36L4.94744 15L43.0526 15L24 36Z"/>
  </symbol>

  <symbol id="remix-r" viewBox="0 0 174 200" fill="none">
    <path fill-rule="evenodd" clip-rule="evenodd" d="M166.357 154.236C168.158 177.344 168.158 188.176 168.158 200H114.627C114.627 197.424 114.673 195.068 114.719 192.679C114.864 185.253 115.015 177.508 113.811 161.868C112.218 138.971 102.346 133.883 84.1936 133.883H68.1112H0V92.2236H86.7412C109.671 92.2236 121.135 85.2571 121.135 66.8124C121.135 50.5938 109.671 40.7652 86.7412 40.7652H0V0H96.2951C148.205 0 174 24.487 174 63.6025C174 92.8596 155.848 111.94 131.326 115.12C152.026 119.255 164.128 131.021 166.357 154.236Z" fill="currentColor"/>
    <path d="M0 200V168.944H56.6017C66.0561 168.944 68.1089 175.948 68.1089 180.124V200H0Z" fill="currentColor"/>
  </symbol>

  <symbol id="logotype" viewBox="0 0 721 83" fill="none">
    <path d="M73.232 81C70.544 78.056 70.16 74.472 69.008 62.44C68.112 53.096 63.248 48.36 54.928 46.696C64.784 45.416 72.08 37.736 72.08 25.96C72.08 10.216 61.712 0.359993 40.848 0.359993H0.144V81H21.52V54.248H35.984C43.28 54.248 47.248 56.296 47.888 65.512C48.528 73.832 49.552 78.824 51.216 81H73.232ZM21.52 37.48V17.768H37.008C46.224 17.768 50.832 21.224 50.832 27.752C50.832 35.176 46.224 37.48 37.008 37.48H21.52ZM120.699 60.648C118.779 65.128 115.195 67.048 109.563 67.048C103.291 67.048 98.171 63.72 97.659 56.68H137.723V50.92C137.723 35.432 127.611 22.376 108.539 22.376C90.747 22.376 77.435 35.304 77.435 53.352C77.435 71.528 90.491 82.536 108.795 82.536C123.899 82.536 134.395 75.24 137.339 62.184L120.699 60.648ZM97.915 46.696C98.683 41.32 101.627 37.224 108.283 37.224C114.427 37.224 117.755 41.576 118.011 46.696H97.915ZM179.156 57.192C179.156 64.616 174.42 68.968 168.532 68.968C165.076 68.968 162.772 67.048 162.772 64.104C162.772 60.392 165.716 58.856 170.708 57.832L179.156 56.296V57.192ZM199.508 44.776C199.508 28.904 188.372 22.376 173.268 22.376C156.116 22.376 146.772 31.08 144.98 43.624L164.18 44.904C165.076 40.68 167.38 37.736 171.988 37.736C176.98 37.736 179.156 40.552 179.156 45.288V46.184L163.156 48.872C150.74 51.048 142.804 55.784 142.804 66.792C142.804 76.52 150.1 82.28 161.236 82.28C170.324 82.28 176.852 78.824 180.18 72.168C182.1 78.696 187.604 82.28 194.644 82.28C200.532 82.28 204.628 80.616 207.572 78.568V67.56C205.908 68.2 204.628 68.456 202.964 68.456C200.788 68.456 199.508 67.176 199.508 64.232V44.776ZM209.935 52.456C209.935 70.632 223.119 82.536 241.167 82.536C258.319 82.536 267.919 71.528 269.327 57.704L252.303 56.424C250.895 63.464 247.439 66.92 241.423 66.92C235.151 66.92 230.799 62.696 230.799 52.456C230.799 42.216 235.151 37.992 241.423 37.992C247.439 37.992 250.895 41.32 252.303 48.36L269.327 47.208C267.919 33.512 258.319 22.376 241.167 22.376C223.119 22.376 209.935 34.408 209.935 52.456ZM279.305 65.128C279.305 78.568 288.393 82.536 297.993 82.536C305.801 82.536 310.793 80.616 315.145 77.416V63.976C311.689 65.384 308.873 65.896 306.313 65.896C302.089 65.896 299.785 63.976 299.785 59.112V38.248H314.633V23.912H299.785V8.168H286.729L284.809 15.592C283.401 20.84 281.609 23.912 275.849 24.808L271.625 25.448V38.248H279.305V65.128ZM419.732 81C417.044 78.056 416.66 74.472 415.508 62.44C414.612 53.096 409.748 48.36 401.428 46.696C411.284 45.416 418.58 37.736 418.58 25.96C418.58 10.216 408.212 0.359993 387.348 0.359993H346.644V81H368.02V54.248H382.484C389.78 54.248 393.748 56.296 394.388 65.512C395.028 73.832 396.052 78.824 397.716 81H419.732ZM368.02 37.48V17.768H383.508C392.724 17.768 397.332 21.224 397.332 27.752C397.332 35.176 392.724 37.48 383.508 37.48H368.02ZM444.799 52.456C444.799 43.88 447.871 37.992 455.167 37.992C462.335 37.992 465.535 43.88 465.535 52.456C465.535 61.032 462.335 66.92 455.167 66.92C447.871 66.92 444.799 61.032 444.799 52.456ZM486.399 52.456C486.399 34.792 473.727 22.376 455.167 22.376C436.479 22.376 423.935 34.792 423.935 52.456C423.935 70.248 436.479 82.536 455.167 82.536C473.727 82.536 486.399 70.248 486.399 52.456ZM532.264 51.944C532.264 60.648 529.704 66.28 523.176 66.28C516.904 66.28 514.728 62.056 514.728 54.376V23.912H493.992V59.88C493.992 71.784 498.728 82.536 514.344 82.536C522.92 82.536 529.192 78.824 532.264 72.424V81H553V23.912H532.264V51.944ZM566.305 65.128C566.305 78.568 575.393 82.536 584.993 82.536C592.801 82.536 597.793 80.616 602.145 77.416V63.976C598.689 65.384 595.873 65.896 593.313 65.896C589.089 65.896 586.785 63.976 586.785 59.112V38.248H601.633V23.912H586.785V8.168H573.729L571.809 15.592C570.401 20.84 568.609 23.912 562.849 24.808L558.625 25.448V38.248H566.305V65.128ZM650.324 60.648C648.404 65.128 644.82 67.048 639.188 67.048C632.916 67.048 627.796 63.72 627.284 56.68H667.348V50.92C667.348 35.432 657.236 22.376 638.164 22.376C620.372 22.376 607.06 35.304 607.06 53.352C607.06 71.528 620.116 82.536 638.42 82.536C653.524 82.536 664.02 75.24 666.964 62.184L650.324 60.648ZM627.54 46.696C628.308 41.32 631.252 37.224 637.908 37.224C644.052 37.224 647.38 41.576 647.636 46.696H627.54ZM720.045 24.552C718.637 23.4 715.565 22.376 712.109 22.376C704.557 22.376 698.541 27.624 696.493 34.024V23.912H675.757V81H696.493V54.888C696.493 45.288 701.229 41.704 708.909 41.704C712.877 41.704 715.949 42.472 718.765 44.136L720.045 24.552Z" fill="currentColor"/>
  </symbol>


</svg>
