<svg xmlns="http://www.w3.org/2000/svg" aria-hidden="true">
  <symbol id="logo" viewBox="0 0 38 38" fill="none">
    <path
      d="M13.582 20.41c-1.39 0-2.523-1.142-2.523-2.542s1.133-2.542 2.523-2.542c1.39 0 2.523 1.142 2.523 2.542 0 1.399-1.134 2.542-2.523 2.542zM7.524 25.457c-1.388-.003-2.518-1.15-2.514-2.55a2.537 2.537 0 012.532-2.534c1.389.003 2.519 1.15 2.514 2.551a2.538 2.538 0 01-2.532 2.533zM30.486 25.457a2.538 2.538 0 01-2.543-2.523c-.007-1.402 1.118-2.553 2.505-2.56a2.538 2.538 0 012.542 2.522c.008 1.401-1.118 2.553-2.504 2.561z"
      fill="currentColor" />
    <path
      d="M25.757 15.474c-.686-.214-1.419-.303-2.138-.381-1.112-.12-1.555-.554-1.743-1.668-.106-.622-.254-1.26-.523-1.825-.513-1.075-1.715-1.557-2.922-1.282-1.02.233-1.867 1.248-1.914 2.29-.054 1.188.626 2.203 1.794 2.553.555.167 1.145.25 1.724.293 1.063.077 1.418.394 1.705.878.182.306.357.607.357 1.517 0 .911-.177 1.212-.357 1.517-.287.484-.642.8-1.705.879-.58.042-1.17.126-1.724.293-1.168.351-1.848 1.364-1.794 2.554.047 1.041.895 2.056 1.914 2.289 1.207.276 2.409-.207 2.922-1.282.27-.564.417-1.203.523-1.825.189-1.114.632-1.547 1.743-1.668.72-.078 1.452-.168 2.138-.382 1.041-.325 1.667-1.296 1.667-2.375 0-1.078-.626-2.048-1.667-2.375z"
      fill="#F44250" />
  </symbol>

  <symbol id="edit" fill="none" viewBox="0 0 24 24" stroke="currentColor" stroke-width="2">
    <path stroke-linecap="round" stroke-linejoin="round" d="M11 5H6a2 2 0 00-2 2v11a2 2 0 002 2h11a2 2 0 002-2v-5m-1.414-9.414a2 2 0 112.828 2.828L11.828 15H9v-2.828l8.586-8.586z" />
  </symbol>

  <symbol id="menu" fill="none" viewBox="0 0 24 24" stroke="currentColor" stroke-width="2">
    <path stroke-linecap="round" stroke-linejoin="round" d="M4 6h16M4 12h16M4 18h16" />
  </symbol>

  <symbol id="chevron-r" fill="none" viewBox="0 0 24 24" stroke="currentColor" stroke-width="2">
    <path stroke-linecap="round" stroke-linejoin="round" d="M9 5l7 7-7 7" />
  </symbol>

  <symbol id="chevron-d" fill="none" viewBox="0 0 24 24" stroke="currentColor" stroke-width="2">
    <path stroke-linecap="round" stroke-linejoin="round" d="M19 9l-7 7-7-7" />
  </symbol>

  <symbol id="triangle-d" viewBox="0 0 48 48" fill="currentColor">
    <path d="M24 36L4.94744 15L43.0526 15L24 36Z"/>
  </symbol>

  <symbol id="remix-r" viewBox="0 0 174 200" fill="none">
    <path fill-rule="evenodd" clip-rule="evenodd" d="M166.357 154.236C168.158 177.344 168.158 188.176 168.158 200H114.627C114.627 197.424 114.673 195.068 114.719 192.679C114.864 185.253 115.015 177.508 113.811 161.868C112.218 138.971 102.346 133.883 84.1936 133.883H68.1112H0V92.2236H86.7412C109.671 92.2236 121.135 85.2571 121.135 66.8124C121.135 50.5938 109.671 40.7652 86.7412 40.7652H0V0H96.2951C148.205 0 174 24.487 174 63.6025C174 92.8596 155.848 111.94 131.326 115.12C152.026 119.255 164.128 131.021 166.357 154.236Z" fill="currentColor"/>
    <path d="M0 200V168.944H56.6017C66.0561 168.944 68.1089 175.948 68.1089 180.124V200H0Z" fill="currentColor"/>
  </symbol>

  <symbol id="logotype" viewBox="0 0 721 83" fill="none">
    <path d="M73.232 81C70.544 78.056 70.16 74.472 69.008 62.44C68.112 53.096 63.248 48.36 54.928 46.696C64.784 45.416 72.08 37.736 72.08 25.96C72.08 10.216 61.712 0.359993 40.848 0.359993H0.144V81H21.52V54.248H35.984C43.28 54.248 47.248 56.296 47.888 65.512C48.528 73.832 49.552 78.824 51.216 81H73.232ZM21.52 37.48V17.768H37.008C46.224 17.768 50.832 21.224 50.832 27.752C50.832 35.176 46.224 37.48 37.008 37.48H21.52ZM120.699 60.648C118.779 65.128 115.195 67.048 109.563 67.048C103.291 67.048 98.171 63.72 97.659 56.68H137.723V50.92C137.723 35.432 127.611 22.376 108.539 22.376C90.747 22.376 77.435 35.304 77.435 53.352C77.435 71.528 90.491 82.536 108.795 82.536C123.899 82.536 134.395 75.24 137.339 62.184L120.699 60.648ZM97.915 46.696C98.683 41.32 101.627 37.224 108.283 37.224C114.427 37.224 117.755 41.576 118.011 46.696H97.915ZM179.156 57.192C179.156 64.616 174.42 68.968 168.532 68.968C165.076 68.968 162.772 67.048 162.772 64.104C162.772 60.392 165.716 58.856 170.708 57.832L179.156 56.296V57.192ZM199.508 44.776C199.508 28.904 188.372 22.376 173.268 22.376C156.116 22.376 146.772 31.08 144.98 43.624L164.18 44.904C165.076 40.68 167.38 37.736 171.988 37.736C176.98 37.736 179.156 40.552 179.156 45.288V46.184L163.156 48.872C150.74 51.048 142.804 55.784 142.804 66.792C142.804 76.52 150.1 82.28 161.236 82.28C170.324 82.28 176.852 78.824 180.18 72.168C182.1 78.696 187.604 82.28 194.644 82.28C200.532 82.28 204.628 80.616 207.572 78.568V67.56C205.908 68.2 204.628 68.456 202.964 68.456C200.788 68.456 199.508 67.176 199.508 64.232V44.776ZM209.935 52.456C209.935 70.632 223.119 82.536 241.167 82.536C258.319 82.536 267.919 71.528 269.327 57.704L252.303 56.424C250.895 63.464 247.439 66.92 241.423 66.92C235.151 66.92 230.799 62.696 230.799 52.456C230.799 42.216 235.151 37.992 241.423 37.992C247.439 37.992 250.895 41.32 252.303 48.36L269.327 47.208C267.919 33.512 258.319 22.376 241.167 22.376C223.119 22.376 209.935 34.408 209.935 52.456ZM279.305 65.128C279.305 78.568 288.393 82.536 297.993 82.536C305.801 82.536 310.793 80.616 315.145 77.416V63.976C311.689 65.384 308.873 65.896 306.313 65.896C302.089 65.896 299.785 63.976 299.785 59.112V38.248H314.633V23.912H299.785V8.168H286.729L284.809 15.592C283.401 20.84 281.609 23.912 275.849 24.808L271.625 25.448V38.248H279.305V65.128ZM419.732 81C417.044 78.056 416.66 74.472 415.508 62.44C414.612 53.096 409.748 48.36 401.428 46.696C411.284 45.416 418.58 37.736 418.58 25.96C418.58 10.216 408.212 0.359993 387.348 0.359993H346.644V81H368.02V54.248H382.484C389.78 54.248 393.748 56.296 394.388 65.512C395.028 73.832 396.052 78.824 397.716 81H419.732ZM368.02 37.48V17.768H383.508C392.724 17.768 397.332 21.224 397.332 27.752C397.332 35.176 392.724 37.48 383.508 37.48H368.02ZM444.799 52.456C444.799 43.88 447.871 37.992 455.167 37.992C462.335 37.992 465.535 43.88 465.535 52.456C465.535 61.032 462.335 66.92 455.167 66.92C447.871 66.92 444.799 61.032 444.799 52.456ZM486.399 52.456C486.399 34.792 473.727 22.376 455.167 22.376C436.479 22.376 423.935 34.792 423.935 52.456C423.935 70.248 436.479 82.536 455.167 82.536C473.727 82.536 486.399 70.248 486.399 52.456ZM532.264 51.944C532.264 60.648 529.704 66.28 523.176 66.28C516.904 66.28 514.728 62.056 514.728 54.376V23.912H493.992V59.88C493.992 71.784 498.728 82.536 514.344 82.536C522.92 82.536 529.192 78.824 532.264 72.424V81H553V23.912H532.264V51.944ZM566.305 65.128C566.305 78.568 575.393 82.536 584.993 82.536C592.801 82.536 597.793 80.616 602.145 77.416V63.976C598.689 65.384 595.873 65.896 593.313 65.896C589.089 65.896 586.785 63.976 586.785 59.112V38.248H601.633V23.912H586.785V8.168H573.729L571.809 15.592C570.401 20.84 568.609 23.912 562.849 24.808L558.625 25.448V38.248H566.305V65.128ZM650.324 60.648C648.404 65.128 644.82 67.048 639.188 67.048C632.916 67.048 627.796 63.72 627.284 56.68H667.348V50.92C667.348 35.432 657.236 22.376 638.164 22.376C620.372 22.376 607.06 35.304 607.06 53.352C607.06 71.528 620.116 82.536 638.42 82.536C653.524 82.536 664.02 75.24 666.964 62.184L650.324 60.648ZM627.54 46.696C628.308 41.32 631.252 37.224 637.908 37.224C644.052 37.224 647.38 41.576 647.636 46.696H627.54ZM720.045 24.552C718.637 23.4 715.565 22.376 712.109 22.376C704.557 22.376 698.541 27.624 696.493 34.024V23.912H675.757V81H696.493V54.888C696.493 45.288 701.229 41.704 708.909 41.704C712.877 41.704 715.949 42.472 718.765 44.136L720.045 24.552Z" fill="currentColor"/>
  </symbol>

  <symbol id="discord" viewBox="0 0 41 40" fill="none" xmlns="http://www.w3.org/2000/svg">
    <path fill-rule="evenodd" clip-rule="evenodd" d="M20.1543 0C9.10535 0 0.154297 8.95105 0.154297 20C0.154297 31.0256 9.10535 39.9767 20.1543 40C31.2033 40 40.1543 31.049 40.1543 20C40.1543 8.95105 31.2033 0 20.1543 0ZM23.8372 10.2331C25.6787 10.5361 27.4502 11.0955 29.1519 11.8648C32.0656 16.1538 33.5108 21.0023 32.998 26.5967C31.04 28.0652 28.8255 29.1608 26.4712 29.8834C25.9351 29.1608 25.4689 28.4149 25.0726 27.6224C25.8418 27.3426 26.5878 26.993 27.2871 26.5734C27.1938 26.5035 27.1064 26.4335 27.019 26.3636C26.9316 26.2937 26.8442 26.2238 26.7509 26.1538C22.6251 28.1119 17.8232 28.1119 13.6973 26.1538C13.6041 26.2238 13.5167 26.2937 13.4293 26.3636C13.3418 26.4335 13.2544 26.5035 13.1612 26.5734C13.8605 26.993 14.5831 27.3426 15.3523 27.6224C14.9561 28.4149 14.4899 29.1608 13.9537 29.8834C11.5994 29.1841 9.40827 28.0652 7.42692 26.5967C6.98403 21.7715 7.89312 16.8997 11.2498 11.8881C12.9281 11.0955 14.723 10.5361 16.5644 10.2331C16.8209 10.676 17.054 11.1422 17.2637 11.6317C19.2218 11.3286 21.2031 11.3286 23.1612 11.6317C23.3477 11.1888 23.6041 10.6527 23.8372 10.2331ZM13.6041 21.0256C13.6041 22.4475 14.6297 23.613 15.9118 23.613C17.2171 23.613 18.2195 22.4475 18.2428 21.0256C18.2428 19.5804 17.2171 18.4149 15.9118 18.4149C14.6297 18.4149 13.6041 19.6037 13.6041 21.0256ZM22.1822 21.0256C22.1822 22.4475 23.2078 23.613 24.4899 23.613C25.7719 23.613 26.7742 22.4708 26.7975 21.0256C26.8209 19.5804 25.7952 18.4149 24.4899 18.4149C23.2078 18.4149 22.1822 19.6037 22.1822 21.0256Z" fill="currentColor"/>
  </symbol>

  <symbol id="github" viewBox="0 0 41 40" fill="none" xmlns="http://www.w3.org/2000/svg">
    <path d="M20.1544 0C9.16926 0 0.154297 9.01496 0.154297 20.0002C0.154297 29.3743 6.73211 37.8897 15.4669 40.0003V33.3834C14.6014 33.5729 13.8049 33.5784 12.9239 33.3187C11.7419 32.9699 10.7815 32.1826 10.0686 30.982C9.61421 30.2154 8.80884 29.3841 7.96869 29.4451L7.76269 27.1105C9.57942 26.9549 11.1511 28.2174 12.084 29.7848C12.4984 30.4818 12.9754 30.8904 13.5876 31.0711C14.1794 31.2454 14.8147 31.1617 15.5551 30.9002C15.741 29.4179 16.42 28.8631 16.933 28.0819V28.0807C11.7236 27.3037 9.64747 24.54 8.82349 22.3586C7.73156 19.4621 8.31751 15.8436 10.2484 13.5569C10.2859 13.5124 10.3537 13.3958 10.3274 13.3143C9.44209 10.64 10.5209 8.4278 10.5606 8.19312C11.5823 8.49524 11.7483 7.88916 14.9988 9.86397L15.5606 10.2015C15.7956 10.3416 15.7217 10.2616 15.9567 10.2439C17.3139 9.87526 18.7445 9.6717 20.1541 9.65339C21.5744 9.6717 22.996 9.87526 24.4092 10.2589L24.5911 10.2772C24.5753 10.2747 24.6406 10.2656 24.7501 10.2003C28.8105 7.74084 28.6646 8.54468 29.7535 8.19068C29.7929 8.42566 30.8574 10.6739 29.9815 13.3143C29.8634 13.6781 33.5017 17.0097 31.4851 22.3577C30.6611 24.54 28.5853 27.3037 23.3759 28.0807V28.0819C24.0436 29.0996 24.846 29.641 24.8417 31.7407V40.0003C33.5768 37.8897 40.1543 29.3743 40.1543 20.0002C40.1546 9.01496 31.1396 0 20.1544 0V0Z" fill="currentColor"/>
  </symbol>

  <symbol id="remix" viewBox="0 0 122 17" fill="none" xmlns="http://www.w3.org/2000/svg">
    <path d="M7.45607 13.9999L9.26407 6.91192H9.32807V13.9999H12.0481V3.91992H7.93607L6.51207 10.2559H6.46407L4.97607 3.91992H0.768066V13.9999H3.26407V6.91192H3.32807L5.13607 13.9999H7.45607Z" fill="currentColor"/>
    <path d="M17.6446 11.0239C17.6446 11.9519 17.0526 12.4959 16.3166 12.4959C15.8846 12.4959 15.5966 12.2559 15.5966 11.8879C15.5966 11.4239 15.9646 11.2319 16.5886 11.1039L17.6446 10.9119V11.0239ZM20.1886 9.47192C20.1886 7.48792 18.7966 6.67192 16.9086 6.67192C14.7646 6.67192 13.5966 7.75992 13.3726 9.32792L15.7726 9.48792C15.8846 8.95992 16.1726 8.59192 16.7486 8.59192C17.3726 8.59192 17.6446 8.94392 17.6446 9.53592V9.64792L15.6446 9.98392C14.0926 10.2559 13.1006 10.8479 13.1006 12.2239C13.1006 13.4399 14.0126 14.1599 15.4046 14.1599C16.5406 14.1599 17.3566 13.7279 17.7726 12.8959C18.0126 13.7119 18.7006 14.1599 19.5806 14.1599C20.3166 14.1599 20.8286 13.9519 21.1966 13.6959V12.3199C20.9886 12.3999 20.8286 12.4319 20.6206 12.4319C20.3486 12.4319 20.1886 12.2719 20.1886 11.9039V9.47192Z" fill="currentColor"/>
    <path d="M26.9959 10.4799C26.9959 11.5199 26.4359 12.1919 25.5719 12.1919C24.5479 12.1919 24.0999 11.4719 24.0999 10.4319C24.0999 9.40792 24.5479 8.68792 25.5719 8.68792C26.4359 8.68792 26.9959 9.35992 26.9959 10.3839V10.4799ZM26.9959 13.9999H29.5879V3.91992H26.9959V8.09592C26.6599 7.24792 25.8439 6.67192 24.6599 6.67192C22.5479 6.67192 21.4919 8.33592 21.4919 10.4319C21.4919 12.5439 22.5479 14.1919 24.6599 14.1919C25.8439 14.1919 26.6599 13.6159 26.9959 12.7839V13.9999Z" fill="currentColor"/>
    <path d="M36.0249 11.4559C35.7849 12.0159 35.3369 12.2559 34.6329 12.2559C33.8489 12.2559 33.2089 11.8399 33.1449 10.9599H38.1529V10.2399C38.1529 8.30392 36.8889 6.67192 34.5049 6.67192C32.2809 6.67192 30.6169 8.28792 30.6169 10.5439C30.6169 12.8159 32.2489 14.1919 34.5369 14.1919C36.4249 14.1919 37.7369 13.2799 38.1049 11.6479L36.0249 11.4559ZM33.1769 9.71192C33.2729 9.03992 33.6409 8.52792 34.4729 8.52792C35.2409 8.52792 35.6569 9.07192 35.6889 9.71192H33.1769Z" fill="currentColor"/>
    <path d="M44.6711 10.3839C44.6711 9.35992 45.2311 8.68792 46.1111 8.68792C47.1191 8.68792 47.5831 9.40792 47.5831 10.4319C47.5831 11.4719 47.1191 12.1919 46.1111 12.1919C45.2311 12.1919 44.6711 11.5199 44.6711 10.4799V10.3839ZM44.5271 12.7679C44.9271 13.6319 45.8231 14.1919 46.9751 14.1919C49.1191 14.1919 50.1911 12.5439 50.1911 10.4319C50.1911 8.33592 49.1191 6.67192 47.0231 6.67192C45.8231 6.67192 45.0231 7.24792 44.6711 8.09592V3.91992H42.0791V13.9999H44.0791L44.5271 12.7679Z" fill="currentColor"/>
    <path d="M54.7594 16.5599L58.8554 6.86392H56.3114L54.6954 11.0399H54.6314L53.0474 6.86392H50.3274L53.2394 14.0959L52.2154 16.5599H54.7594Z" fill="currentColor"/>
    <path fill-rule="evenodd" clip-rule="evenodd" d="M71.4212 14.0474C71.4212 13.4544 71.4212 12.8937 71.3309 11.7349C71.2193 10.5707 70.6133 9.98058 69.5766 9.77325C70.8047 9.61377 71.7137 8.65688 71.7137 7.18964C71.7137 5.22801 70.4219 4 67.8223 4H63V6.04436H67.3439C68.4922 6.04436 69.0663 6.53726 69.0663 7.35062C69.0663 8.27561 68.4922 8.62498 67.3439 8.62498H63V10.7141H66.4113V10.7142H67.2163C68.1254 10.7142 68.6197 10.9694 68.6995 12.1176C68.7599 12.903 68.7522 13.3013 68.745 13.6791V13.6791C68.7426 13.8 68.7404 13.9187 68.7404 14.0474H71.4212ZM63 12.5971V12.4724H66.4109V12.4725H65.848C66.0748 12.4725 66.4002 12.6486 66.4109 13.0009V14.0474H63V12.5971Z" fill="currentColor"/>
    <path d="M103.777 6.93408H101.113L99.9012 8.62459L98.7211 6.93408H95.8663L98.434 10.4267L95.6431 14.047H98.3064L99.7258 12.1172L101.145 14.047H104L101.193 10.3151L103.777 6.93408Z" fill="currentColor"/>
    <path d="M77.2928 11.5117C77.0536 12.0699 76.6071 12.3091 75.9053 12.3091C75.1239 12.3091 74.486 11.8944 74.4222 11.0173H79.4139V10.2996C79.4139 8.36988 78.154 6.74316 75.7778 6.74316C73.561 6.74316 71.9023 8.35393 71.9023 10.6026C71.9023 12.8673 73.5291 14.2388 75.8097 14.2388C77.6915 14.2388 78.9993 13.3298 79.3661 11.7031L77.2928 11.5117ZM74.4541 9.77332C74.5497 9.1035 74.9166 8.59316 75.7459 8.59316C76.5114 8.59316 76.926 9.13539 76.9579 9.77332H74.4541Z" fill="currentColor"/>
    <path d="M87.0001 8.14661C86.6971 7.3173 86.0432 6.74316 84.7833 6.74316C83.7148 6.74316 82.9493 7.22161 82.5665 8.00307V6.93454H79.9829V14.0474H82.5665V10.5548C82.5665 9.48626 82.8695 8.78453 83.7148 8.78453C84.4963 8.78453 84.6876 9.29488 84.6876 10.2677V14.0474H87.2712V10.5548C87.2712 9.48626 87.5583 8.78453 88.4195 8.78453C89.201 8.78453 89.3764 9.29488 89.3764 10.2677V14.0474H91.96V9.58194C91.96 8.09876 91.3859 6.74316 89.4242 6.74316C88.2281 6.74316 87.3829 7.3492 87.0001 8.14661Z" fill="currentColor"/>
    <path d="M92.8045 6.93447V14.0474H95.3881V6.93447H92.8045ZM92.7886 6.26465H95.4041V4H92.7886V6.26465Z" fill="currentColor"/>
    <path d="M117.325 14.3732L115.469 14.3813L115.469 9.48777L109.736 15.221L108.378 13.863L114.111 8.12981L109.222 8.13383L109.226 6.27365L117.325 6.27365L117.325 14.3732Z" fill="currentColor"/>
  </symbol>

  <svg id="sun" viewBox="0 0 23 22" fill="none" xmlns="http://www.w3.org/2000/svg">
    <path d="M7.6168 14.5375C8.5918 15.5125 9.77096 16 11.1543 16C12.5376 16 13.7168 15.5125 14.6918 14.5375C15.6668 13.5625 16.1543 12.3833 16.1543 11C16.1543 9.61667 15.6668 8.4375 14.6918 7.4625C13.7168 6.4875 12.5376 6 11.1543 6C9.77096 6 8.5918 6.4875 7.6168 7.4625C6.6418 8.4375 6.1543 9.61667 6.1543 11C6.1543 12.3833 6.6418 13.5625 7.6168 14.5375Z" fill="white"/>
    <path d="M0.366797 11.5375C0.508464 11.6792 0.68763 11.75 0.904297 11.75H3.4043C3.62096 11.75 3.80013 11.6792 3.9418 11.5375C4.08346 11.3958 4.1543 11.2167 4.1543 11C4.1543 10.7833 4.08346 10.6042 3.9418 10.4625C3.80013 10.3208 3.62096 10.25 3.4043 10.25H0.904297C0.68763 10.25 0.508464 10.3208 0.366797 10.4625C0.22513 10.6042 0.154297 10.7833 0.154297 11C0.154297 11.2167 0.22513 11.3958 0.366797 11.5375Z" fill="white"/>
    <path d="M18.3668 11.5375C18.5085 11.6792 18.6876 11.75 18.9043 11.75H21.4043C21.621 11.75 21.8001 11.6792 21.9418 11.5375C22.0835 11.3958 22.1543 11.2167 22.1543 11C22.1543 10.7833 22.0835 10.6042 21.9418 10.4625C21.8001 10.3208 21.621 10.25 21.4043 10.25H18.9043C18.6876 10.25 18.5085 10.3208 18.3668 10.4625C18.2251 10.6042 18.1543 10.7833 18.1543 11C18.1543 11.2167 18.2251 11.3958 18.3668 11.5375Z" fill="white"/>
    <path d="M10.6168 3.7875C10.7585 3.92917 10.9376 4 11.1543 4C11.371 4 11.5501 3.92917 11.6918 3.7875C11.8335 3.64583 11.9043 3.46667 11.9043 3.25V0.75C11.9043 0.533333 11.8335 0.354167 11.6918 0.2125C11.5501 0.0708333 11.371 0 11.1543 0C10.9376 0 10.7585 0.0708333 10.6168 0.2125C10.4751 0.354167 10.4043 0.533333 10.4043 0.75V3.25C10.4043 3.46667 10.4751 3.64583 10.6168 3.7875Z" fill="white"/>
    <path d="M10.6168 21.7875C10.7585 21.9292 10.9376 22 11.1543 22C11.371 22 11.5501 21.9292 11.6918 21.7875C11.8335 21.6458 11.9043 21.4667 11.9043 21.25V18.75C11.9043 18.5333 11.8335 18.3542 11.6918 18.2125C11.5501 18.0708 11.371 18 11.1543 18C10.9376 18 10.7585 18.0708 10.6168 18.2125C10.4751 18.3542 10.4043 18.5333 10.4043 18.75V21.25C10.4043 21.4667 10.4751 21.6458 10.6168 21.7875Z" fill="white"/>
    <path d="M3.7293 4.65L5.1543 6.05C5.3043 6.18333 5.48346 6.25 5.6918 6.25C5.90013 6.25 6.07096 6.175 6.2043 6.025C6.33763 5.89167 6.4043 5.725 6.4043 5.525C6.4043 5.325 6.33763 5.15 6.2043 5L4.8043 3.575C4.6543 3.425 4.47513 3.35 4.2668 3.35C4.05846 3.35 3.8793 3.425 3.7293 3.575C3.59596 3.725 3.52513 3.90417 3.5168 4.1125C3.50846 4.32083 3.5793 4.5 3.7293 4.65Z" fill="white"/>
    <path d="M16.1043 17L17.5043 18.425C17.6543 18.575 17.8335 18.65 18.0418 18.65C18.2501 18.65 18.4293 18.575 18.5793 18.425C18.7126 18.275 18.7835 18.0958 18.7918 17.8875C18.8001 17.6792 18.7293 17.5 18.5793 17.35L17.1543 15.95C17.0043 15.8 16.8293 15.725 16.6293 15.725C16.4293 15.725 16.2626 15.8 16.1293 15.95C15.9793 16.0833 15.9043 16.2542 15.9043 16.4625C15.9043 16.6708 15.971 16.85 16.1043 17Z" fill="white"/>
    <path d="M15.8793 5.525C15.8793 5.725 15.9543 5.9 16.1043 6.05C16.2543 6.18333 16.4335 6.25 16.6418 6.25C16.8501 6.25 17.021 6.18333 17.1543 6.05L18.5793 4.65C18.7293 4.5 18.8043 4.32083 18.8043 4.1125C18.8043 3.90417 18.7293 3.725 18.5793 3.575C18.4293 3.44167 18.2501 3.37083 18.0418 3.3625C17.8335 3.35417 17.6543 3.425 17.5043 3.575L16.1043 5C15.9543 5.15 15.8793 5.325 15.8793 5.525Z" fill="white"/>
    <path d="M3.5043 17.8875C3.5043 18.0958 3.5793 18.275 3.7293 18.425C3.8793 18.5583 4.05846 18.6292 4.2668 18.6375C4.47513 18.6458 4.6543 18.575 4.8043 18.425L6.2043 17C6.3543 16.85 6.4293 16.675 6.4293 16.475C6.4293 16.275 6.3543 16.1 6.2043 15.95C6.0543 15.8 5.8793 15.725 5.6793 15.725C5.4793 15.725 5.3043 15.8 5.1543 15.95L3.7293 17.35C3.5793 17.5 3.5043 17.6792 3.5043 17.8875Z" fill="white"/>
  </svg>

  <symbol id="moon" viewBox="0 0 18 18" fill="none" xmlns="http://www.w3.org/2000/svg">
    <path d="M2.65365 15.346C4.42275 17.1153 6.57095 18 9.09824 18C11.3559 18 13.2767 17.3302 14.8605 15.9905C16.4442 14.6509 17.4636 12.9616 17.9185 10.9227C18.087 10.2149 17.9943 9.71363 17.6405 9.41874C17.2867 9.12385 16.7475 9.11122 16.023 9.38083C15.6523 9.51563 15.269 9.62095 14.8731 9.69678C14.4771 9.77261 14.0686 9.81052 13.6474 9.81052C12.131 9.81052 10.8421 9.27972 9.78061 8.21812C8.71914 7.15653 8.18841 5.86744 8.18841 4.35087C8.18841 3.9296 8.23054 3.51676 8.31478 3.11234C8.39902 2.70792 8.51696 2.31193 8.6686 1.92436C8.93818 1.28403 8.9466 0.778506 8.69387 0.407789C8.44114 0.0370716 7.96938 -0.0808837 7.27859 0.0539225C5.10512 0.508894 3.34866 1.52837 2.00919 3.11234C0.669732 4.69631 0 6.62573 0 8.90058C0 11.4282 0.884551 13.5767 2.65365 15.346Z" fill="currentColor"/>
  </symbol>

  <symbol id="dropdown-arrows" viewBox="0 0 19 18" fill="none" xmlns="http://www.w3.org/2000/svg">
    <path d="M9.1542 15.325C9.0917 15.325 9.02607 15.3125 8.95732 15.2875C8.88857 15.2625 8.82295 15.2188 8.76045 15.1562L5.0667 11.4625C4.9542 11.35 4.89795 11.2125 4.89795 11.05C4.89795 10.8875 4.9542 10.75 5.0667 10.6375C5.1792 10.525 5.31045 10.4688 5.46045 10.4688C5.61045 10.4688 5.7417 10.525 5.8542 10.6375L9.1542 13.9375L12.4542 10.6375C12.5667 10.525 12.7011 10.4688 12.8573 10.4688C13.0136 10.4688 13.1479 10.525 13.2604 10.6375C13.3729 10.75 13.4292 10.8844 13.4292 11.0406C13.4292 11.1969 13.3729 11.3313 13.2604 11.4438L9.54795 15.1562C9.48545 15.2188 9.42295 15.2625 9.36045 15.2875C9.29795 15.3125 9.2292 15.325 9.1542 15.325Z" fill="currentColor"/>
    <path d="M9.15439 2.675C9.2169 2.675 9.28252 2.6875 9.35127 2.7125C9.42002 2.7375 9.48564 2.78125 9.54814 2.84375L13.2419 6.5375C13.3544 6.65 13.4106 6.7875 13.4106 6.95C13.4106 7.1125 13.3544 7.25 13.2419 7.3625C13.1294 7.475 12.9981 7.53125 12.8481 7.53125C12.6981 7.53125 12.5669 7.475 12.4544 7.3625L9.15439 4.0625L5.85439 7.3625C5.74189 7.475 5.60752 7.53125 5.45127 7.53125C5.29502 7.53125 5.16064 7.475 5.04814 7.3625C4.93564 7.25 4.87939 7.11562 4.87939 6.95937C4.87939 6.80312 4.93564 6.66875 5.04814 6.55625L8.76065 2.84375C8.82315 2.78125 8.88564 2.7375 8.94815 2.7125C9.01065 2.6875 9.07939 2.675 9.15439 2.675Z" fill="currentColor"/>
  </symbol>

</svg>
