<svg width="576" height="330" viewBox="0 0 576 330" fill="none" xmlns="http://www.w3.org/2000/svg">
<path d="M391.1 112.5C391.1 122.858 386.885 132.233 380.061 139.013C373.238 145.8 363.813 150 353.4 150C342.987 150 333.562 154.192 326.746 160.98C319.922 167.767 315.7 177.142 315.7 187.5C315.7 197.858 311.485 207.233 304.661 214.013C297.838 220.8 288.413 225 278 225C267.587 225 258.162 220.8 251.346 214.013C244.522 207.233 240.3 197.858 240.3 187.5C240.3 177.142 244.522 167.767 251.346 160.98C258.162 154.192 267.587 150 278 150C288.413 150 297.838 145.8 304.661 139.013C311.485 132.233 315.7 122.858 315.7 112.5C315.7 91.785 298.826 75 278 75C267.587 75 258.162 70.8 251.346 64.0125C244.522 57.2325 240.3 47.8575 240.3 37.5C240.3 27.1425 244.522 17.7675 251.346 10.98C258.162 4.1925 267.587 0 278 0C298.826 0 315.7 16.785 315.7 37.5C315.7 47.8575 319.922 57.2325 326.746 64.0125C333.562 70.8 342.987 75 353.4 75C374.226 75 391.1 91.785 391.1 112.5Z" fill="#F44250"/>
<path d="M240.3 112.5C240.3 91.7893 223.421 75 202.6 75C181.779 75 164.9 91.7893 164.9 112.5C164.9 133.211 181.779 150 202.6 150C223.421 150 240.3 133.211 240.3 112.5Z" fill="white"/>
<path d="M164.9 187.5C164.9 166.789 148.021 150 127.2 150C106.379 150 89.5 166.789 89.5 187.5C89.5 208.211 106.379 225 127.2 225C148.021 225 164.9 208.211 164.9 187.5Z" fill="white"/>
<path d="M466.5 187.5C466.5 166.789 449.621 150 428.8 150C407.979 150 391.1 166.789 391.1 187.5C391.1 208.211 407.979 225 428.8 225C449.621 225 466.5 208.211 466.5 187.5Z" fill="white"/>
<g clip-path="url(#clip0_169_2552)">
<path d="M43.7966 328.709C42.3988 326.878 41.5334 322.475 41.0009 315.272C40.4588 307.642 37.0164 305.165 30.2361 305.165H16.5615V328.7H0.5V261H33.2411C50.7956 261 59.4112 269.171 59.4112 282.181C59.4112 292.174 53.0589 298.409 44.7666 299.481C51.9843 300.876 56.0734 305.07 56.8246 313.023C57.7946 323.016 58.1179 326.242 60.3812 328.709H43.7966ZM30.6545 292.601C39.1655 292.601 43.3592 290.134 43.3592 283.462C43.3592 277.446 39.156 274.115 30.6545 274.115H16.5425V292.601H30.6545Z" fill="white"/>
<path d="M110.601 313.023C108.128 323.879 99.6172 330 87.1218 330C71.9351 330 61.1704 320.757 61.1704 305.602C61.1704 290.447 72.1539 279.704 86.7985 279.704C102.632 279.704 110.924 290.56 110.924 303.561V308.287H76.4616C76.8896 314.626 81.6348 318.28 87.6638 318.28C93.0462 318.28 96.384 316.24 98.1147 311.836L110.61 313.023H110.601ZM95.9561 300.012C95.6328 295.286 92.6183 290.987 86.6938 290.987C80.4461 290.987 77.5362 294.964 76.6804 300.012H95.9561Z" fill="white"/>
<path d="M160.364 315.708C160.364 318.176 161.438 319.257 163.378 319.257C164.776 319.257 165.965 319.039 167.363 318.394V326.669C164.995 328.387 161.981 329.782 157.245 329.782C151.539 329.782 147.336 326.773 145.938 321.402C143.247 326.887 137.322 329.782 129.896 329.782C120.31 329.782 114.281 324.942 114.281 316.781C114.281 307.642 121.175 303.78 131.731 301.739L145.082 299.376V298.513C145.082 293.996 142.819 291.31 138.083 291.31C133.347 291.31 131.303 294.1 130.438 298.076L116.012 297.004C117.628 286.793 125.274 279.704 138.949 279.704C151.444 279.704 160.383 285.294 160.383 298.295V315.708H160.364ZM145.073 307.538L137.208 309.151C132.359 310.119 129.344 311.295 129.344 315.063C129.344 317.853 131.503 319.58 134.84 319.58C140.546 319.58 145.073 315.281 145.073 308.515V307.547V307.538Z" fill="white"/>
<path d="M192.525 279.704C206.742 279.704 214.711 289.052 215.89 300.449L202.966 301.417C201.892 294.973 198.44 291.528 192.63 291.528C186.819 291.528 182.397 295.723 182.397 304.852C182.397 313.981 186.601 318.176 192.63 318.176C198.659 318.176 201.892 314.626 202.966 308.183L215.89 309.255C214.701 320.757 206.732 330 192.525 330C177.557 330 166.678 320.007 166.678 304.852C166.678 289.697 177.557 279.704 192.525 279.704Z" fill="white"/>
<path d="M223.126 291.851H216.451V282.39L219.893 281.849C224.629 280.985 226.036 278.518 227.215 274.115L228.832 267.775H238.418V280.995H251.122V291.851H238.418V311.732C238.418 315.813 240.357 317.54 244.019 317.54C246.387 317.54 248.869 316.894 251.769 315.604V325.815C248.212 328.5 244.123 330.009 237.876 330.009C230.125 330.009 223.126 326.678 223.126 315.926V291.851Z" fill="white"/>
<path d="M365.968 330C350.677 330 340.226 319.684 340.226 304.852C340.226 290.019 350.667 279.704 365.968 279.704C381.269 279.704 391.815 290.124 391.815 304.852C391.815 319.58 381.259 330 365.968 330ZM365.968 318.289C372.748 318.289 376.086 312.804 376.086 304.852C376.086 296.9 372.748 291.414 365.968 291.414C359.188 291.414 355.955 296.9 355.955 304.852C355.955 312.804 359.074 318.289 365.968 318.289Z" fill="white"/>
<path d="M427.77 280.995H443.385V328.71H427.77V321.298C425.184 326.669 419.801 330 412.584 330C399.66 330 395.571 321.184 395.571 310.983V280.995H411.081V307.215C411.081 313.982 413.345 317.749 419.05 317.749C424.756 317.749 427.77 312.909 427.77 305.279V280.995Z" fill="white"/>
<path d="M454.663 291.851H447.987V282.39L451.43 281.849C456.165 280.985 457.573 278.518 458.752 274.115L460.369 267.775H469.954V280.995H482.659V291.851H469.954V311.732C469.954 315.813 471.894 317.54 475.555 317.54C477.923 317.54 480.405 316.894 483.305 315.604V325.815C479.749 328.5 475.66 330.009 469.412 330.009C461.662 330.009 454.663 326.678 454.663 315.926V291.851Z" fill="white"/>
<path d="M535.789 313.023C533.316 323.879 524.805 330 512.31 330C497.123 330 486.358 320.757 486.358 305.602C486.358 290.447 497.342 279.704 511.986 279.704C527.82 279.704 536.112 290.56 536.112 303.561V308.287H501.65C502.078 314.626 506.823 318.28 512.852 318.28C518.234 318.28 521.572 316.24 523.293 311.836L535.789 313.023ZM521.144 300.012C520.821 295.286 517.806 290.987 511.882 290.987C505.634 290.987 502.724 294.964 501.868 300.012H521.144Z" fill="white"/>
<path d="M574.53 296.15C572.058 294.755 569.68 294.214 566.343 294.214C559.886 294.214 555.578 297.867 555.578 306.143V328.709H540.068V280.995H555.578V289.697C557.413 284.326 562.358 279.704 568.825 279.704C571.734 279.704 574.207 280.568 575.5 281.64L574.53 296.15Z" fill="white"/>
<path fill-rule="evenodd" clip-rule="evenodd" d="M337.345 328.87C337.345 324.856 337.345 321.184 336.736 313.336C335.975 305.459 331.867 301.464 324.84 300.06C333.17 298.978 339.332 292.506 339.332 282.579C339.332 269.303 330.574 260.99 312.934 260.99H280.221V274.826H309.682C317.47 274.826 321.369 278.157 321.369 283.661C321.369 289.924 317.47 292.287 309.682 292.287H280.221V306.427H308.816C314.978 306.427 318.335 308.154 318.877 315.926C319.286 321.231 319.239 323.86 319.182 326.384C319.162 327.191 319.153 327.997 319.153 328.87H337.335H337.345Z" fill="white"/>
<path fill-rule="evenodd" clip-rule="evenodd" d="M280.221 316.929V328.88H301.947V320.725C301.947 319.311 301.253 316.929 298.038 316.929H280.221Z" fill="white"/>
</g>
<defs>
<clipPath id="clip0_169_2552">
<rect width="575" height="69" fill="white" transform="translate(0.5 261)"/>
</clipPath>
</defs>
</svg>
