<svg width="231" height="27" viewBox="0 0 231 27" fill="none" xmlns="http://www.w3.org/2000/svg">
<path d="M68.9316 23.2114C68.2602 22.478 68.1642 21.5852 67.8765 18.5878C67.6527 16.2601 66.4377 15.0803 64.3594 14.6658C66.8214 14.3469 68.6438 12.4337 68.6438 9.50013C68.6438 5.57807 66.054 3.1228 60.8423 3.1228H50.6748V23.2114H56.0144V16.5471H59.6273C61.4498 16.5471 62.441 17.0573 62.6009 19.3531C62.7607 21.4257 63.0165 22.6693 63.4322 23.2114H68.9316ZM56.0144 12.3699V7.45938H59.8831C62.1852 7.45938 63.3363 8.32032 63.3363 9.94654C63.3363 11.796 62.1852 12.3699 59.8831 12.3699H56.0144Z" fill="#121212"/>
<path d="M80.7885 18.1414C80.3089 19.2574 79.4136 19.7357 78.0068 19.7357C76.4401 19.7357 75.1612 18.9067 75.0333 17.1529H85.0409V15.718C85.0409 11.8597 82.515 8.6073 77.751 8.6073C73.3067 8.6073 69.9815 11.8278 69.9815 16.3239C69.9815 20.8518 73.2428 23.594 77.815 23.594C81.5878 23.594 84.2096 21.7765 84.945 18.524L80.7885 18.1414ZM75.0972 14.6658C75.2891 13.3265 76.0244 12.3061 77.6871 12.3061C79.2218 12.3061 80.0531 13.3903 80.117 14.6658H75.0972Z" fill="#121212"/>
<path d="M95.3906 17.2805C95.3906 19.1299 94.2075 20.214 92.7368 20.214C91.8735 20.214 91.298 19.7357 91.298 19.0023C91.298 18.0776 92.0334 17.695 93.2803 17.4399L95.3906 17.0573V17.2805ZM100.474 14.1875C100.474 10.2335 97.6926 8.6073 93.9198 8.6073C89.6354 8.6073 87.3013 10.7756 86.8537 13.9005L91.6497 14.2193C91.8735 13.1671 92.449 12.4337 93.6001 12.4337C94.847 12.4337 95.3906 13.1352 95.3906 14.315V14.5382L91.3939 15.2078C88.2925 15.7499 86.3101 16.9297 86.3101 19.672C86.3101 22.0953 88.1326 23.5302 90.9143 23.5302C93.1844 23.5302 94.815 22.6693 95.6463 21.0112C96.1259 22.6374 97.5008 23.5302 99.2593 23.5302C100.73 23.5302 101.753 23.1157 102.489 22.6055V19.8633C102.073 20.0227 101.753 20.0865 101.338 20.0865C100.794 20.0865 100.474 19.7676 100.474 19.0342V14.1875Z" fill="#121212"/>
<path d="M103.079 16.1007C103.079 20.6286 106.372 23.594 110.88 23.594C115.165 23.594 117.563 20.8518 117.915 17.408L113.662 17.0891C113.31 18.8429 112.447 19.7038 110.944 19.7038C109.378 19.7038 108.291 18.6516 108.291 16.1007C108.291 13.5497 109.378 12.4975 110.944 12.4975C112.447 12.4975 113.31 13.3265 113.662 15.0803L117.915 14.7933C117.563 11.3814 115.165 8.6073 110.88 8.6073C106.372 8.6073 103.079 11.6046 103.079 16.1007Z" fill="#121212"/>
<path d="M120.407 19.2574C120.407 22.6055 122.677 23.594 125.075 23.594C127.025 23.594 128.272 23.1157 129.36 22.3185V18.9705C128.496 19.3212 127.793 19.4488 127.153 19.4488C126.098 19.4488 125.523 18.9704 125.523 17.7588V12.5612H129.232V8.98994H125.523V5.06789H122.261L121.782 6.91731C121.43 8.22466 120.983 8.98994 119.544 9.21315L118.489 9.37258V12.5612H120.407V19.2574Z" fill="#121212"/>
<path d="M155.485 23.2114C154.813 22.478 154.717 21.5852 154.429 18.5878C154.206 16.2601 152.991 15.0803 150.912 14.6658C153.374 14.3469 155.197 12.4337 155.197 9.50013C155.197 5.57807 152.607 3.1228 147.395 3.1228H137.228V23.2114H142.567V16.5471H146.18C148.003 16.5471 148.994 17.0573 149.154 19.3531C149.314 21.4257 149.569 22.6693 149.985 23.2114H155.485ZM142.567 12.3699V7.45938H146.436C148.738 7.45938 149.889 8.32032 149.889 9.94654C149.889 11.796 148.738 12.3699 146.436 12.3699H142.567Z" fill="#121212"/>
<path d="M161.746 16.1007C161.746 13.9643 162.513 12.4975 164.336 12.4975C166.126 12.4975 166.926 13.9643 166.926 16.1007C166.926 18.2371 166.126 19.7038 164.336 19.7038C162.513 19.7038 161.746 18.2371 161.746 16.1007ZM172.137 16.1007C172.137 11.7003 168.972 8.6073 164.336 8.6073C159.668 8.6073 156.534 11.7003 156.534 16.1007C156.534 20.5329 159.668 23.594 164.336 23.594C168.972 23.594 172.137 20.5329 172.137 16.1007Z" fill="#121212"/>
<path d="M183.594 15.9731C183.594 18.1414 182.955 19.5444 181.324 19.5444C179.757 19.5444 179.214 18.4922 179.214 16.579V8.98994H174.034V17.9501C174.034 20.9155 175.217 23.594 179.118 23.594C181.26 23.594 182.827 22.6693 183.594 21.075V23.2114H188.774V8.98994H183.594V15.9731Z" fill="#121212"/>
<path d="M192.097 19.2574C192.097 22.6055 194.367 23.594 196.765 23.594C198.716 23.594 199.963 23.1157 201.05 22.3185V18.9705C200.187 19.3212 199.483 19.4488 198.844 19.4488C197.789 19.4488 197.213 18.9704 197.213 17.7588V12.5612H200.922V8.98994H197.213V5.06789H193.952L193.472 6.91731C193.12 8.22466 192.673 8.98994 191.234 9.21315L190.179 9.37258V12.5612H192.097V19.2574Z" fill="#121212"/>
<path d="M213.085 18.1414C212.605 19.2574 211.71 19.7357 210.303 19.7357C208.736 19.7357 207.457 18.9067 207.329 17.1529H217.337V15.718C217.337 11.8597 214.811 8.6073 210.047 8.6073C205.603 8.6073 202.278 11.8278 202.278 16.3239C202.278 20.8518 205.539 23.594 210.111 23.594C213.884 23.594 216.506 21.7765 217.241 18.524L213.085 18.1414ZM207.393 14.6658C207.585 13.3265 208.321 12.3061 209.983 12.3061C211.518 12.3061 212.349 13.3903 212.413 14.6658H207.393Z" fill="#121212"/>
<path d="M230.5 9.14937C230.149 8.86239 229.381 8.6073 228.518 8.6073C226.632 8.6073 225.129 9.91465 224.617 11.509V8.98994H219.437V23.2114H224.617V16.7065C224.617 14.315 225.8 13.4222 227.719 13.4222C228.71 13.4222 229.477 13.6135 230.181 14.028L230.5 9.14937Z" fill="#121212"/>
<path d="M30.3153 9.28068C29.218 8.93632 28.6514 9.05242 27.5004 8.92687C25.7211 8.73317 25.0123 8.03908 24.7116 6.25275C24.5433 5.25555 24.742 3.79552 24.3124 2.89159C23.4908 1.16802 21.5684 0.395021 19.637 0.836225C18.0063 1.20928 16.6495 2.83599 16.5743 4.50575C16.4884 6.41225 17.5767 8.03897 19.4454 8.60033C20.3333 8.86757 21.2766 9.00208 22.2038 9.07023C23.9043 9.19399 24.035 10.1375 24.495 10.9141C24.785 11.4037 25.066 11.8862 25.066 13.3461C25.066 14.806 24.7832 15.2885 24.495 15.7781C24.035 16.5529 23.4675 17.0604 21.7671 17.186C20.8398 17.2541 19.8947 17.3887 19.0087 17.6559C17.1399 18.2191 16.0516 19.844 16.1375 21.7505C16.2127 23.4202 17.5695 25.0469 19.2002 25.42C21.1316 25.863 23.0541 25.0882 23.8757 23.3646C24.3071 22.4607 24.5433 21.4366 24.7116 20.4394C25.0141 18.6531 25.7229 17.959 27.5004 17.7653C28.6514 17.6398 29.8425 17.7653 30.9211 17.1537C32.0608 16.3225 33.079 15.075 33.079 13.3461C33.079 11.6171 31.9817 9.80438 30.3153 9.28068Z" fill="#121212"/>
<path d="M12.0606 17.3979C9.81778 17.3979 7.98828 15.5684 7.98828 13.3255C7.98828 11.0827 9.81778 9.25317 12.0606 9.25317C14.3035 9.25317 16.133 11.0827 16.133 13.3255C16.133 15.5666 14.3017 17.3979 12.0606 17.3979Z" fill="#121212"/>
<path d="M4.55796 25.674C2.31873 25.6686 0.494632 23.8319 0.500012 21.5873C0.505415 19.3462 2.34209 17.5222 4.58671 17.5293C6.82774 17.5347 8.65184 19.3714 8.64467 21.616C8.63926 23.8553 6.80258 25.6794 4.55796 25.674Z" fill="#121212"/>
<path d="M34.8168 25.6739C32.5704 25.6864 30.7266 23.8696 30.7139 21.6322C30.7014 19.3858 32.5183 17.542 34.7557 17.5294C37.002 17.5168 38.8458 19.3337 38.8585 21.5711C38.871 23.8157 37.0541 25.6613 34.8168 25.6739Z" fill="#121212"/>
</svg>
