<svg width="151" height="78" viewBox="0 0 151 78" fill="none" xmlns="http://www.w3.org/2000/svg">
<path d="M96.7384 18.7257C94.3953 17.9903 93.1853 18.2382 90.7275 17.9701C86.9281 17.5565 85.4144 16.0744 84.7723 12.2598C84.413 10.1304 84.8372 7.01263 83.9199 5.08238C82.1654 1.40187 78.0602 -0.248803 73.9359 0.693346C70.4537 1.48996 67.5564 4.96365 67.3959 8.52926C67.2124 12.6004 69.5364 16.0741 73.5269 17.2729C75.4228 17.8435 77.4372 18.1307 79.4172 18.2763C83.0484 18.5405 83.3274 20.5553 84.3098 22.2137C84.929 23.2592 85.5291 24.2894 85.5291 27.407C85.5291 30.5245 84.9252 31.5547 84.3098 32.6003C83.3274 34.2548 82.1157 35.3386 78.4845 35.6067C76.5045 35.7522 74.4863 36.0395 72.5943 36.6101C68.6038 37.8127 66.2798 41.2826 66.4632 45.3537C66.6238 48.9193 69.5211 52.393 73.0033 53.1896C77.1276 54.1356 81.2328 52.4811 82.9872 48.8006C83.9084 46.8703 84.413 44.6835 84.7723 42.5541C85.4183 38.7395 86.9319 37.2574 90.7275 36.8438C93.1853 36.5757 95.7289 36.8438 98.032 35.5378C100.466 33.7628 102.64 31.099 102.64 27.407C102.64 23.715 100.297 19.844 96.7384 18.7257Z" fill="#F44250"/>
<path d="M57.7566 36.0592C52.9673 36.0592 49.0605 32.1525 49.0605 27.3631C49.0605 22.5737 52.9673 18.667 57.7566 18.667C62.546 18.667 66.4527 22.5737 66.4527 27.3631C66.4527 32.1486 62.5422 36.0592 57.7566 36.0592Z" fill="white"/>
<path d="M41.7367 53.732C36.955 53.7205 33.0598 49.7985 33.0713 45.0053C33.0829 40.2198 37.0049 36.3246 41.7981 36.3399C46.5836 36.3514 50.4787 40.2735 50.4634 45.0667C50.4519 49.8483 46.5298 53.7435 41.7367 53.732Z" fill="white"/>
<path d="M106.352 53.7319C101.555 53.7587 97.618 49.8789 97.591 45.1012C97.5642 40.3043 101.444 36.367 106.222 36.34C111.019 36.3133 114.956 40.193 114.983 44.9707C115.01 49.7638 111.13 53.7049 106.352 53.7319Z" fill="white"/>
<path d="M15.3807 77.2713C14.8334 76.6879 14.7552 75.9776 14.5207 73.5931C14.3382 71.7413 13.3479 70.8027 11.654 70.473C13.6607 70.2193 15.1461 68.6972 15.1461 66.3635C15.1461 63.2433 13.0352 61.29 8.78731 61.29H0.5V77.2713H4.85214V71.9696H7.797C9.28247 71.9696 10.0903 72.3755 10.2207 74.2019C10.351 75.8508 10.5594 76.8401 10.8982 77.2713H15.3807ZM4.85214 68.6465V64.74H8.00549C9.88186 64.74 10.82 65.4249 10.82 66.7186C10.82 68.1899 9.88186 68.6465 8.00549 68.6465H4.85214Z" fill="white"/>
<path d="M25.0449 73.238C24.654 74.1258 23.9243 74.5063 22.7776 74.5063C21.5007 74.5063 20.4582 73.8468 20.354 72.4516H28.511V71.3101C28.511 68.2406 26.4522 65.6532 22.5692 65.6532C18.9467 65.6532 16.2364 68.2153 16.2364 71.792C16.2364 75.3942 18.8946 77.5758 22.6213 77.5758C25.6964 77.5758 27.8334 76.1298 28.4328 73.5424L25.0449 73.238ZM20.4061 70.473C20.5625 69.4075 21.1619 68.5958 22.517 68.5958C23.768 68.5958 24.4455 69.4583 24.4977 70.473H20.4061Z" fill="white"/>
<path d="M36.9467 72.5531C36.9467 74.0244 35.9825 74.8868 34.7837 74.8868C34.0801 74.8868 33.611 74.5063 33.611 73.9229C33.611 73.1872 34.2104 72.8828 35.2267 72.6799L36.9467 72.3755V72.5531ZM41.0904 70.0924C41.0904 66.9469 38.8231 65.6532 35.7479 65.6532C32.2558 65.6532 30.3534 67.3782 29.9885 69.8641L33.8976 70.1178C34.0801 69.2807 34.5492 68.6973 35.4873 68.6973C36.5037 68.6973 36.9467 69.2553 36.9467 70.1939V70.3715L33.6891 70.9042C31.1613 71.3354 29.5455 72.274 29.5455 74.4556C29.5455 76.3835 31.031 77.525 33.2982 77.525C35.1485 77.525 36.4776 76.8401 37.1552 75.521C37.5461 76.8147 38.6667 77.525 40.1001 77.525C41.2989 77.525 42.1328 77.1952 42.7322 76.7894V74.6078C42.3934 74.7346 42.1328 74.7854 41.794 74.7854C41.351 74.7854 41.0904 74.5317 41.0904 73.9483V70.0924Z" fill="white"/>
<path d="M43.2133 71.6145C43.2133 75.2166 45.8976 77.5758 49.5721 77.5758C53.0643 77.5758 55.0188 75.3942 55.3055 72.6545L51.8394 72.4009C51.5528 73.796 50.8491 74.481 49.6243 74.481C48.3473 74.481 47.4612 73.6438 47.4612 71.6145C47.4612 69.5851 48.3473 68.748 49.6243 68.748C50.8491 68.748 51.5528 69.4075 51.8394 70.8027L55.3055 70.5744C55.0188 67.8601 53.0643 65.6532 49.5721 65.6532C45.8976 65.6532 43.2133 68.0377 43.2133 71.6145Z" fill="white"/>
<path d="M57.337 74.1258C57.337 76.7894 59.1873 77.5758 61.1419 77.5758C62.7316 77.5758 63.748 77.1952 64.634 76.5611V73.8975C63.9304 74.1766 63.357 74.278 62.8358 74.278C61.9758 74.278 61.5067 73.8975 61.5067 72.9336V68.7987H64.5298V65.9576H61.5067V62.8374H58.8485L58.4576 64.3087C58.171 65.3488 57.8061 65.9576 56.6334 66.1352L55.7734 66.262V68.7987H57.337V74.1258Z" fill="white"/>
<path d="M85.9279 77.2713C85.3806 76.6879 85.3024 75.9776 85.0679 73.5931C84.8854 71.7413 83.8951 70.8027 82.2012 70.473C84.2079 70.2193 85.6933 68.6972 85.6933 66.3635C85.6933 63.2433 83.5824 61.29 79.3345 61.29H71.0472V77.2713H75.3993V71.9696H78.3442C79.8297 71.9696 80.6375 72.3755 80.7679 74.2019C80.8982 75.8508 81.1066 76.8401 81.4454 77.2713H85.9279ZM75.3993 68.6465V64.74H78.5527C80.4291 64.74 81.3672 65.4249 81.3672 66.7186C81.3672 68.1899 80.4291 68.6465 78.5527 68.6465H75.3993Z" fill="white"/>
<path d="M91.0315 71.6145C91.0315 69.9149 91.657 68.748 93.1424 68.748C94.6018 68.748 95.2533 69.9149 95.2533 71.6145C95.2533 73.3141 94.6018 74.481 93.1424 74.481C91.657 74.481 91.0315 73.3141 91.0315 71.6145ZM99.5012 71.6145C99.5012 68.1138 96.9212 65.6532 93.1424 65.6532C89.3376 65.6532 86.7836 68.1138 86.7836 71.6145C86.7836 75.1405 89.3376 77.5758 93.1424 77.5758C96.9212 77.5758 99.5012 75.1405 99.5012 71.6145Z" fill="white"/>
<path d="M108.839 71.513C108.839 73.238 108.318 74.3541 106.989 74.3541C105.712 74.3541 105.269 73.517 105.269 71.995V65.9576H101.047V73.0858C101.047 75.4449 102.011 77.5758 105.191 77.5758C106.937 77.5758 108.214 76.8401 108.839 75.5718V77.2713H113.061V65.9576H108.839V71.513Z" fill="white"/>
<path d="M115.77 74.1258C115.77 76.7894 117.62 77.5758 119.575 77.5758C121.165 77.5758 122.181 77.1952 123.067 76.5611V73.8975C122.363 74.1766 121.79 74.278 121.269 74.278C120.409 74.278 119.94 73.8975 119.94 72.9336V68.7987H122.963V65.9576H119.94V62.8374H117.282L116.891 64.3087C116.604 65.3488 116.239 65.9576 115.066 66.1352L114.206 66.262V68.7987H115.77V74.1258Z" fill="white"/>
<path d="M132.876 73.238C132.485 74.1258 131.756 74.5063 130.609 74.5063C129.332 74.5063 128.29 73.8468 128.185 72.4516H136.342V71.3101C136.342 68.2406 134.284 65.6532 130.401 65.6532C126.778 65.6532 124.068 68.2153 124.068 71.792C124.068 75.3942 126.726 77.5758 130.453 77.5758C133.528 77.5758 135.665 76.1298 136.264 73.5424L132.876 73.238ZM128.237 70.473C128.394 69.4075 128.993 68.5958 130.348 68.5958C131.599 68.5958 132.277 69.4583 132.329 70.473H128.237Z" fill="white"/>
<path d="M147.071 66.0844C146.785 65.8561 146.159 65.6532 145.456 65.6532C143.918 65.6532 142.693 66.6932 142.276 67.9616V65.9576H138.054V77.2713H142.276V72.0964C142.276 70.1939 143.241 69.4836 144.804 69.4836C145.612 69.4836 146.237 69.6358 146.811 69.9656L147.071 66.0844Z" fill="white"/>
</svg>
