<svg width="231" height="26" viewBox="0 0 231 26" fill="none" xmlns="http://www.w3.org/2000/svg">
<path d="M68.9316 22.4992C68.2602 21.7658 68.1642 20.873 67.8765 17.8757C67.6527 15.5479 66.4377 14.3681 64.3594 13.9536C66.8214 13.6347 68.6438 11.7215 68.6438 8.78797C68.6438 4.86591 66.054 2.41064 60.8423 2.41064H50.6748V22.4992H56.0144V15.8349H59.6273C61.4498 15.8349 62.441 16.3451 62.6009 18.6409C62.7607 20.7136 63.0165 21.9571 63.4322 22.4992H68.9316ZM56.0144 11.6578V6.74722H59.8831C62.1852 6.74722 63.3363 7.60816 63.3363 9.23438C63.3363 11.0838 62.1852 11.6578 59.8831 11.6578H56.0144Z" fill="white"/>
<path d="M80.7885 17.4292C80.3089 18.5453 79.4136 19.0236 78.0068 19.0236C76.4401 19.0236 75.1612 18.1945 75.0333 16.4408H85.0409V15.0059C85.0409 11.1476 82.515 7.89514 77.751 7.89514C73.3067 7.89514 69.9815 11.1157 69.9815 15.6117C69.9815 20.1396 73.2428 22.8818 77.815 22.8818C81.5878 22.8818 84.2096 21.0643 84.945 17.8119L80.7885 17.4292ZM75.0972 13.9536C75.2891 12.6144 76.0244 11.594 77.6871 11.594C79.2218 11.594 80.0531 12.6781 80.117 13.9536H75.0972Z" fill="white"/>
<path d="M95.3906 16.5683C95.3906 18.4177 94.2075 19.5019 92.7368 19.5019C91.8735 19.5019 91.298 19.0236 91.298 18.2902C91.298 17.3655 92.0334 16.9828 93.2803 16.7277L95.3906 16.3451V16.5683ZM100.474 13.4753C100.474 9.52136 97.6926 7.89514 93.9198 7.89514C89.6354 7.89514 87.3013 10.0634 86.8537 13.1883L91.6497 13.5072C91.8735 12.4549 92.449 11.7215 93.6001 11.7215C94.847 11.7215 95.3906 12.423 95.3906 13.6028V13.8261L91.3939 14.4957C88.2925 15.0377 86.3101 16.2175 86.3101 18.9598C86.3101 21.3832 88.1326 22.8181 90.9143 22.8181C93.1844 22.8181 94.815 21.9571 95.6463 20.299C96.1259 21.9253 97.5008 22.8181 99.2593 22.8181C100.73 22.8181 101.753 22.4036 102.489 21.8934V19.1511C102.073 19.3105 101.753 19.3743 101.338 19.3743C100.794 19.3743 100.474 19.0555 100.474 18.3221V13.4753Z" fill="white"/>
<path d="M103.079 15.3885C103.079 19.9164 106.372 22.8818 110.88 22.8818C115.165 22.8818 117.563 20.1396 117.915 16.6958L113.662 16.377C113.31 18.1307 112.447 18.9917 110.944 18.9917C109.378 18.9917 108.291 17.9394 108.291 15.3885C108.291 12.8376 109.378 11.7853 110.944 11.7853C112.447 11.7853 113.31 12.6144 113.662 14.3681L117.915 14.0811C117.563 10.6693 115.165 7.89514 110.88 7.89514C106.372 7.89514 103.079 10.8925 103.079 15.3885Z" fill="white"/>
<path d="M120.407 18.5453C120.407 21.8934 122.677 22.8818 125.075 22.8818C127.025 22.8818 128.272 22.4036 129.36 21.6064V18.2583C128.496 18.609 127.793 18.7366 127.153 18.7366C126.098 18.7366 125.523 18.2583 125.523 17.0466V11.8491H129.232V8.27778H125.523V4.35573H122.261L121.782 6.20515C121.43 7.5125 120.983 8.27778 119.544 8.50099L118.489 8.66042V11.8491H120.407V18.5453Z" fill="white"/>
<path d="M155.485 22.4992C154.813 21.7658 154.717 20.873 154.429 17.8757C154.206 15.5479 152.991 14.3681 150.912 13.9536C153.374 13.6347 155.197 11.7215 155.197 8.78797C155.197 4.86591 152.607 2.41064 147.395 2.41064H137.228V22.4992H142.567V15.8349H146.18C148.003 15.8349 148.994 16.3451 149.154 18.6409C149.314 20.7136 149.569 21.9571 149.985 22.4992H155.485ZM142.567 11.6578V6.74722H146.436C148.738 6.74722 149.889 7.60816 149.889 9.23438C149.889 11.0838 148.738 11.6578 146.436 11.6578H142.567Z" fill="white"/>
<path d="M161.746 15.3885C161.746 13.2521 162.513 11.7853 164.336 11.7853C166.126 11.7853 166.926 13.2521 166.926 15.3885C166.926 17.5249 166.126 18.9917 164.336 18.9917C162.513 18.9917 161.746 17.5249 161.746 15.3885ZM172.137 15.3885C172.137 10.9881 168.972 7.89514 164.336 7.89514C159.668 7.89514 156.534 10.9881 156.534 15.3885C156.534 19.8207 159.668 22.8818 164.336 22.8818C168.972 22.8818 172.137 19.8207 172.137 15.3885Z" fill="white"/>
<path d="M183.594 15.2609C183.594 17.4292 182.955 18.8323 181.324 18.8323C179.757 18.8323 179.214 17.78 179.214 15.8668V8.27778H174.034V17.2379C174.034 20.2034 175.217 22.8818 179.118 22.8818C181.26 22.8818 182.827 21.9571 183.594 20.3628V22.4992H188.774V8.27778H183.594V15.2609Z" fill="white"/>
<path d="M192.097 18.5453C192.097 21.8934 194.367 22.8818 196.765 22.8818C198.716 22.8818 199.963 22.4036 201.05 21.6064V18.2583C200.187 18.609 199.483 18.7366 198.844 18.7366C197.789 18.7366 197.213 18.2583 197.213 17.0466V11.8491H200.922V8.27778H197.213V4.35573H193.952L193.472 6.20515C193.12 7.5125 192.673 8.27778 191.234 8.50099L190.179 8.66042V11.8491H192.097V18.5453Z" fill="white"/>
<path d="M213.085 17.4292C212.605 18.5453 211.71 19.0236 210.303 19.0236C208.736 19.0236 207.457 18.1945 207.329 16.4408H217.337V15.0059C217.337 11.1476 214.811 7.89514 210.047 7.89514C205.603 7.89514 202.278 11.1157 202.278 15.6117C202.278 20.1396 205.539 22.8818 210.111 22.8818C213.884 22.8818 216.506 21.0643 217.241 17.8119L213.085 17.4292ZM207.393 13.9536C207.585 12.6144 208.321 11.594 209.983 11.594C211.518 11.594 212.349 12.6781 212.413 13.9536H207.393Z" fill="white"/>
<path d="M230.5 8.43722C230.149 8.15024 229.381 7.89514 228.518 7.89514C226.632 7.89514 225.129 9.20249 224.617 10.7968V8.27778H219.437V22.4992H224.617V15.9943C224.617 13.6028 225.8 12.71 227.719 12.71C228.71 12.71 229.477 12.9013 230.181 13.3159L230.5 8.43722Z" fill="white"/>
<path d="M30.3153 8.56852C29.218 8.22416 28.6514 8.34026 27.5004 8.21471C25.7211 8.02101 25.0123 7.32692 24.7116 5.54059C24.5433 4.54339 24.742 3.08336 24.3124 2.17943C23.4908 0.455866 21.5684 -0.317137 19.637 0.124067C18.0063 0.497117 16.6495 2.12383 16.5743 3.79359C16.4884 5.70009 17.5767 7.32681 19.4454 7.88818C20.3333 8.15541 21.2766 8.28992 22.2038 8.35808C23.9043 8.48183 24.035 9.42534 24.495 10.2019C24.785 10.6916 25.066 11.174 25.066 12.6339C25.066 14.0938 24.7832 14.5763 24.495 15.0659C24.035 15.8407 23.4675 16.3483 21.7671 16.4738C20.8398 16.542 19.8947 16.6765 19.0087 16.9437C17.1399 17.5069 16.0516 19.1318 16.1375 21.0383C16.2127 22.7081 17.5695 24.3348 19.2002 24.7078C21.1316 25.1508 23.0541 24.376 23.8757 22.6525C24.3071 21.7485 24.5433 20.7245 24.7116 19.7273C25.0141 17.9409 25.7229 17.2468 27.5004 17.0531C28.6514 16.9276 29.8425 17.0531 30.9211 16.4416C32.0608 15.6103 33.079 14.3629 33.079 12.6339C33.079 10.905 31.9817 9.09222 30.3153 8.56852Z" fill="white"/>
<path d="M12.0606 16.6857C9.81778 16.6857 7.98828 14.8562 7.98828 12.6134C7.98828 10.3705 9.81778 8.54102 12.0606 8.54102C14.3035 8.54102 16.133 10.3705 16.133 12.6134C16.133 14.8544 14.3017 16.6857 12.0606 16.6857Z" fill="white"/>
<path d="M4.55796 24.9618C2.31873 24.9564 0.494632 23.1197 0.500012 20.8751C0.505415 18.6341 2.34209 16.81 4.58671 16.8172C6.82774 16.8226 8.65184 18.6592 8.64467 20.9039C8.63926 23.1431 6.80258 24.9672 4.55796 24.9618Z" fill="white"/>
<path d="M34.8168 24.9618C32.5704 24.9743 30.7266 23.1574 30.7139 20.92C30.7014 18.6737 32.5183 16.8298 34.7557 16.8172C37.002 16.8047 38.8458 18.6216 38.8585 20.8589C38.871 23.1035 37.0541 24.9491 34.8168 24.9618Z" fill="white"/>
</svg>
