<svg width="151" height="78" viewBox="0 0 151 78" fill="none" xmlns="http://www.w3.org/2000/svg">
<path d="M96.7384 18.5826C94.3953 17.8473 93.1853 18.0952 90.7275 17.8271C86.9281 17.4134 85.4144 15.9313 84.7723 12.1167C84.413 9.98733 84.8372 6.86957 83.9199 4.93931C82.1654 1.25881 78.0602 -0.391869 73.9359 0.550279C70.4537 1.34689 67.5564 4.82059 67.3959 8.3862C67.2124 12.4573 69.5364 15.931 73.5269 17.1298C75.4228 17.7004 77.4372 17.9877 79.4172 18.1332C83.0484 18.3975 83.3274 20.4123 84.3098 22.0706C84.929 23.1161 85.5291 24.1464 85.5291 27.2639C85.5291 30.3814 84.9252 31.4116 84.3098 32.4572C83.3274 34.1117 82.1157 35.1956 78.4845 35.4636C76.5045 35.6092 74.4863 35.8964 72.5943 36.4671C68.6038 37.6697 66.2798 41.1395 66.4632 45.2107C66.6238 48.7763 69.5211 52.25 73.0033 53.0466C77.1276 53.9925 81.2328 52.338 82.9872 48.6575C83.9084 46.7273 84.413 44.5404 84.7723 42.411C85.4183 38.5965 86.9319 37.1143 90.7275 36.7007C93.1853 36.4326 95.7289 36.7007 98.032 35.3947C100.466 33.6197 102.64 30.9559 102.64 27.2639C102.64 23.5719 100.297 19.7009 96.7384 18.5826Z" fill="#F44250"/>
<path d="M57.7566 35.9161C52.9673 35.9161 49.0605 32.0094 49.0605 27.22C49.0605 22.4307 52.9673 18.5239 57.7566 18.5239C62.546 18.5239 66.4527 22.4307 66.4527 27.22C66.4527 32.0056 62.5422 35.9161 57.7566 35.9161Z" fill="#121212"/>
<path d="M41.7367 53.589C36.955 53.5774 33.0598 49.6554 33.0713 44.8622C33.0829 40.0767 37.0049 36.1815 41.7981 36.1968C46.5836 36.2084 50.4787 40.1304 50.4634 44.9236C50.4519 49.7053 46.5298 53.6005 41.7367 53.589Z" fill="#121212"/>
<path d="M106.352 53.5889C101.555 53.6156 97.618 49.7358 97.591 44.9581C97.5642 40.1612 101.444 36.2239 106.222 36.1969C111.019 36.1702 114.956 40.0499 114.983 44.8277C115.01 49.6207 111.13 53.5619 106.352 53.5889Z" fill="#121212"/>
<path d="M15.3807 77.1283C14.8334 76.5448 14.7552 75.8346 14.5207 73.45C14.3382 71.5982 13.3479 70.6597 11.654 70.3299C13.6607 70.0762 15.1461 68.5542 15.1461 66.2204C15.1461 63.1002 13.0352 61.147 8.78731 61.147H0.5V77.1283H4.85214V71.8265H7.797C9.28247 71.8265 10.0903 72.2324 10.2207 74.0589C10.351 75.7077 10.5594 76.697 10.8982 77.1283H15.3807ZM4.85214 68.5035V64.5969H8.00549C9.88186 64.5969 10.82 65.2818 10.82 66.5755C10.82 68.0468 9.88186 68.5035 8.00549 68.5035H4.85214Z" fill="#121212"/>
<path d="M25.0449 73.0949C24.654 73.9828 23.9243 74.3633 22.7776 74.3633C21.5007 74.3633 20.4582 73.7037 20.354 72.3085H28.511V71.167C28.511 68.0976 26.4522 65.5101 22.5692 65.5101C18.9467 65.5101 16.2364 68.0722 16.2364 71.649C16.2364 75.2511 18.8946 77.4327 22.6213 77.4327C25.6964 77.4327 27.8334 75.9868 28.4328 73.3993L25.0449 73.0949ZM20.4061 70.3299C20.5625 69.2645 21.1619 68.4527 22.517 68.4527C23.768 68.4527 24.4455 69.3152 24.4977 70.3299H20.4061Z" fill="#121212"/>
<path d="M36.9467 72.41C36.9467 73.8813 35.9825 74.7438 34.7837 74.7438C34.0801 74.7438 33.611 74.3633 33.611 73.7798C33.611 73.0442 34.2104 72.7398 35.2267 72.5368L36.9467 72.2324V72.41ZM41.0904 69.9494C41.0904 66.8039 38.8231 65.5101 35.7479 65.5101C32.2558 65.5101 30.3534 67.2351 29.9885 69.7211L33.8976 69.9747C34.0801 69.1376 34.5492 68.5542 35.4873 68.5542C36.5037 68.5542 36.9467 69.1123 36.9467 70.0508V70.2284L33.6891 70.7611C31.1613 71.1924 29.5455 72.131 29.5455 74.3125C29.5455 76.2404 31.031 77.382 33.2982 77.382C35.1485 77.382 36.4776 76.697 37.1552 75.3779C37.5461 76.6717 38.6667 77.382 40.1001 77.382C41.2989 77.382 42.1328 77.0522 42.7322 76.6463V74.4647C42.3934 74.5916 42.1328 74.6423 41.794 74.6423C41.351 74.6423 41.0904 74.3886 41.0904 73.8052V69.9494Z" fill="#121212"/>
<path d="M43.2133 71.4714C43.2133 75.0735 45.8976 77.4327 49.5721 77.4327C53.0643 77.4327 55.0188 75.2511 55.3055 72.5115L51.8394 72.2578C51.5528 73.653 50.8491 74.3379 49.6243 74.3379C48.3473 74.3379 47.4612 73.5008 47.4612 71.4714C47.4612 69.442 48.3473 68.6049 49.6243 68.6049C50.8491 68.6049 51.5528 69.2645 51.8394 70.6597L55.3055 70.4314C55.0188 67.7171 53.0643 65.5101 49.5721 65.5101C45.8976 65.5101 43.2133 67.8946 43.2133 71.4714Z" fill="#121212"/>
<path d="M57.337 73.9828C57.337 76.6463 59.1873 77.4327 61.1419 77.4327C62.7316 77.4327 63.748 77.0522 64.634 76.418V73.7545C63.9304 74.0335 63.357 74.135 62.8358 74.135C61.9758 74.135 61.5067 73.7545 61.5067 72.7905V68.6557H64.5298V65.8145H61.5067V62.6944H58.8485L58.4576 64.1657C58.171 65.2057 57.8061 65.8145 56.6334 65.9921L55.7734 66.1189V68.6557H57.337V73.9828Z" fill="#121212"/>
<path d="M85.9279 77.1283C85.3806 76.5448 85.3024 75.8346 85.0679 73.45C84.8854 71.5982 83.8951 70.6597 82.2012 70.3299C84.2079 70.0762 85.6933 68.5542 85.6933 66.2204C85.6933 63.1002 83.5824 61.147 79.3345 61.147H71.0472V77.1283H75.3993V71.8265H78.3442C79.8297 71.8265 80.6375 72.2324 80.7679 74.0589C80.8982 75.7077 81.1066 76.697 81.4454 77.1283H85.9279ZM75.3993 68.5035V64.5969H78.5527C80.4291 64.5969 81.3672 65.2818 81.3672 66.5755C81.3672 68.0468 80.4291 68.5035 78.5527 68.5035H75.3993Z" fill="#121212"/>
<path d="M91.0315 71.4714C91.0315 69.7718 91.657 68.6049 93.1424 68.6049C94.6018 68.6049 95.2533 69.7718 95.2533 71.4714C95.2533 73.171 94.6018 74.3379 93.1424 74.3379C91.657 74.3379 91.0315 73.171 91.0315 71.4714ZM99.5012 71.4714C99.5012 67.9707 96.9212 65.5101 93.1424 65.5101C89.3376 65.5101 86.7836 67.9707 86.7836 71.4714C86.7836 74.9974 89.3376 77.4327 93.1424 77.4327C96.9212 77.4327 99.5012 74.9974 99.5012 71.4714Z" fill="#121212"/>
<path d="M108.839 71.3699C108.839 73.0949 108.318 74.2111 106.989 74.2111C105.712 74.2111 105.269 73.3739 105.269 71.8519V65.8145H101.047V72.9427C101.047 75.3018 102.011 77.4327 105.191 77.4327C106.937 77.4327 108.214 76.697 108.839 75.4287V77.1283H113.061V65.8145H108.839V71.3699Z" fill="#121212"/>
<path d="M115.77 73.9828C115.77 76.6463 117.62 77.4327 119.575 77.4327C121.165 77.4327 122.181 77.0522 123.067 76.418V73.7545C122.363 74.0335 121.79 74.135 121.269 74.135C120.409 74.135 119.94 73.7545 119.94 72.7905V68.6557H122.963V65.8145H119.94V62.6944H117.282L116.891 64.1657C116.604 65.2057 116.239 65.8145 115.066 65.9921L114.206 66.1189V68.6557H115.77V73.9828Z" fill="#121212"/>
<path d="M132.876 73.0949C132.485 73.9828 131.756 74.3633 130.609 74.3633C129.332 74.3633 128.29 73.7037 128.185 72.3085H136.342V71.167C136.342 68.0976 134.284 65.5101 130.401 65.5101C126.778 65.5101 124.068 68.0722 124.068 71.649C124.068 75.2511 126.726 77.4327 130.453 77.4327C133.528 77.4327 135.665 75.9868 136.264 73.3993L132.876 73.0949ZM128.237 70.3299C128.394 69.2645 128.993 68.4527 130.348 68.4527C131.599 68.4527 132.277 69.3152 132.329 70.3299H128.237Z" fill="#121212"/>
<path d="M147.071 65.9414C146.785 65.7131 146.159 65.5101 145.456 65.5101C143.918 65.5101 142.693 66.5502 142.276 67.8185V65.8145H138.054V77.1283H142.276V71.9534C142.276 70.0508 143.241 69.3406 144.804 69.3406C145.612 69.3406 146.237 69.4928 146.811 69.8225L147.071 65.9414Z" fill="#121212"/>
</svg>
