<svg width="151" height="78" viewBox="0 0 151 78" fill="none" xmlns="http://www.w3.org/2000/svg">
<path d="M96.7384 18.8687C94.3953 18.1334 93.1853 18.3813 90.7275 18.1132C86.9281 17.6996 85.4144 16.2174 84.7723 12.4029C84.413 10.2735 84.8372 7.1557 83.9199 5.22544C82.1654 1.54494 78.0602 -0.105736 73.9359 0.836412C70.4537 1.63303 67.5564 5.10672 67.3959 8.67233C67.2124 12.7435 69.5364 16.2172 73.5269 17.4159C75.4228 17.9866 77.4372 18.2738 79.4172 18.4194C83.0484 18.6836 83.3274 20.6984 84.3098 22.3567C84.929 23.4023 85.5291 24.4325 85.5291 27.55C85.5291 30.6675 84.9252 31.6978 84.3098 32.7433C83.3274 34.3978 82.1157 35.4817 78.4845 35.7498C76.5045 35.8953 74.4863 36.1826 72.5943 36.7532C68.6038 37.9558 66.2798 41.4256 66.4632 45.4968C66.6238 49.0624 69.5211 52.5361 73.0033 53.3327C77.1276 54.2787 81.2328 52.6242 82.9872 48.9437C83.9084 47.0134 84.413 44.8266 84.7723 42.6972C85.4183 38.8826 86.9319 37.4005 90.7275 36.9868C93.1853 36.7187 95.7289 36.9868 98.032 35.6808C100.466 33.9058 102.64 31.242 102.64 27.55C102.64 23.858 100.297 19.9871 96.7384 18.8687Z" fill="#121212"/>
<path d="M57.7566 36.2023C52.9673 36.2023 49.0605 32.2956 49.0605 27.5062C49.0605 22.7168 52.9673 18.8101 57.7566 18.8101C62.546 18.8101 66.4527 22.7168 66.4527 27.5062C66.4527 32.2917 62.5422 36.2023 57.7566 36.2023Z" fill="#121212"/>
<path d="M41.7367 53.8751C36.955 53.8636 33.0598 49.9415 33.0713 45.1483C33.0829 40.3628 37.0049 36.4676 41.7981 36.483C46.5836 36.4945 50.4787 40.4166 50.4634 45.2097C50.4519 49.9914 46.5298 53.8866 41.7367 53.8751Z" fill="#121212"/>
<path d="M106.352 53.875C101.555 53.9017 97.618 50.022 97.591 45.2443C97.5642 40.4473 101.444 36.51 106.222 36.483C111.019 36.4563 114.956 40.3361 114.983 45.1138C115.01 49.9069 111.13 53.848 106.352 53.875Z" fill="#121212"/>
<path d="M15.3807 77.4144C14.8334 76.831 14.7552 76.1207 14.5207 73.7362C14.3382 71.8844 13.3479 70.9458 11.654 70.616C13.6607 70.3623 15.1461 68.8403 15.1461 66.5065C15.1461 63.3864 13.0352 61.4331 8.78731 61.4331H0.5V77.4144H4.85214V72.1127H7.797C9.28247 72.1127 10.0903 72.5186 10.2207 74.345C10.351 75.9939 10.5594 76.9832 10.8982 77.4144H15.3807ZM4.85214 68.7896V64.883H8.00549C9.88186 64.883 10.82 65.568 10.82 66.8617C10.82 68.333 9.88186 68.7896 8.00549 68.7896H4.85214Z" fill="#121212"/>
<path d="M25.0449 73.381C24.654 74.2689 23.9243 74.6494 22.7776 74.6494C21.5007 74.6494 20.4582 73.9899 20.354 72.5947H28.511V71.4531C28.511 68.3837 26.4522 65.7963 22.5692 65.7963C18.9467 65.7963 16.2364 68.3583 16.2364 71.9351C16.2364 75.5372 18.8946 77.7188 22.6213 77.7188C25.6964 77.7188 27.8334 76.2729 28.4328 73.6854L25.0449 73.381ZM20.4061 70.616C20.5625 69.5506 21.1619 68.7388 22.517 68.7388C23.768 68.7388 24.4455 69.6013 24.4977 70.616H20.4061Z" fill="#121212"/>
<path d="M36.9467 72.6961C36.9467 74.1674 35.9825 75.0299 34.7837 75.0299C34.0801 75.0299 33.611 74.6494 33.611 74.066C33.611 73.3303 34.2104 73.0259 35.2267 72.823L36.9467 72.5186V72.6961ZM41.0904 70.2355C41.0904 67.09 38.8231 65.7963 35.7479 65.7963C32.2558 65.7963 30.3534 67.5212 29.9885 70.0072L33.8976 70.2609C34.0801 69.4238 34.5492 68.8403 35.4873 68.8403C36.5037 68.8403 36.9467 69.3984 36.9467 70.337V70.5145L33.6891 71.0473C31.1613 71.4785 29.5455 72.4171 29.5455 74.5987C29.5455 76.5266 31.031 77.6681 33.2982 77.6681C35.1485 77.6681 36.4776 76.9832 37.1552 75.6641C37.5461 76.9578 38.6667 77.6681 40.1001 77.6681C41.2989 77.6681 42.1328 77.3383 42.7322 76.9324V74.7509C42.3934 74.8777 42.1328 74.9284 41.794 74.9284C41.351 74.9284 41.0904 74.6748 41.0904 74.0913V70.2355Z" fill="#121212"/>
<path d="M43.2133 71.7575C43.2133 75.3597 45.8976 77.7188 49.5721 77.7188C53.0643 77.7188 55.0188 75.5372 55.3055 72.7976L51.8394 72.5439C51.5528 73.9391 50.8491 74.624 49.6243 74.624C48.3473 74.624 47.4612 73.7869 47.4612 71.7575C47.4612 69.7282 48.3473 68.8911 49.6243 68.8911C50.8491 68.8911 51.5528 69.5506 51.8394 70.9458L55.3055 70.7175C55.0188 68.0032 53.0643 65.7963 49.5721 65.7963C45.8976 65.7963 43.2133 68.1808 43.2133 71.7575Z" fill="#121212"/>
<path d="M57.337 74.2689C57.337 76.9324 59.1873 77.7188 61.1419 77.7188C62.7316 77.7188 63.748 77.3383 64.634 76.7041V74.0406C63.9304 74.3196 63.357 74.4211 62.8358 74.4211C61.9758 74.4211 61.5067 74.0406 61.5067 73.0766V68.9418H64.5298V66.1007H61.5067V62.9805H58.8485L58.4576 64.4518C58.171 65.4919 57.8061 66.1007 56.6334 66.2782L55.7734 66.4051V68.9418H57.337V74.2689Z" fill="#121212"/>
<path d="M85.9279 77.4144C85.3806 76.831 85.3024 76.1207 85.0679 73.7362C84.8854 71.8844 83.8951 70.9458 82.2012 70.616C84.2079 70.3623 85.6933 68.8403 85.6933 66.5065C85.6933 63.3864 83.5824 61.4331 79.3345 61.4331H71.0472V77.4144H75.3993V72.1127H78.3442C79.8297 72.1127 80.6375 72.5186 80.7679 74.345C80.8982 75.9939 81.1066 76.9832 81.4454 77.4144H85.9279ZM75.3993 68.7896V64.883H78.5527C80.4291 64.883 81.3672 65.568 81.3672 66.8617C81.3672 68.333 80.4291 68.7896 78.5527 68.7896H75.3993Z" fill="#121212"/>
<path d="M91.0315 71.7575C91.0315 70.0579 91.657 68.8911 93.1424 68.8911C94.6018 68.8911 95.2533 70.0579 95.2533 71.7575C95.2533 73.4571 94.6018 74.624 93.1424 74.624C91.657 74.624 91.0315 73.4571 91.0315 71.7575ZM99.5012 71.7575C99.5012 68.2569 96.9212 65.7963 93.1424 65.7963C89.3376 65.7963 86.7836 68.2569 86.7836 71.7575C86.7836 75.2836 89.3376 77.7188 93.1424 77.7188C96.9212 77.7188 99.5012 75.2836 99.5012 71.7575Z" fill="#121212"/>
<path d="M108.839 71.6561C108.839 73.381 108.318 74.4972 106.989 74.4972C105.712 74.4972 105.269 73.6601 105.269 72.138V66.1007H101.047V73.2288C101.047 75.588 102.011 77.7188 105.191 77.7188C106.937 77.7188 108.214 76.9832 108.839 75.7148V77.4144H113.061V66.1007H108.839V71.6561Z" fill="#121212"/>
<path d="M115.77 74.2689C115.77 76.9324 117.62 77.7188 119.575 77.7188C121.165 77.7188 122.181 77.3383 123.067 76.7041V74.0406C122.363 74.3196 121.79 74.4211 121.269 74.4211C120.409 74.4211 119.94 74.0406 119.94 73.0766V68.9418H122.963V66.1007H119.94V62.9805H117.282L116.891 64.4518C116.604 65.4919 116.239 66.1007 115.066 66.2782L114.206 66.4051V68.9418H115.77V74.2689Z" fill="#121212"/>
<path d="M132.876 73.381C132.485 74.2689 131.756 74.6494 130.609 74.6494C129.332 74.6494 128.29 73.9899 128.185 72.5947H136.342V71.4531C136.342 68.3837 134.284 65.7963 130.401 65.7963C126.778 65.7963 124.068 68.3583 124.068 71.9351C124.068 75.5372 126.726 77.7188 130.453 77.7188C133.528 77.7188 135.665 76.2729 136.264 73.6854L132.876 73.381ZM128.237 70.616C128.394 69.5506 128.993 68.7388 130.348 68.7388C131.599 68.7388 132.277 69.6013 132.329 70.616H128.237Z" fill="#121212"/>
<path d="M147.071 66.2275C146.785 65.9992 146.159 65.7963 145.456 65.7963C143.918 65.7963 142.693 66.8363 142.276 68.1047V66.1007H138.054V77.4144H142.276V72.2395C142.276 70.337 143.241 69.6267 144.804 69.6267C145.612 69.6267 146.237 69.7789 146.811 70.1087L147.071 66.2275Z" fill="#121212"/>
</svg>
