<svg width="97" height="64" viewBox="0 0 97 64" fill="none" xmlns="http://www.w3.org/2000/svg">
<path d="M74.7781 21.6316C72.0445 20.7737 70.6328 21.0629 67.7654 20.7502C63.3328 20.2676 61.5668 18.5384 60.8177 14.0881C60.3985 11.6038 60.8935 7.9664 59.8232 5.71443C57.7763 1.42051 52.9869 -0.505276 48.1752 0.593897C44.1127 1.52328 40.7325 5.57592 40.5452 9.7358C40.3311 14.4855 43.0424 18.5381 47.6981 19.9367C49.9099 20.6024 52.26 20.9375 54.57 21.1073C58.8064 21.4156 59.132 23.7662 60.2781 25.7009C61.0005 26.9207 61.7006 28.1227 61.7006 31.7598C61.7006 35.3969 60.996 36.5988 60.2781 37.8186C59.132 39.7489 57.7184 41.0134 53.4819 41.3261C51.172 41.4959 48.8174 41.8311 46.61 42.4968C41.9544 43.8998 39.2431 47.948 39.4571 52.6977C39.6444 56.8575 43.0246 60.9102 47.0872 61.8396C51.8989 62.9432 56.6883 61.0129 58.7351 56.719C59.8098 54.4671 60.3985 51.9157 60.8177 49.4314C61.5713 44.9811 63.3372 43.2519 67.7654 42.7694C70.6328 42.4566 73.6004 42.7694 76.2873 41.2457C79.1268 39.1749 81.6635 36.0671 81.6635 31.7598C81.6635 27.4524 78.9298 22.9363 74.7781 21.6316Z" fill="#F44250"/>
<path d="M29.2997 41.8539C23.7121 41.8539 19.1543 37.2961 19.1543 31.7084C19.1543 26.1208 23.7121 21.563 29.2997 21.563C34.8874 21.563 39.4452 26.1208 39.4452 31.7084C39.4452 37.2916 34.8829 41.8539 29.2997 41.8539Z" fill="white"/>
<path d="M10.6096 62.472C5.031 62.4586 0.486628 57.8829 0.50003 52.2908C0.513491 46.7077 5.0892 42.1633 10.6812 42.1812C16.2643 42.1947 20.8087 46.7704 20.7909 52.3625C20.7774 57.9411 16.2017 62.4854 10.6096 62.472Z" fill="white"/>
<path d="M85.994 62.4719C80.3976 62.5031 75.8041 57.9767 75.7726 52.4027C75.7414 46.8063 80.2678 42.2128 85.8418 42.1813C91.4382 42.1501 96.0317 46.6765 96.0632 52.2505C96.0944 57.8424 91.568 62.4404 85.994 62.4719Z" fill="white"/>
</svg>
