<svg width="151" height="78" viewBox="0 0 151 78" fill="none" xmlns="http://www.w3.org/2000/svg">
<path d="M96.7384 19.0113C94.3953 18.276 93.1853 18.5239 90.7275 18.2558C86.9281 17.8422 85.4144 16.36 84.7723 12.5455C84.413 10.416 84.8372 7.29828 83.9199 5.36802C82.1654 1.68752 78.0602 0.0368419 73.9359 0.97899C70.4537 1.7756 67.5564 5.2493 67.3959 8.81491C67.2124 12.8861 69.5364 16.3598 73.5269 17.5585C75.4228 18.1292 77.4372 18.4164 79.4172 18.5619C83.0484 18.8262 83.3274 20.841 84.3098 22.4993C84.929 23.5449 85.5291 24.5751 85.5291 27.6926C85.5291 30.8101 84.9252 31.8404 84.3098 32.8859C83.3274 34.5404 82.1157 35.6243 78.4845 35.8924C76.5045 36.0379 74.4863 36.3251 72.5943 36.8958C68.6038 38.0984 66.2798 41.5682 66.4632 45.6394C66.6238 49.205 69.5211 52.6787 73.0033 53.4753C77.1276 54.4213 81.2328 52.7668 82.9872 49.0862C83.9084 47.156 84.413 44.9691 84.7723 42.8397C85.4183 39.0252 86.9319 37.543 90.7275 37.1294C93.1853 36.8613 95.7289 37.1294 98.032 35.8234C100.466 34.0484 102.64 31.3846 102.64 27.6926C102.64 24.0006 100.297 20.1296 96.7384 19.0113Z" fill="white"/>
<path d="M57.7566 36.3449C52.9673 36.3449 49.0605 32.4381 49.0605 27.6487C49.0605 22.8594 52.9673 18.9526 57.7566 18.9526C62.546 18.9526 66.4527 22.8594 66.4527 27.6487C66.4527 32.4343 62.5422 36.3449 57.7566 36.3449Z" fill="white"/>
<path d="M41.7367 54.0177C36.955 54.0061 33.0598 50.0841 33.0713 45.2909C33.0829 40.5054 37.0049 36.6102 41.7981 36.6255C46.5836 36.6371 50.4787 40.5591 50.4634 45.3523C50.4519 50.134 46.5298 54.0292 41.7367 54.0177Z" fill="white"/>
<path d="M106.352 54.0176C101.555 54.0443 97.618 50.1646 97.591 45.3868C97.5642 40.5899 101.444 36.6526 106.222 36.6256C111.019 36.5989 114.956 40.4786 114.983 45.2564C115.01 50.0494 111.13 53.9906 106.352 54.0176Z" fill="white"/>
<path d="M15.3807 77.557C14.8334 76.9735 14.7552 76.2633 14.5207 73.8788C14.3382 72.027 13.3479 71.0884 11.654 70.7586C13.6607 70.5049 15.1461 68.9829 15.1461 66.6491C15.1461 63.529 13.0352 61.5757 8.78731 61.5757H0.5V77.557H4.85214V72.2553H7.797C9.28247 72.2553 10.0903 72.6611 10.2207 74.4876C10.351 76.1364 10.5594 77.1258 10.8982 77.557H15.3807ZM4.85214 68.9322V65.0256H8.00549C9.88186 65.0256 10.82 65.7105 10.82 67.0043C10.82 68.4756 9.88186 68.9322 8.00549 68.9322H4.85214Z" fill="white"/>
<path d="M25.0449 73.5236C24.654 74.4115 23.9243 74.792 22.7776 74.792C21.5007 74.792 20.4582 74.1324 20.354 72.7372H28.511V71.5957C28.511 68.5263 26.4522 65.9388 22.5692 65.9388C18.9467 65.9388 16.2364 68.5009 16.2364 72.0777C16.2364 75.6798 18.8946 77.8614 22.6213 77.8614C25.6964 77.8614 27.8334 76.4155 28.4328 73.828L25.0449 73.5236ZM20.4061 70.7586C20.5625 69.6932 21.1619 68.8814 22.517 68.8814C23.768 68.8814 24.4455 69.7439 24.4977 70.7586H20.4061Z" fill="white"/>
<path d="M36.9467 72.8387C36.9467 74.31 35.9825 75.1725 34.7837 75.1725C34.0801 75.1725 33.611 74.792 33.611 74.2085C33.611 73.4729 34.2104 73.1685 35.2267 72.9655L36.9467 72.6611V72.8387ZM41.0904 70.3781C41.0904 67.2326 38.8231 65.9388 35.7479 65.9388C32.2558 65.9388 30.3534 67.6638 29.9885 70.1498L33.8976 70.4035C34.0801 69.5663 34.5492 68.9829 35.4873 68.9829C36.5037 68.9829 36.9467 69.541 36.9467 70.4796V70.6571L33.6891 71.1898C31.1613 71.6211 29.5455 72.5597 29.5455 74.7412C29.5455 76.6691 31.031 77.8107 33.2982 77.8107C35.1485 77.8107 36.4776 77.1258 37.1552 75.8067C37.5461 77.1004 38.6667 77.8107 40.1001 77.8107C41.2989 77.8107 42.1328 77.4809 42.7322 77.075V74.8934C42.3934 75.0203 42.1328 75.071 41.794 75.071C41.351 75.071 41.0904 74.8173 41.0904 74.2339V70.3781Z" fill="white"/>
<path d="M43.2133 71.9001C43.2133 75.5023 45.8976 77.8614 49.5721 77.8614C53.0643 77.8614 55.0188 75.6798 55.3055 72.9402L51.8394 72.6865C51.5528 74.0817 50.8491 74.7666 49.6243 74.7666C48.3473 74.7666 47.4612 73.9295 47.4612 71.9001C47.4612 69.8707 48.3473 69.0336 49.6243 69.0336C50.8491 69.0336 51.5528 69.6932 51.8394 71.0884L55.3055 70.8601C55.0188 68.1458 53.0643 65.9388 49.5721 65.9388C45.8976 65.9388 43.2133 68.3233 43.2133 71.9001Z" fill="white"/>
<path d="M57.337 74.4115C57.337 77.075 59.1873 77.8614 61.1419 77.8614C62.7316 77.8614 63.748 77.4809 64.634 76.8467V74.1832C63.9304 74.4622 63.357 74.5637 62.8358 74.5637C61.9758 74.5637 61.5067 74.1832 61.5067 73.2192V69.0844H64.5298V66.2432H61.5067V63.1231H58.8485L58.4576 64.5944C58.171 65.6344 57.8061 66.2432 56.6334 66.4208L55.7734 66.5476V69.0844H57.337V74.4115Z" fill="white"/>
<path d="M85.9279 77.557C85.3806 76.9735 85.3024 76.2633 85.0679 73.8788C84.8854 72.027 83.8951 71.0884 82.2012 70.7586C84.2079 70.5049 85.6933 68.9829 85.6933 66.6491C85.6933 63.529 83.5824 61.5757 79.3345 61.5757H71.0472V77.557H75.3993V72.2553H78.3442C79.8297 72.2553 80.6375 72.6611 80.7679 74.4876C80.8982 76.1364 81.1066 77.1258 81.4454 77.557H85.9279ZM75.3993 68.9322V65.0256H78.5527C80.4291 65.0256 81.3672 65.7105 81.3672 67.0043C81.3672 68.4756 80.4291 68.9322 78.5527 68.9322H75.3993Z" fill="white"/>
<path d="M91.0315 71.9001C91.0315 70.2005 91.657 69.0336 93.1424 69.0336C94.6018 69.0336 95.2533 70.2005 95.2533 71.9001C95.2533 73.5997 94.6018 74.7666 93.1424 74.7666C91.657 74.7666 91.0315 73.5997 91.0315 71.9001ZM99.5012 71.9001C99.5012 68.3995 96.9212 65.9388 93.1424 65.9388C89.3376 65.9388 86.7836 68.3995 86.7836 71.9001C86.7836 75.4262 89.3376 77.8614 93.1424 77.8614C96.9212 77.8614 99.5012 75.4262 99.5012 71.9001Z" fill="white"/>
<path d="M108.839 71.7986C108.839 73.5236 108.318 74.6398 106.989 74.6398C105.712 74.6398 105.269 73.8027 105.269 72.2806V66.2432H101.047V73.3714C101.047 75.7306 102.011 77.8614 105.191 77.8614C106.937 77.8614 108.214 77.1258 108.839 75.8574V77.557H113.061V66.2432H108.839V71.7986Z" fill="white"/>
<path d="M115.77 74.4115C115.77 77.075 117.62 77.8614 119.575 77.8614C121.165 77.8614 122.181 77.4809 123.067 76.8467V74.1832C122.363 74.4622 121.79 74.5637 121.269 74.5637C120.409 74.5637 119.94 74.1832 119.94 73.2192V69.0844H122.963V66.2432H119.94V63.1231H117.282L116.891 64.5944C116.604 65.6344 116.239 66.2432 115.066 66.4208L114.206 66.5476V69.0844H115.77V74.4115Z" fill="white"/>
<path d="M132.876 73.5236C132.485 74.4115 131.756 74.792 130.609 74.792C129.332 74.792 128.29 74.1324 128.185 72.7372H136.342V71.5957C136.342 68.5263 134.284 65.9388 130.401 65.9388C126.778 65.9388 124.068 68.5009 124.068 72.0777C124.068 75.6798 126.726 77.8614 130.453 77.8614C133.528 77.8614 135.665 76.4155 136.264 73.828L132.876 73.5236ZM128.237 70.7586C128.394 69.6932 128.993 68.8814 130.348 68.8814C131.599 68.8814 132.277 69.7439 132.329 70.7586H128.237Z" fill="white"/>
<path d="M147.071 66.3701C146.785 66.1418 146.159 65.9388 145.456 65.9388C143.918 65.9388 142.693 66.9789 142.276 68.2472V66.2432H138.054V77.557H142.276V72.3821C142.276 70.4796 143.241 69.7693 144.804 69.7693C145.612 69.7693 146.237 69.9215 146.811 70.2513L147.071 66.3701Z" fill="white"/>
</svg>
