<svg width="230" height="24" viewBox="0 0 230 24" fill="none" xmlns="http://www.w3.org/2000/svg">
<path d="M27.7179 8.237C26.6978 7.90588 26.171 8.01751 25.101 7.89679C23.447 7.71054 22.788 7.04314 22.5084 5.32547C22.352 4.36662 22.5367 2.96271 22.1373 2.09353C21.3735 0.436228 19.5863 -0.307058 17.7908 0.117184C16.2749 0.475893 15.0135 2.04007 14.9436 3.64564C14.8638 5.47885 15.8755 7.04302 17.6128 7.58281C18.4381 7.83977 19.3151 7.96911 20.1771 8.03465C21.7579 8.15364 21.8794 9.06088 22.3071 9.80761C22.5767 10.2784 22.8379 10.7423 22.8379 12.1461C22.8379 13.5499 22.575 14.0138 22.3071 14.4846C21.8794 15.2296 21.3519 15.7177 19.7711 15.8384C18.9091 15.9039 18.0305 16.0333 17.2067 16.2902C15.4695 16.8318 14.4577 18.3942 14.5376 20.2274C14.6075 21.833 15.8688 23.3972 17.3848 23.7559C19.1803 24.1818 20.9675 23.4368 21.7313 21.7795C22.1324 20.9103 22.352 19.9256 22.5084 18.9668C22.7897 17.2491 23.4486 16.5817 25.101 16.3954C26.171 16.2747 27.2784 16.3954 28.281 15.8074C29.3406 15.0081 30.2872 13.8086 30.2872 12.1461C30.2872 10.4836 29.2671 8.74057 27.7179 8.237Z" fill="#F44250"/>
<path d="M10.7468 16.042C8.66173 16.042 6.96094 14.2829 6.96094 12.1262C6.96094 9.96962 8.66173 8.21045 10.7468 8.21045C12.8318 8.21045 14.5326 9.96962 14.5326 12.1262C14.5326 14.2811 12.8302 16.042 10.7468 16.042Z" fill="white"/>
<path d="M3.77247 24C1.69077 23.9948 -0.00498999 22.2288 1.10332e-05 20.0704C0.00503422 17.9156 1.71249 16.1616 3.7992 16.1685C5.88256 16.1737 7.57832 17.9397 7.57166 20.0981C7.56663 22.2512 5.85917 24.0052 3.77247 24Z" fill="white"/>
<path d="M31.9021 24C29.8138 24.012 28.0997 22.265 28.088 20.1136C28.0763 17.9536 29.7654 16.1807 31.8453 16.1685C33.9337 16.1565 35.6478 17.9035 35.6595 20.0549C35.6711 22.2132 33.9821 23.9878 31.9021 24Z" fill="white"/>
<path d="M66.1442 22.7566C65.4633 21.9873 65.366 21.0508 65.0741 17.9067C64.8472 15.4649 63.615 14.2274 61.5073 13.7925C64.0041 13.4581 65.8524 11.4512 65.8524 8.37395C65.8524 4.25983 63.2259 1.68433 57.9404 1.68433H47.6289V22.7566H53.0441V15.766H56.7082C58.5565 15.766 59.5617 16.3012 59.7238 18.7094C59.886 20.8835 60.1454 22.188 60.5669 22.7566H66.1442ZM53.0441 11.3843V6.23327H56.9676C59.3023 6.23327 60.4696 7.13637 60.4696 8.84222C60.4696 10.7822 59.3023 11.3843 56.9676 11.3843H53.0441Z" fill="white"/>
<path d="M78.169 17.4384C77.6826 18.6091 76.7746 19.1108 75.3479 19.1108C73.759 19.1108 72.462 18.2411 72.3323 16.4015H82.4816V14.8963C82.4816 10.8491 79.92 7.4374 75.0885 7.4374C70.5813 7.4374 67.2089 10.8157 67.2089 15.5318C67.2089 20.2815 70.5164 23.158 75.1533 23.158C78.9796 23.158 81.6386 21.2515 82.3844 17.8398L78.169 17.4384ZM72.3971 13.7925C72.5917 12.3877 73.3375 11.3174 75.0236 11.3174C76.5801 11.3174 77.4232 12.4546 77.488 13.7925H72.3971Z" fill="white"/>
<path d="M92.9778 16.5353C92.9778 18.4753 91.778 19.6125 90.2864 19.6125C89.4109 19.6125 88.8273 19.1108 88.8273 18.3415C88.8273 17.3715 89.5731 16.9701 90.8377 16.7025L92.9778 16.3011V16.5353ZM98.1336 13.2908C98.1336 9.14326 95.3125 7.4374 91.4862 7.4374C87.1411 7.4374 84.774 9.71187 84.32 12.9898L89.184 13.3243C89.4109 12.2205 89.9946 11.4512 91.1619 11.4512C92.4266 11.4512 92.9778 12.187 92.9778 13.4246V13.6587L88.9245 14.3612C85.7792 14.9298 83.7688 16.1674 83.7688 19.0439C83.7688 21.586 85.6171 23.0911 88.4382 23.0911C90.7404 23.0911 92.3941 22.188 93.2372 20.4487C93.7236 22.1546 95.1179 23.0911 96.9014 23.0911C98.393 23.0911 99.4306 22.6563 100.176 22.1211V19.2446C99.7549 19.4118 99.4306 19.4787 99.0091 19.4787C98.4578 19.4787 98.1336 19.1442 98.1336 18.3749V13.2908Z" fill="white"/>
<path d="M100.775 15.2977C100.775 20.0473 104.115 23.158 108.687 23.158C113.032 23.158 115.464 20.2815 115.821 16.6691L111.508 16.3346C111.151 18.1742 110.276 19.0773 108.752 19.0773C107.163 19.0773 106.06 17.9736 106.06 15.2977C106.06 12.6219 107.163 11.5181 108.752 11.5181C110.276 11.5181 111.151 12.3877 111.508 14.2274L115.821 13.9263C115.464 10.3474 113.032 7.4374 108.687 7.4374C104.115 7.4374 100.775 10.5815 100.775 15.2977Z" fill="white"/>
<path d="M118.348 18.6091C118.348 22.1211 120.651 23.158 123.083 23.158C125.061 23.158 126.325 22.6563 127.428 21.8201V18.308C126.552 18.676 125.839 18.8098 125.19 18.8098C124.12 18.8098 123.537 18.308 123.537 17.037V11.585H127.298V7.83878H123.537V3.72466H120.229L119.743 5.66465C119.386 7.03602 118.932 7.83878 117.473 8.07292L116.403 8.24016V11.585H118.348V18.6091Z" fill="white"/>
<path d="M153.923 22.7566C153.242 21.9873 153.144 21.0508 152.853 17.9067C152.626 15.4649 151.393 14.2274 149.286 13.7925C151.783 13.4581 153.631 11.4512 153.631 8.37395C153.631 4.25983 151.004 1.68433 145.719 1.68433H135.407V22.7566H140.823V15.766H144.487C146.335 15.766 147.34 16.3012 147.502 18.7094C147.664 20.8835 147.924 22.188 148.345 22.7566H153.923ZM140.823 11.3843V6.23327H144.746C147.081 6.23327 148.248 7.13637 148.248 8.84222C148.248 10.7822 147.081 11.3843 144.746 11.3843H140.823Z" fill="white"/>
<path d="M160.273 15.2977C160.273 13.0567 161.051 11.5181 162.899 11.5181C164.715 11.5181 165.526 13.0567 165.526 15.2977C165.526 17.5387 164.715 19.0773 162.899 19.0773C161.051 19.0773 160.273 17.5387 160.273 15.2977ZM170.811 15.2977C170.811 10.6819 167.601 7.4374 162.899 7.4374C158.165 7.4374 154.987 10.6819 154.987 15.2977C154.987 19.947 158.165 23.158 162.899 23.158C167.601 23.158 170.811 19.947 170.811 15.2977Z" fill="white"/>
<path d="M182.43 15.1639C182.43 17.4384 181.782 18.9101 180.128 18.9101C178.539 18.9101 177.988 17.8063 177.988 15.7994V7.83878H172.735V17.2377C172.735 20.3484 173.935 23.158 177.891 23.158C180.063 23.158 181.652 22.188 182.43 20.5156V22.7566H187.683V7.83878H182.43V15.1639Z" fill="white"/>
<path d="M191.054 18.6091C191.054 22.1211 193.356 23.158 195.788 23.158C197.766 23.158 199.031 22.6563 200.133 21.8201V18.308C199.258 18.676 198.544 18.8098 197.896 18.8098C196.826 18.8098 196.242 18.308 196.242 17.037V11.585H200.003V7.83878H196.242V3.72466H192.935L192.448 5.66465C192.091 7.03602 191.637 7.83878 190.178 8.07292L189.108 8.24016V11.585H191.054V18.6091Z" fill="white"/>
<path d="M212.338 17.4384C211.852 18.6091 210.944 19.1108 209.517 19.1108C207.928 19.1108 206.631 18.2411 206.502 16.4015H216.651V14.8963C216.651 10.8491 214.089 7.4374 209.258 7.4374C204.751 7.4374 201.378 10.8157 201.378 15.5318C201.378 20.2815 204.686 23.158 209.323 23.158C213.149 23.158 215.808 21.2515 216.554 17.8398L212.338 17.4384ZM206.566 13.7925C206.761 12.3877 207.507 11.3174 209.193 11.3174C210.749 11.3174 211.592 12.4546 211.657 13.7925H206.566Z" fill="white"/>
<path d="M230.001 8.00602C229.644 7.70499 228.866 7.4374 227.99 7.4374C226.077 7.4374 224.553 8.80877 224.034 10.4812V7.83878H218.781V22.7566H224.034V15.9332C224.034 13.4246 225.234 12.4881 227.18 12.4881C228.185 12.4881 228.963 12.6888 229.676 13.1236L230.001 8.00602Z" fill="white"/>
</svg>
