<svg width="231" height="26" viewBox="0 0 231 26" fill="none" xmlns="http://www.w3.org/2000/svg">
<path d="M68.9316 22.6354C68.2602 21.902 68.1642 21.0092 67.8765 18.0119C67.6527 15.6842 66.4377 14.5044 64.3594 14.0898C66.8214 13.771 68.6438 11.8578 68.6438 8.9242C68.6438 5.00214 66.054 2.54688 60.8423 2.54688H50.6748V22.6354H56.0144V15.9711H59.6273C61.4498 15.9711 62.441 16.4813 62.6009 18.7772C62.7607 20.8498 63.0165 22.0934 63.4322 22.6354H68.9316ZM56.0144 11.794V6.88346H59.8831C62.1852 6.88346 63.3363 7.74439 63.3363 9.37061C63.3363 11.22 62.1852 11.794 59.8831 11.794H56.0144Z" fill="#121212"/>
<path d="M80.7885 17.5655C80.3089 18.6815 79.4136 19.1598 78.0068 19.1598C76.4401 19.1598 75.1612 18.3307 75.0333 16.577H85.0409V15.1421C85.0409 11.2838 82.515 8.03137 77.751 8.03137C73.3067 8.03137 69.9815 11.2519 69.9815 15.7479C69.9815 20.2758 73.2428 23.0181 77.815 23.0181C81.5878 23.0181 84.2096 21.2005 84.945 17.9481L80.7885 17.5655ZM75.0972 14.0898C75.2891 12.7506 76.0244 11.7302 77.6871 11.7302C79.2218 11.7302 80.0531 12.8144 80.117 14.0898H75.0972Z" fill="#121212"/>
<path d="M95.3906 16.7045C95.3906 18.554 94.2075 19.6381 92.7368 19.6381C91.8735 19.6381 91.298 19.1598 91.298 18.4264C91.298 17.5017 92.0334 17.1191 93.2803 16.864L95.3906 16.4813V16.7045ZM100.474 13.6115C100.474 9.65759 97.6926 8.03137 93.9198 8.03137C89.6354 8.03137 87.3013 10.1997 86.8537 13.3246L91.6497 13.6434C91.8735 12.5912 92.449 11.8578 93.6001 11.8578C94.847 11.8578 95.3906 12.5593 95.3906 13.7391V13.9623L91.3939 14.6319C88.2925 15.174 86.3101 16.3538 86.3101 19.096C86.3101 21.5194 88.1326 22.9543 90.9143 22.9543C93.1844 22.9543 94.815 22.0934 95.6463 20.4353C96.1259 22.0615 97.5008 22.9543 99.2593 22.9543C100.73 22.9543 101.753 22.5398 102.489 22.0296V19.2873C102.073 19.4468 101.753 19.5106 101.338 19.5106C100.794 19.5106 100.474 19.1917 100.474 18.4583V13.6115Z" fill="#121212"/>
<path d="M103.079 15.5247C103.079 20.0526 106.372 23.0181 110.88 23.0181C115.165 23.0181 117.563 20.2758 117.915 16.8321L113.662 16.5132C113.31 18.267 112.447 19.1279 110.944 19.1279C109.378 19.1279 108.291 18.0757 108.291 15.5247C108.291 12.9738 109.378 11.9215 110.944 11.9215C112.447 11.9215 113.31 12.7506 113.662 14.5044L117.915 14.2174C117.563 10.8055 115.165 8.03137 110.88 8.03137C106.372 8.03137 103.079 11.0287 103.079 15.5247Z" fill="#121212"/>
<path d="M120.407 18.6815C120.407 22.0296 122.677 23.0181 125.075 23.0181C127.025 23.0181 128.272 22.5398 129.36 21.7426V18.3945C128.496 18.7453 127.793 18.8728 127.153 18.8728C126.098 18.8728 125.523 18.3945 125.523 17.1828V11.9853H129.232V8.41401H125.523V4.49196H122.261L121.782 6.34138C121.43 7.64873 120.983 8.41401 119.544 8.63722L118.489 8.79665V11.9853H120.407V18.6815Z" fill="#121212"/>
<path d="M155.485 22.6354C154.813 21.902 154.717 21.0092 154.429 18.0119C154.206 15.6842 152.991 14.5044 150.912 14.0898C153.374 13.771 155.197 11.8578 155.197 8.9242C155.197 5.00214 152.607 2.54688 147.395 2.54688H137.228V22.6354H142.567V15.9711H146.18C148.003 15.9711 148.994 16.4813 149.154 18.7772C149.314 20.8498 149.569 22.0934 149.985 22.6354H155.485ZM142.567 11.794V6.88346H146.436C148.738 6.88346 149.889 7.74439 149.889 9.37061C149.889 11.22 148.738 11.794 146.436 11.794H142.567Z" fill="#121212"/>
<path d="M161.746 15.5247C161.746 13.3883 162.513 11.9215 164.336 11.9215C166.126 11.9215 166.926 13.3883 166.926 15.5247C166.926 17.6611 166.126 19.1279 164.336 19.1279C162.513 19.1279 161.746 17.6611 161.746 15.5247ZM172.137 15.5247C172.137 11.1244 168.972 8.03137 164.336 8.03137C159.668 8.03137 156.534 11.1244 156.534 15.5247C156.534 19.957 159.668 23.0181 164.336 23.0181C168.972 23.0181 172.137 19.957 172.137 15.5247Z" fill="#121212"/>
<path d="M183.594 15.3972C183.594 17.5655 182.955 18.9685 181.324 18.9685C179.757 18.9685 179.214 17.9162 179.214 16.003V8.41401H174.034V17.3742C174.034 20.3396 175.217 23.0181 179.118 23.0181C181.26 23.0181 182.827 22.0934 183.594 20.499V22.6354H188.774V8.41401H183.594V15.3972Z" fill="#121212"/>
<path d="M192.097 18.6815C192.097 22.0296 194.367 23.0181 196.765 23.0181C198.716 23.0181 199.963 22.5398 201.05 21.7426V18.3945C200.187 18.7453 199.483 18.8728 198.844 18.8728C197.789 18.8728 197.213 18.3945 197.213 17.1828V11.9853H200.922V8.41401H197.213V4.49196H193.952L193.472 6.34138C193.12 7.64873 192.673 8.41401 191.234 8.63722L190.179 8.79665V11.9853H192.097V18.6815Z" fill="#121212"/>
<path d="M213.085 17.5655C212.605 18.6815 211.71 19.1598 210.303 19.1598C208.736 19.1598 207.457 18.3307 207.329 16.577H217.337V15.1421C217.337 11.2838 214.811 8.03137 210.047 8.03137C205.603 8.03137 202.278 11.2519 202.278 15.7479C202.278 20.2758 205.539 23.0181 210.111 23.0181C213.884 23.0181 216.506 21.2005 217.241 17.9481L213.085 17.5655ZM207.393 14.0898C207.585 12.7506 208.321 11.7302 209.983 11.7302C211.518 11.7302 212.349 12.8144 212.413 14.0898H207.393Z" fill="#121212"/>
<path d="M230.5 8.57345C230.149 8.28647 229.381 8.03137 228.518 8.03137C226.632 8.03137 225.129 9.33872 224.617 10.9331V8.41401H219.437V22.6354H224.617V16.1306C224.617 13.7391 225.8 12.8463 227.719 12.8463C228.71 12.8463 229.477 13.0376 230.181 13.4521L230.5 8.57345Z" fill="#121212"/>
<path d="M30.3153 8.70475C29.218 8.36039 28.6514 8.47649 27.5004 8.35094C25.7211 8.15724 25.0123 7.46315 24.7116 5.67682C24.5433 4.67963 24.742 3.21959 24.3124 2.31566C23.4908 0.592097 21.5684 -0.180907 19.637 0.260297C18.0063 0.633347 16.6495 2.26006 16.5743 3.92982C16.4884 5.83632 17.5767 7.46304 19.4454 8.02441C20.3333 8.29164 21.2766 8.42615 22.2038 8.49431C23.9043 8.61806 24.035 9.56157 24.495 10.3382C24.785 10.8278 25.066 11.3102 25.066 12.7702C25.066 14.2301 24.7832 14.7125 24.495 15.2022C24.035 15.977 23.4675 16.4845 21.7671 16.6101C20.8398 16.6782 19.8947 16.8127 19.0087 17.08C17.1399 17.6431 16.0516 19.268 16.1375 21.1745C16.2127 22.8443 17.5695 24.471 19.2002 24.8441C21.1316 25.2871 23.0541 24.5123 23.8757 22.7887C24.3071 21.8848 24.5433 20.8607 24.7116 19.8635C25.0141 18.0772 25.7229 17.3831 27.5004 17.1894C28.6514 17.0638 29.8425 17.1894 30.9211 16.5778C32.0608 15.7466 33.079 14.4991 33.079 12.7702C33.079 11.0412 31.9817 9.22845 30.3153 8.70475Z" fill="#F44250"/>
<path d="M12.0606 16.8219C9.81778 16.8219 7.98828 14.9924 7.98828 12.7496C7.98828 10.5067 9.81778 8.67725 12.0606 8.67725C14.3035 8.67725 16.133 10.5067 16.133 12.7496C16.133 14.9906 14.3017 16.8219 12.0606 16.8219Z" fill="#121212"/>
<path d="M4.55796 25.0981C2.31873 25.0926 0.494632 23.256 0.500012 21.0113C0.505415 18.7703 2.34209 16.9462 4.58671 16.9534C6.82774 16.9588 8.65184 18.7955 8.64467 21.0401C8.63926 23.2793 6.80258 25.1034 4.55796 25.0981Z" fill="#121212"/>
<path d="M34.8168 25.098C32.5704 25.1105 30.7266 23.2937 30.7139 21.0563C30.7014 18.8099 32.5183 16.9661 34.7557 16.9534C37.002 16.9409 38.8458 18.7578 38.8585 20.9952C38.871 23.2397 37.0541 25.0854 34.8168 25.098Z" fill="#121212"/>
</svg>
