<svg width="230" height="24" viewBox="0 0 230 24" fill="none" xmlns="http://www.w3.org/2000/svg">
<path d="M27.7179 8.23453C26.6978 7.90351 26.171 8.01511 25.101 7.89443C23.447 7.70823 22.788 7.04103 22.5084 5.32388C22.352 4.36531 22.5367 2.96182 22.1373 2.0929C21.3735 0.436097 19.5863 -0.306966 17.7908 0.117149C16.2749 0.47575 15.0135 2.03946 14.9436 3.64454C14.8638 5.4772 15.8755 7.04091 17.6128 7.58054C18.4381 7.83742 19.3151 7.96673 20.1771 8.03224C21.7579 8.1512 21.8794 9.05816 22.3071 9.80467C22.5767 10.2753 22.8379 10.7391 22.8379 12.1425C22.8379 13.5459 22.575 14.0096 22.3071 14.4803C21.8794 15.2251 21.3519 15.713 19.7711 15.8337C18.9091 15.8992 18.0305 16.0285 17.2067 16.2854C15.4695 16.8267 14.4577 18.3887 14.5376 20.2213C14.6075 21.8264 15.8688 23.3901 17.3848 23.7487C19.1803 24.1746 20.9675 23.4298 21.7313 21.773C22.1324 20.9041 22.352 19.9196 22.5084 18.9611C22.7897 17.2439 23.4486 16.5767 25.101 16.3905C26.171 16.2698 27.2784 16.3905 28.281 15.8026C29.3406 15.0036 30.2872 13.8045 30.2872 12.1425C30.2872 10.4805 29.2671 8.73795 27.7179 8.23453Z" fill="#F44250"/>
<path d="M10.7468 16.0372C8.66173 16.0372 6.96094 14.2786 6.96094 12.1226C6.96094 9.96665 8.66173 8.20801 10.7468 8.20801C12.8318 8.20801 14.5326 9.96665 14.5326 12.1226C14.5326 14.2769 12.8302 16.0372 10.7468 16.0372Z" fill="#121212"/>
<path d="M3.77247 23.9928C1.69077 23.9876 -0.00498999 22.2221 1.10332e-05 20.0644C0.00503422 17.9101 1.71249 16.1567 3.7992 16.1636C5.88256 16.1688 7.57832 17.9343 7.57166 20.092C7.56663 22.2445 5.85917 23.998 3.77247 23.9928Z" fill="#121212"/>
<path d="M31.9021 23.9927C29.8138 24.0048 28.0997 22.2583 28.088 20.1076C28.0763 17.9482 29.7654 16.1758 31.8453 16.1636C33.9337 16.1516 35.6478 17.8981 35.6595 20.0488C35.6711 22.2065 33.9821 23.9806 31.9021 23.9927Z" fill="#121212"/>
<path d="M66.1442 22.7496C65.4633 21.9805 65.366 21.0442 65.0741 17.9011C64.8472 15.4601 63.615 14.2229 61.5073 13.7882C64.0041 13.4538 65.8524 11.4475 65.8524 8.37121C65.8524 4.25833 63.2259 1.68359 57.9404 1.68359H47.6289V22.7496H53.0441V15.761H56.7082C58.5565 15.761 59.5617 16.296 59.7238 18.7036C59.886 20.8771 60.1454 22.1811 60.5669 22.7496H66.1442ZM53.0441 11.3806V6.23117H56.9676C59.3023 6.23117 60.4696 7.134 60.4696 8.83934C60.4696 10.7788 59.3023 11.3806 56.9676 11.3806H53.0441Z" fill="#121212"/>
<path d="M78.169 17.4329C77.6826 18.6033 76.7746 19.1048 75.3479 19.1048C73.759 19.1048 72.462 18.2354 72.3323 16.3963H82.4816V14.8916C82.4816 10.8456 79.92 7.43494 75.0885 7.43494C70.5813 7.43494 67.2089 10.8122 67.2089 15.527C67.2089 20.2752 70.5164 23.1508 75.1533 23.1508C78.9796 23.1508 81.6386 21.2449 82.3844 17.8342L78.169 17.4329ZM72.3971 13.7882C72.5917 12.3838 73.3375 11.3138 75.0236 11.3138C76.5801 11.3138 77.4232 12.4507 77.488 13.7882H72.3971Z" fill="#121212"/>
<path d="M92.9778 16.5301C92.9778 18.4695 91.778 19.6064 90.2864 19.6064C89.4109 19.6064 88.8273 19.1048 88.8273 18.3358C88.8273 17.3661 89.5731 16.9648 90.8377 16.6973L92.9778 16.296V16.5301ZM98.1336 13.2866C98.1336 9.14029 95.3125 7.43494 91.4862 7.43494C87.1411 7.43494 84.774 9.70873 84.32 12.9857L89.184 13.32C89.4109 12.2166 89.9946 11.4475 91.1619 11.4475C92.4266 11.4475 92.9778 12.1832 92.9778 13.4204V13.6544L88.9245 14.3566C85.7792 14.9251 83.7688 16.1623 83.7688 19.038C83.7688 21.5793 85.6171 23.084 88.4382 23.084C90.7404 23.084 92.3941 22.1811 93.2372 20.4424C93.7236 22.1477 95.1179 23.084 96.9014 23.084C98.393 23.084 99.4306 22.6493 100.176 22.1143V19.2386C99.7549 19.4058 99.4306 19.4727 99.0091 19.4727C98.4578 19.4727 98.1336 19.1383 98.1336 18.3692V13.2866Z" fill="#121212"/>
<path d="M100.775 15.2929C100.775 20.0411 104.115 23.1508 108.687 23.1508C113.032 23.1508 115.464 20.2752 115.821 16.6639L111.508 16.3295C111.151 18.1686 110.276 19.0714 108.752 19.0714C107.163 19.0714 106.06 17.9679 106.06 15.2929C106.06 12.6178 107.163 11.5144 108.752 11.5144C110.276 11.5144 111.151 12.3838 111.508 14.2229L115.821 13.9219C115.464 10.3441 113.032 7.43494 108.687 7.43494C104.115 7.43494 100.775 10.5781 100.775 15.2929Z" fill="#121212"/>
<path d="M118.348 18.6033C118.348 22.1143 120.651 23.1508 123.083 23.1508C125.061 23.1508 126.325 22.6493 127.428 21.8133V18.3023C126.552 18.6701 125.839 18.8039 125.19 18.8039C124.12 18.8039 123.537 18.3023 123.537 17.0317V11.5813H127.298V7.8362H123.537V3.72332H120.229L119.743 5.66273C119.386 7.03369 118.932 7.8362 117.473 8.07027L116.403 8.23746V11.5813H118.348V18.6033Z" fill="#121212"/>
<path d="M153.923 22.7496C153.242 21.9805 153.144 21.0442 152.853 17.9011C152.626 15.4601 151.393 14.2229 149.286 13.7882C151.783 13.4538 153.631 11.4475 153.631 8.37121C153.631 4.25833 151.004 1.68359 145.719 1.68359H135.407V22.7496H140.823V15.761H144.487C146.335 15.761 147.34 16.296 147.502 18.7036C147.664 20.8771 147.924 22.1811 148.345 22.7496H153.923ZM140.823 11.3806V6.23117H144.746C147.081 6.23117 148.248 7.134 148.248 8.83934C148.248 10.7788 147.081 11.3806 144.746 11.3806H140.823Z" fill="#121212"/>
<path d="M160.273 15.2929C160.273 13.0525 161.051 11.5144 162.899 11.5144C164.715 11.5144 165.526 13.0525 165.526 15.2929C165.526 17.5332 164.715 19.0714 162.899 19.0714C161.051 19.0714 160.273 17.5332 160.273 15.2929ZM170.811 15.2929C170.811 10.6784 167.601 7.43494 162.899 7.43494C158.165 7.43494 154.987 10.6784 154.987 15.2929C154.987 19.9408 158.165 23.1508 162.899 23.1508C167.601 23.1508 170.811 19.9408 170.811 15.2929Z" fill="#121212"/>
<path d="M182.43 15.1591C182.43 17.4329 181.782 18.9042 180.128 18.9042C178.539 18.9042 177.988 17.8007 177.988 15.7945V7.8362H172.735V17.2323C172.735 20.342 173.935 23.1508 177.891 23.1508C180.063 23.1508 181.652 22.1811 182.43 20.5092V22.7496H187.683V7.8362H182.43V15.1591Z" fill="#121212"/>
<path d="M191.054 18.6033C191.054 22.1143 193.356 23.1508 195.788 23.1508C197.766 23.1508 199.031 22.6493 200.133 21.8133V18.3023C199.258 18.6701 198.544 18.8039 197.896 18.8039C196.826 18.8039 196.242 18.3023 196.242 17.0317V11.5813H200.003V7.8362H196.242V3.72332H192.935L192.448 5.66273C192.091 7.03369 191.637 7.8362 190.178 8.07027L189.108 8.23746V11.5813H191.054V18.6033Z" fill="#121212"/>
<path d="M212.338 17.4329C211.852 18.6033 210.944 19.1048 209.517 19.1048C207.928 19.1048 206.631 18.2354 206.502 16.3963H216.651V14.8916C216.651 10.8456 214.089 7.43494 209.258 7.43494C204.751 7.43494 201.378 10.8122 201.378 15.527C201.378 20.2752 204.686 23.1508 209.323 23.1508C213.149 23.1508 215.808 21.2449 216.554 17.8342L212.338 17.4329ZM206.566 13.7882C206.761 12.3838 207.507 11.3138 209.193 11.3138C210.749 11.3138 211.592 12.4507 211.657 13.7882H206.566Z" fill="#121212"/>
<path d="M230.001 8.00339C229.644 7.70245 228.866 7.43494 227.99 7.43494C226.077 7.43494 224.553 8.8059 224.034 10.4778V7.8362H218.781V22.7496H224.034V15.9282C224.034 13.4204 225.234 12.4841 227.18 12.4841C228.185 12.4841 228.963 12.6847 229.676 13.1194L230.001 8.00339Z" fill="#121212"/>
</svg>
