<svg width="231" height="26" viewBox="0 0 231 26" fill="none" xmlns="http://www.w3.org/2000/svg">
<path d="M68.9316 22.9233C68.2602 22.1899 68.1642 21.2971 67.8765 18.2997C67.6527 15.972 66.4377 14.7922 64.3594 14.3777C66.8214 14.0588 68.6438 12.1456 68.6438 9.21204C68.6438 5.28999 66.054 2.83472 60.8423 2.83472H50.6748V22.9233H56.0144V16.259H59.6273C61.4498 16.259 62.441 16.7692 62.6009 19.065C62.7607 21.1376 63.0165 22.3812 63.4322 22.9233H68.9316ZM56.0144 12.0818V7.1713H59.8831C62.1852 7.1713 63.3363 8.03224 63.3363 9.65845C63.3363 11.5079 62.1852 12.0818 59.8831 12.0818H56.0144Z" fill="white"/>
<path d="M80.7885 17.8533C80.3089 18.9693 79.4136 19.4476 78.0068 19.4476C76.4401 19.4476 75.1612 18.6186 75.0333 16.8648H85.0409V15.4299C85.0409 11.5717 82.515 8.31921 77.751 8.31921C73.3067 8.31921 69.9815 11.5398 69.9815 16.0358C69.9815 20.5637 73.2428 23.3059 77.815 23.3059C81.5878 23.3059 84.2096 21.4884 84.945 18.236L80.7885 17.8533ZM75.0972 14.3777C75.2891 13.0384 76.0244 12.0181 77.6871 12.0181C79.2218 12.0181 80.0531 13.1022 80.117 14.3777H75.0972Z" fill="white"/>
<path d="M95.3906 16.9924C95.3906 18.8418 94.2075 19.9259 92.7368 19.9259C91.8735 19.9259 91.298 19.4476 91.298 18.7143C91.298 17.7895 92.0334 17.4069 93.2803 17.1518L95.3906 16.7692V16.9924ZM100.474 13.8994C100.474 9.94543 97.6926 8.31921 93.9198 8.31921C89.6354 8.31921 87.3013 10.4875 86.8537 13.6124L91.6497 13.9313C91.8735 12.879 92.449 12.1456 93.6001 12.1456C94.847 12.1456 95.3906 12.8471 95.3906 14.0269V14.2501L91.3939 14.9197C88.2925 15.4618 86.3101 16.6416 86.3101 19.3839C86.3101 21.8073 88.1326 23.2421 90.9143 23.2421C93.1844 23.2421 94.815 22.3812 95.6463 20.7231C96.1259 22.3493 97.5008 23.2421 99.2593 23.2421C100.73 23.2421 101.753 22.8276 102.489 22.3174V19.5752C102.073 19.7346 101.753 19.7984 101.338 19.7984C100.794 19.7984 100.474 19.4795 100.474 18.7461V13.8994Z" fill="white"/>
<path d="M103.079 15.8126C103.079 20.3405 106.372 23.3059 110.88 23.3059C115.165 23.3059 117.563 20.5637 117.915 17.1199L113.662 16.8011C113.31 18.5548 112.447 19.4158 110.944 19.4158C109.378 19.4158 108.291 18.3635 108.291 15.8126C108.291 13.2616 109.378 12.2094 110.944 12.2094C112.447 12.2094 113.31 13.0384 113.662 14.7922L117.915 14.5052C117.563 11.0933 115.165 8.31921 110.88 8.31921C106.372 8.31921 103.079 11.3166 103.079 15.8126Z" fill="white"/>
<path d="M120.407 18.9693C120.407 22.3174 122.677 23.3059 125.075 23.3059C127.025 23.3059 128.272 22.8276 129.36 22.0305V18.6824C128.496 19.0331 127.793 19.1607 127.153 19.1607C126.098 19.1607 125.523 18.6824 125.523 17.4707V12.2732H129.232V8.70185H125.523V4.7798H122.261L121.782 6.62922C121.43 7.93658 120.983 8.70185 119.544 8.92506L118.489 9.08449V12.2732H120.407V18.9693Z" fill="white"/>
<path d="M155.485 22.9233C154.813 22.1899 154.717 21.2971 154.429 18.2997C154.206 15.972 152.991 14.7922 150.912 14.3777C153.374 14.0588 155.197 12.1456 155.197 9.21204C155.197 5.28999 152.607 2.83472 147.395 2.83472H137.228V22.9233H142.567V16.259H146.18C148.003 16.259 148.994 16.7692 149.154 19.065C149.314 21.1376 149.569 22.3812 149.985 22.9233H155.485ZM142.567 12.0818V7.1713H146.436C148.738 7.1713 149.889 8.03224 149.889 9.65845C149.889 11.5079 148.738 12.0818 146.436 12.0818H142.567Z" fill="white"/>
<path d="M161.746 15.8126C161.746 13.6762 162.513 12.2094 164.336 12.2094C166.126 12.2094 166.926 13.6762 166.926 15.8126C166.926 17.949 166.126 19.4158 164.336 19.4158C162.513 19.4158 161.746 17.949 161.746 15.8126ZM172.137 15.8126C172.137 11.4122 168.972 8.31921 164.336 8.31921C159.668 8.31921 156.534 11.4122 156.534 15.8126C156.534 20.2448 159.668 23.3059 164.336 23.3059C168.972 23.3059 172.137 20.2448 172.137 15.8126Z" fill="white"/>
<path d="M183.594 15.685C183.594 17.8533 182.955 19.2563 181.324 19.2563C179.757 19.2563 179.214 18.2041 179.214 16.2909V8.70185H174.034V17.662C174.034 20.6274 175.217 23.3059 179.118 23.3059C181.26 23.3059 182.827 22.3812 183.594 20.7869V22.9233H188.774V8.70185H183.594V15.685Z" fill="white"/>
<path d="M192.097 18.9693C192.097 22.3174 194.367 23.3059 196.765 23.3059C198.716 23.3059 199.963 22.8276 201.05 22.0305V18.6824C200.187 19.0331 199.483 19.1607 198.844 19.1607C197.789 19.1607 197.213 18.6824 197.213 17.4707V12.2732H200.922V8.70185H197.213V4.7798H193.952L193.472 6.62922C193.12 7.93658 192.673 8.70185 191.234 8.92506L190.179 9.08449V12.2732H192.097V18.9693Z" fill="white"/>
<path d="M213.085 17.8533C212.605 18.9693 211.71 19.4476 210.303 19.4476C208.736 19.4476 207.457 18.6186 207.329 16.8648H217.337V15.4299C217.337 11.5717 214.811 8.31921 210.047 8.31921C205.603 8.31921 202.278 11.5398 202.278 16.0358C202.278 20.5637 205.539 23.3059 210.111 23.3059C213.884 23.3059 216.506 21.4884 217.241 18.236L213.085 17.8533ZM207.393 14.3777C207.585 13.0384 208.321 12.0181 209.983 12.0181C211.518 12.0181 212.349 13.1022 212.413 14.3777H207.393Z" fill="white"/>
<path d="M230.5 8.86129C230.149 8.57431 229.381 8.31921 228.518 8.31921C226.632 8.31921 225.129 9.62657 224.617 11.2209V8.70185H219.437V22.9233H224.617V16.4184C224.617 14.0269 225.8 13.1341 227.719 13.1341C228.71 13.1341 229.477 13.3254 230.181 13.7399L230.5 8.86129Z" fill="white"/>
<path d="M30.3153 8.99259C29.218 8.64824 28.6514 8.76433 27.5004 8.63878C25.7211 8.44508 25.0123 7.751 24.7116 5.96466C24.5433 4.96747 24.742 3.50743 24.3124 2.6035C23.4908 0.879938 21.5684 0.106935 19.637 0.548139C18.0063 0.921189 16.6495 2.5479 16.5743 4.21766C16.4884 6.12417 17.5767 7.75088 19.4454 8.31225C20.3333 8.57948 21.2766 8.714 22.2038 8.78215C23.9043 8.9059 24.035 9.84941 24.495 10.626C24.785 11.1156 25.066 11.5981 25.066 13.058C25.066 14.5179 24.7832 15.0004 24.495 15.49C24.035 16.2648 23.4675 16.7724 21.7671 16.8979C20.8398 16.9661 19.8947 17.1006 19.0087 17.3678C17.1399 17.931 16.0516 19.5559 16.1375 21.4624C16.2127 23.1321 17.5695 24.7589 19.2002 25.1319C21.1316 25.5749 23.0541 24.8001 23.8757 23.0765C24.3071 22.1726 24.5433 21.1485 24.7116 20.1513C25.0141 18.365 25.7229 17.6709 27.5004 17.4772C28.6514 17.3517 29.8425 17.4772 30.9211 16.8656C32.0608 16.0344 33.079 14.7869 33.079 13.058C33.079 11.3291 31.9817 9.5163 30.3153 8.99259Z" fill="#F44250"/>
<path d="M12.0606 17.1098C9.81778 17.1098 7.98828 15.2803 7.98828 13.0374C7.98828 10.7946 9.81778 8.96509 12.0606 8.96509C14.3035 8.96509 16.133 10.7946 16.133 13.0374C16.133 15.2785 14.3017 17.1098 12.0606 17.1098Z" fill="white"/>
<path d="M4.55796 25.3859C2.31873 25.3805 0.494632 23.5438 0.500012 21.2992C0.505415 19.0582 2.34209 17.2341 4.58671 17.2412C6.82774 17.2466 8.65184 19.0833 8.64467 21.3279C8.63926 23.5672 6.80258 25.3913 4.55796 25.3859Z" fill="white"/>
<path d="M34.8168 25.3858C32.5704 25.3984 30.7266 23.5815 30.7139 21.3441C30.7014 19.0977 32.5183 17.2539 34.7557 17.2413C37.002 17.2288 38.8458 19.0456 38.8585 21.283C38.871 23.5276 37.0541 25.3732 34.8168 25.3858Z" fill="white"/>
</svg>
