<svg width="816" height="98" viewBox="0 0 816 98" fill="none" xmlns="http://www.w3.org/2000/svg">
<g clip-path="url(#clip0_171_2112)">
<path d="M61.8683 96.167C59.8869 93.5657 58.6604 87.3118 57.9056 77.0818C57.1373 66.2454 52.258 62.7276 42.6477 62.7276H23.2654V96.1535H0.5V0H46.907C71.7886 0 84.0002 11.6047 84.0002 30.0833C84.0002 44.2759 74.9965 53.1311 63.2431 54.6541C73.4734 56.6354 79.2692 62.5928 80.334 73.8875C81.7089 88.08 82.1671 92.6626 85.3751 96.167H61.8683ZM43.2408 44.8824C55.3042 44.8824 61.2483 41.3781 61.2483 31.9029C61.2483 23.3577 55.2907 18.6269 43.2408 18.6269H23.2385V44.8824H43.2408Z" fill="#121212"/>
<path d="M156.556 73.8874C153.051 89.3065 140.988 97.9999 123.277 97.9999C101.752 97.9999 86.4938 84.8721 86.4938 63.3474C86.4938 41.8228 102.062 26.5654 122.819 26.5654C145.261 26.5654 157.014 41.9845 157.014 60.4496V67.1618H108.167C108.774 76.1652 115.5 81.3543 124.045 81.3543C131.674 81.3543 136.405 78.4565 138.858 72.2026L156.569 73.8874H156.556ZM135.799 55.4088C135.34 48.6966 131.068 42.591 122.67 42.591C113.815 42.591 109.691 48.2384 108.477 55.4088H135.799Z" fill="#121212"/>
<path d="M227.09 77.7017C227.09 81.2061 228.613 82.7426 231.362 82.7426C233.344 82.7426 235.029 82.4326 237.01 81.516V93.269C233.654 95.7086 229.381 97.6899 222.669 97.6899C214.581 97.6899 208.624 93.4173 206.643 85.7886C202.828 93.579 194.431 97.6899 183.904 97.6899C170.318 97.6899 161.772 90.816 161.772 79.2248C161.772 66.2452 171.544 60.7596 186.505 57.8618L205.429 54.5057V53.2792C205.429 46.8636 202.222 43.0493 195.509 43.0493C188.797 43.0493 185.899 47.0119 184.672 52.6592L164.225 51.1362C166.517 36.6336 177.353 26.5654 196.736 26.5654C214.447 26.5654 227.117 34.5041 227.117 52.9692V77.7017H227.09ZM205.416 66.097L194.269 68.3883C187.395 69.7631 183.122 71.4344 183.122 76.7852C183.122 80.7478 186.182 83.2008 190.913 83.2008C199 83.2008 205.416 77.0952 205.416 67.4852V66.1105V66.097Z" fill="#121212"/>
<path d="M272.674 26.5654C292.825 26.5654 304.12 39.8415 305.791 56.0288L287.474 57.4036C285.951 48.2519 281.058 43.3593 272.823 43.3593C264.587 43.3593 258.32 49.3166 258.32 62.2827C258.32 75.2487 264.277 81.2061 272.823 81.2061C281.368 81.2061 285.951 76.1652 287.474 67.0135L305.791 68.5365C304.107 84.8721 292.811 97.9999 272.674 97.9999C251.459 97.9999 236.039 83.8073 236.039 62.2827C236.039 40.758 251.459 26.5654 272.674 26.5654Z" fill="#121212"/>
<path d="M316.049 43.8172H306.587V30.3795L311.466 29.6112C318.178 28.3847 320.173 24.8804 321.845 18.6265L324.136 9.62305H337.722V28.3982H355.73V43.8172H337.722V72.0541C337.722 77.8497 340.472 80.3027 345.661 80.3027C349.017 80.3027 352.535 79.3862 356.646 77.5532V92.0557C351.605 95.8701 345.81 98.0131 336.954 98.0131C325.969 98.0131 316.049 93.2822 316.049 78.0114V43.8172Z" fill="#121212"/>
<path d="M518.511 97.9999C496.838 97.9999 482.025 83.3491 482.025 62.2827C482.025 41.2162 496.824 26.5654 518.511 26.5654C540.199 26.5654 555.146 41.3645 555.146 62.2827C555.146 83.2008 540.185 97.9999 518.511 97.9999ZM518.511 81.3678C528.122 81.3678 532.853 73.5774 532.853 62.2827C532.853 50.9879 528.122 43.1975 518.511 43.1975C508.901 43.1975 504.318 50.9879 504.318 62.2827C504.318 73.5774 508.739 81.3678 518.511 81.3678Z" fill="#121212"/>
<path d="M606.109 28.3984H628.241V96.1668H606.109V85.6404C602.443 93.269 594.814 97.9999 584.584 97.9999C566.266 97.9999 560.47 85.4786 560.47 70.9896V28.3984H582.454V65.6387C582.454 75.2487 585.662 80.5995 593.749 80.5995C601.836 80.5995 606.109 73.7256 606.109 62.8892V28.3984Z" fill="#121212"/>
<path d="M644.227 43.8172H634.765V30.3795L639.644 29.6112C646.357 28.3847 648.351 24.8804 650.023 18.6265L652.314 9.62305H665.901V28.3982H683.908V43.8172H665.901V72.0541C665.901 77.8497 668.65 80.3027 673.839 80.3027C677.196 80.3027 680.714 79.3862 684.825 77.5532V92.0557C679.784 95.8701 673.988 98.0131 665.132 98.0131C654.147 98.0131 644.227 93.2822 644.227 78.0114V43.8172Z" fill="#121212"/>
<path d="M759.213 73.8874C755.709 89.3065 743.645 97.9999 725.934 97.9999C704.409 97.9999 689.151 84.8721 689.151 63.3474C689.151 41.8228 704.719 26.5654 725.476 26.5654C747.918 26.5654 759.671 41.9845 759.671 60.4496V67.1618H710.825C711.431 76.1652 718.157 81.3543 726.703 81.3543C734.332 81.3543 739.063 78.4565 741.502 72.2026L759.213 73.8874ZM738.456 55.4088C737.998 48.6966 733.725 42.591 725.328 42.591C716.472 42.591 712.348 48.2384 711.135 55.4088H738.456Z" fill="#121212"/>
<path d="M814.125 49.9232C810.621 47.9419 807.251 47.1736 802.52 47.1736C793.368 47.1736 787.262 52.3627 787.262 64.1157V96.1669H765.279V28.3985H787.262V40.758C789.864 33.1293 796.873 26.5654 806.038 26.5654C810.162 26.5654 813.667 27.7919 815.5 29.315L814.125 49.9232Z" fill="#121212"/>
<path fill-rule="evenodd" clip-rule="evenodd" d="M477.941 96.3959C477.941 90.6946 477.941 85.4786 477.078 74.3321C476 63.1452 470.177 57.4709 460.216 55.4761C472.024 53.9396 480.758 44.7474 480.758 30.6492C480.758 11.7932 468.344 -0.0136719 443.341 -0.0136719H396.974V19.6375H438.731C449.77 19.6375 455.297 24.3684 455.297 32.1858C455.297 41.0814 449.77 44.4374 438.731 44.4374H396.974V64.52H437.505C446.239 64.52 450.997 66.973 451.765 78.0116C452.345 85.546 452.277 89.2794 452.197 92.8646C452.17 94.0103 452.156 95.1559 452.156 96.3959H477.927H477.941Z" fill="#121212"/>
<path fill-rule="evenodd" clip-rule="evenodd" d="M396.974 79.4355V96.4098H427.768V84.8268C427.768 82.8186 426.784 79.4355 422.228 79.4355H396.974Z" fill="#121212"/>
</g>
<defs>
<clipPath id="clip0_171_2112">
<rect width="815" height="98" fill="white" transform="translate(0.5)"/>
</clipPath>
</defs>
</svg>
