<svg width="1082" height="174" fill="none" xmlns="http://www.w3.org/2000/svg"><path d="M232.527 86.507c0 7.964-3.23 15.173-8.46 20.386a28.833 28.833 0 0 1-20.433 8.449 28.81 28.81 0 0 0-20.428 8.443c-5.229 5.22-8.465 12.428-8.465 20.393a28.697 28.697 0 0 1-8.46 20.387 28.837 28.837 0 0 1-20.434 8.448 28.811 28.811 0 0 1-20.427-8.448c-5.23-5.214-8.466-12.423-8.466-20.387 0-7.965 3.236-15.173 8.466-20.393a28.807 28.807 0 0 1 20.427-8.443 28.833 28.833 0 0 0 20.434-8.449 28.692 28.692 0 0 0 8.46-20.386c0-15.93-12.933-28.836-28.894-28.836-7.98 0-15.203-3.23-20.427-8.449-5.23-5.213-8.466-12.422-8.466-20.386 0-7.965 3.236-15.174 8.466-20.393A28.806 28.806 0 0 1 145.847 0c15.961 0 28.894 12.907 28.894 28.836 0 7.964 3.236 15.173 8.465 20.386a28.814 28.814 0 0 0 20.428 8.45c15.96 0 28.893 12.906 28.893 28.835Zm-115.573 0c0-15.926-12.936-28.836-28.893-28.836-15.958 0-28.893 12.91-28.893 28.836 0 15.925 12.935 28.835 28.893 28.835 15.957 0 28.893-12.91 28.893-28.835Zm-57.786 57.67c0-15.925-12.936-28.835-28.894-28.835-15.957 0-28.893 12.91-28.893 28.835 0 15.926 12.936 28.836 28.893 28.836 15.958 0 28.894-12.91 28.894-28.836Zm231.145 0c0-15.925-12.935-28.835-28.893-28.835-15.957 0-28.893 12.91-28.893 28.835 0 15.926 12.936 28.836 28.893 28.836 15.958 0 28.893-12.91 28.893-28.836Z" fill="#121212"/><g clip-path="url(#a)" fill="#121212"><path d="M563.482 172.754c-38.094 0-64.119-25.757-64.119-62.779 0-37.023 26.025-62.78 64.119-62.78s64.387 26.025 64.387 62.78c0 36.754-26.293 62.779-64.387 62.779Zm0-29.241c16.904 0 25.221-13.688 25.221-33.538 0-19.851-8.317-33.54-25.221-33.54-16.903 0-24.953 13.689-24.953 33.54 0 19.85 7.782 33.538 24.953 33.538Zm271.158-2.89c-9.423 0-14.403-4.432-14.403-14.961V74.405h32.691V47.286h-32.691V.662H792.75l-5.65 25.043c-2.757 10.282-5.28 16.624-12.203 19.884-.792.368-2.768.916-4.488 1.306a19.362 19.362 0 0 1-4.242.47h-12.829v.066h-17.506c-11.254 0-20.387 9.122-20.387 20.387v43.241c0 19.047-7.246 31.116-21.726 31.116-14.481 0-19.851-9.39-19.851-26.293v-68.45h-38.619v77.84c0 25.489 10.193 47.483 42.381 47.483 15.285 0 27.265-6.018 34.466-16.066 1.049-1.462 3.349-.692 3.349 1.094v11.746h38.887v-86.18a8.953 8.953 0 0 1 8.954-8.955h17.596v62.065c0 27.711 18.008 36.296 37.96 36.296 16.066 0 26.594-3.874 35.738-10.807v-26.316c-7.48 3.328-13.855 4.991-19.951 4.991h.011Zm147.921-10.251c-6.174 27.097-27.364 42.393-58.491 42.393-37.827 0-64.655-23.078-64.655-60.904 0-37.826 27.364-64.655 63.851-64.655 39.433 0 60.099 27.097 60.099 59.564v6.621h-85.856c-1.954 21.827 12.873 30.133 27.9 30.133 13.42 0 21.727-5.102 26.025-16.099l31.127 2.947Zm-36.486-35.928c-.804-11.801-8.318-19.08-23.077-19.08-15.564 0-22.81 6.464-24.953 19.08h48.03Zm131.165-9.189c-6.18-3.483-12.07-4.834-20.39-4.834-16.1 0-26.83 9.122-26.83 29.776v59.33h-38.627V47.429h38.627V63.83c0 1.14 1.52 1.496 2.03.48 5.63-11.231 16.86-20.096 30.98-20.096 7.24 0 13.42 2.144 16.63 4.834l-2.41 36.219-.01-.012ZM548.321 31.041v-7.536h-24.864v7.536h-7.079V1.745h26.762c11.422 0 12.226.715 12.226 10.886 0 4.287-.894 5.437-3.037 6.531l-1.921.983 1.91 1.004c2.277 1.195 3.048 1.597 3.048 8.385v1.507h-7.045Zm-24.864-13.174h24.864V7.394h-24.864v10.473Zm56.036-16.122h32.333v5.672h-30.759v6.598h29.944v4.779h-29.944v6.61h30.77v5.604l-32.333.033a5.711 5.711 0 0 1-5.717-5.705V7.461a5.709 5.709 0 0 1 5.706-5.705v-.01Zm77.069 29.296-2.411-5.191h-19.404l-2.412 5.191h-6.755l12.427-26.784a4.341 4.341 0 0 1 3.93-2.512h4.99a4.33 4.33 0 0 1 3.93 2.512l12.427 26.784h-6.755.033ZM644.46 7.573c-.748 0-1.407.424-1.731 1.105l-5.761 12.404h14.972l-5.75-12.404a1.889 1.889 0 0 0-1.73-1.105Z"/><path d="M695.862 31.922c-18.812 0-19.549 0-19.549-15.53S677.05.873 695.862.873c16.859 0 18.902.703 19.382 9.166h-6.911V6.522h-25.165v19.75h25.165v-3.494h6.911c-.469 8.44-2.523 9.144-19.382 9.144Zm50.42-.881V6.535H730.16v-4.79h38.988v4.79h-16.122V31.04h-6.744ZM455.419 169.326c-3.484-4.555-5.627-15.005-6.967-32.422-1.34-19.293-9.646-23.58-24.92-23.58h-30.278v56.013h-44.76V.493h85.221c43.676 0 65.391 20.633 65.391 53.602 0 24.652-15.273 40.729-35.905 43.42 17.417 3.483 27.599 13.397 29.475 32.958 2.411 25.188 3.215 32.69 8.842 38.853h-46.099Zm-29.743-91.115c19.293 0 28.939-4.823 28.939-20.365 0-13.665-9.646-20.9-28.939-20.9h-32.422v41.276h32.422v-.011Z"/></g><defs><clipPath id="a"><path fill="#fff" transform="translate(348.494 .493)" d="M0 0h731.156v172.261H0z"/></clipPath></defs></svg>