<svg width="602" height="360" fill="none" xmlns="http://www.w3.org/2000/svg"><path d="M480.96 180c0 16.572-6.721 31.572-17.603 42.42C452.475 233.28 437.445 240 420.84 240c-16.605 0-31.635 6.708-42.505 17.568-10.882 10.86-17.615 25.86-17.615 42.432 0 16.572-6.721 31.572-17.603 42.42C332.235 353.28 317.205 360 300.6 360c-16.605 0-31.635-6.72-42.505-17.58-10.882-10.848-17.615-25.848-17.615-42.42 0-16.572 6.733-31.572 17.615-42.432 10.87-10.86 25.9-17.568 42.505-17.568 16.605 0 31.635-6.72 42.517-17.58 10.882-10.848 17.603-25.848 17.603-42.42 0-33.144-26.91-60-60.12-60-16.605 0-31.635-6.72-42.505-17.58C247.213 91.572 240.48 76.572 240.48 60c0-16.572 6.733-31.572 17.615-42.432C268.965 6.708 283.995 0 300.6 0c33.21 0 60.12 26.856 60.12 60 0 16.572 6.733 31.572 17.615 42.42 10.87 10.86 25.9 17.58 42.505 17.58 33.21 0 60.12 26.856 60.12 60Zm-240.48 0c0-33.138-26.917-60-60.12-60-33.203 0-60.12 26.862-60.12 60 0 33.137 26.917 60 60.12 60 33.203 0 60.12-26.863 60.12-60ZM120.24 300c0-33.137-26.917-60-60.12-60C26.917 240 0 266.863 0 300c0 33.138 26.917 60 60.12 60 33.203 0 60.12-26.862 60.12-60Zm480.96 0c0-33.137-26.917-60-60.12-60-33.203 0-60.12 26.863-60.12 60 0 33.138 26.917 60 60.12 60 33.203 0 60.12-26.862 60.12-60Z" fill="#fff"/></svg>0Z" fill="#fff"/></svg>