<svg width="592" height="150" viewBox="0 0 592 150" fill="none" xmlns="http://www.w3.org/2000/svg">
<path d="M200.311 75C200.311 81.8129 197.538 87.9796 193.049 92.4393C188.561 96.904 182.361 99.6667 175.511 99.6667C168.661 99.6667 162.461 102.424 157.977 106.889C153.488 111.354 150.711 117.52 150.711 124.333C150.711 131.146 147.938 137.313 143.449 141.773C138.961 146.237 132.761 149 125.911 149C119.061 149 112.861 146.237 108.377 141.773C103.888 137.313 101.111 131.146 101.111 124.333C101.111 117.52 103.888 111.354 108.377 106.889C112.861 102.424 119.061 99.6667 125.911 99.6667C132.761 99.6667 138.961 96.904 143.449 92.4393C147.938 87.9796 150.711 81.8129 150.711 75C150.711 61.3741 139.61 50.3333 125.911 50.3333C119.061 50.3333 112.861 47.5707 108.377 43.106C103.888 38.6463 101.111 32.4796 101.111 25.6667C101.111 18.8537 103.888 12.6871 108.377 8.2224C112.861 3.75773 119.061 1 125.911 1C139.61 1 150.711 12.0408 150.711 25.6667C150.711 32.4796 153.488 38.6463 157.977 43.106C162.461 47.5707 168.661 50.3333 175.511 50.3333C189.21 50.3333 200.311 61.3741 200.311 75Z" fill="#F44250"/>
<path d="M101.111 74.9997C101.111 61.3767 90.0076 50.333 76.311 50.333C62.6143 50.333 51.511 61.3767 51.511 74.9997C51.511 88.6227 62.6143 99.6663 76.311 99.6663C90.0076 99.6663 101.111 88.6227 101.111 74.9997Z" fill="white"/>
<path d="M51.5109 124.334C51.5109 110.711 40.4076 99.667 26.7109 99.667C13.0142 99.667 1.91089 110.711 1.91089 124.334C1.91089 137.957 13.0142 149 26.7109 149C40.4076 149 51.5109 137.957 51.5109 124.334Z" fill="white"/>
<path d="M249.911 124.334C249.911 110.711 238.807 99.667 225.111 99.667C211.414 99.667 200.311 110.711 200.311 124.334C200.311 137.957 211.414 149 225.111 149C238.807 149 249.911 137.957 249.911 124.334Z" fill="white"/>
<path d="M340.753 68.1218C339.37 66.3058 338.513 61.9398 337.986 54.7982C337.45 47.2331 334.044 44.7773 327.335 44.7773H313.804V68.1123H297.911V0.986328H330.308C347.678 0.986328 356.204 9.08774 356.204 21.9879C356.204 31.8959 349.918 38.0778 341.713 39.1411C348.855 40.5243 352.901 44.6832 353.644 52.5682C354.604 62.4762 354.924 65.6753 357.163 68.1218H340.753ZM327.749 32.3193C336.17 32.3193 340.32 29.8729 340.32 23.2582C340.32 17.2927 336.161 13.99 327.749 13.99H313.785V32.3193H327.749Z" fill="white"/>
<path d="M406.856 52.5683C404.409 63.3326 395.987 69.4016 383.623 69.4016C368.596 69.4016 357.944 60.2369 357.944 45.2102C357.944 30.1836 368.812 19.5322 383.303 19.5322C398.97 19.5322 407.175 30.2965 407.175 43.1872V47.8731H373.075C373.498 54.1585 378.194 57.7811 384.16 57.7811C389.485 57.7811 392.788 55.7581 394.501 51.3922L406.865 52.5683H406.856ZM392.365 39.6682C392.045 34.9823 389.062 30.7199 383.2 30.7199C377.018 30.7199 374.138 34.6624 373.291 39.6682H392.365Z" fill="white"/>
<path d="M456.096 55.2311C456.096 57.6776 457.159 58.7502 459.079 58.7502C460.462 58.7502 461.638 58.5338 463.022 57.894V66.0989C460.679 67.802 457.696 69.1852 453.01 69.1852C447.364 69.1852 443.205 66.2024 441.822 60.8767C439.159 66.3153 433.297 69.1852 425.948 69.1852C416.463 69.1852 410.497 64.3864 410.497 56.2944C410.497 47.2332 417.319 43.4036 427.764 41.3806L440.975 39.0377V38.1815C440.975 33.7026 438.735 31.0398 434.049 31.0398C429.363 31.0398 427.34 33.8061 426.484 37.7486L412.21 36.6854C413.809 26.561 421.375 19.5322 434.906 19.5322C447.27 19.5322 456.115 25.0743 456.115 37.9651V55.2311H456.096ZM440.965 47.1297L433.184 48.7293C428.385 49.6891 425.402 50.8558 425.402 54.5913C425.402 57.3577 427.538 59.0701 430.841 59.0701C436.486 59.0701 440.965 54.8077 440.965 48.0989V47.1391V47.1297Z" fill="white"/>
<path d="M487.92 19.5322C501.987 19.5322 509.872 28.8004 511.039 40.101L498.251 41.0607C497.188 34.6718 493.772 31.2562 488.023 31.2562C482.274 31.2562 477.898 35.4151 477.898 44.4669C477.898 53.5187 482.057 57.6776 488.023 57.6776C493.989 57.6776 497.188 54.1585 498.251 47.7696L511.039 48.8328C509.863 60.2369 501.978 69.4016 487.92 69.4016C473.109 69.4016 462.344 59.4936 462.344 44.4669C462.344 29.4402 473.109 19.5322 487.92 19.5322Z" fill="white"/>
<path d="M518.2 31.5755H511.594V22.1944L515.001 21.6581C519.687 20.8019 521.079 18.3554 522.246 13.9895L523.846 7.7041H533.33V20.8113H545.902V31.5755H533.33V51.288C533.33 55.334 535.25 57.0465 538.873 57.0465C541.216 57.0465 543.672 56.4067 546.542 55.127V65.2514C543.022 67.9143 538.976 69.4104 532.794 69.4104C525.125 69.4104 518.2 66.1077 518.2 55.4469V31.5755Z" fill="white"/>
<path d="M382.758 149.005C367.627 149.005 357.286 138.777 357.286 124.07C357.286 109.364 367.617 99.1357 382.758 99.1357C397.898 99.1357 408.333 109.467 408.333 124.07C408.333 138.674 397.888 149.005 382.758 149.005ZM382.758 137.394C389.467 137.394 392.769 131.955 392.769 124.07C392.769 116.185 389.467 110.747 382.758 110.747C376.048 110.747 372.849 116.185 372.849 124.07C372.849 131.955 375.936 137.394 382.758 137.394Z" fill="white"/>
<path d="M443.911 100.415H459.361V147.725H443.911V140.376C441.351 145.702 436.026 149.005 428.884 149.005C416.096 149.005 412.05 140.263 412.05 130.148V100.415H427.397V126.413C427.397 133.122 429.636 136.857 435.282 136.857C440.928 136.857 443.911 132.059 443.911 124.493V100.415Z" fill="white"/>
<path d="M470.521 111.179H463.916V101.798L467.322 101.262C472.008 100.405 473.4 97.959 474.567 93.593L476.167 87.3076H485.652V100.415H498.223V111.179H485.652V130.892C485.652 134.938 487.571 136.65 491.194 136.65C493.537 136.65 495.993 136.01 498.863 134.731V144.855C495.344 147.518 491.298 149.014 485.115 149.014C477.447 149.014 470.521 145.711 470.521 135.05V111.179Z" fill="white"/>
<path d="M550.795 132.172C548.348 142.936 539.926 149.005 527.562 149.005C512.535 149.005 501.883 139.84 501.883 124.814C501.883 109.787 512.751 99.1357 527.242 99.1357C542.909 99.1357 551.114 109.9 551.114 122.791V127.477H517.014C517.437 133.762 522.133 137.385 528.099 137.385C533.424 137.385 536.727 135.362 538.43 130.996L550.795 132.172ZM536.304 119.272C535.984 114.586 533.001 110.323 527.139 110.323C520.957 110.323 518.077 114.266 517.23 119.272H536.304Z" fill="white"/>
<path d="M589.129 115.442C586.683 114.059 584.33 113.523 581.028 113.523C574.638 113.523 570.376 117.145 570.376 125.35V147.725H555.029V100.415H570.376V109.044C572.192 103.718 577.085 99.1357 583.484 99.1357C586.363 99.1357 588.809 99.992 590.089 101.055L589.129 115.442Z" fill="white"/>
<path fill-rule="evenodd" clip-rule="evenodd" d="M354.435 147.885C354.435 143.905 354.434 140.263 353.832 132.482C353.08 124.672 349.015 120.711 342.061 119.318C350.304 118.246 356.401 111.828 356.401 101.986C356.401 88.8226 347.735 80.5801 330.28 80.5801H297.911V94.2989H327.062C334.768 94.2989 338.626 97.6015 338.626 103.059C338.626 109.269 334.768 111.612 327.062 111.612H297.911V125.632H326.206C332.303 125.632 335.625 127.344 336.161 135.051C336.566 140.31 336.519 142.917 336.462 145.42C336.443 146.219 336.434 147.019 336.434 147.885H354.425H354.435Z" fill="white"/>
<path fill-rule="evenodd" clip-rule="evenodd" d="M297.911 136.045V147.895H319.408V139.809C319.408 138.407 318.721 136.045 315.541 136.045H297.911Z" fill="white"/>
</svg>
